<?xml version="1.0" encoding="utf-8"?>
<svg version="1.1" id="dots" xmlns="http://www.w3.org/2000/svg" xmlns:xlink="http://www.w3.org/1999/xlink" x="0px" y="0px"
	 viewBox="0 0 1440 635" style="enable-background:new 0 0 1440 635;" xml:space="preserve">
  <style type="text/css">
    .dot{fill:#C4D2F9;}
  </style>
  <path class="dot" d="M863,4.3c2.8,0,5.1-2.3,5.1-5.1s-2.3-5.1-5.1-5.1s-5.1,2.3-5.1,5.1S860.1,4.3,863,4.3z"/>
  <circle class="dot" cx="833.1" cy="4.5" r="4.9"/>
  <circle class="dot" cx="803" cy="8.7" r="4.9"/>
  <path class="dot" d="M772.8,16.5c2.7,0,4.9-2.2,4.9-4.9s-2.2-4.9-4.9-4.9s-4.9,2.2-4.9,4.9S770.1,16.5,772.8,16.5z M742.5,18.4
    c2.7,0,5-2.2,5-5c0-2.7-2.2-5-5-5c-2.7,0-5,2.2-5,5C737.6,16.2,739.8,18.4,742.5,18.4z"/>
  <circle class="dot" cx="712.2" cy="14" r="5"/>
  <path class="dot" d="M681.8,18.4c2.7,0,5-2.2,5-5c0-2.7-2.2-5-5-5c-2.7,0-5,2.2-5,5C676.9,16.2,679.1,18.4,681.8,18.4z M651.5,16.6
    c2.7,0,5-2.2,5-5c0-2.7-2.2-5-5-5c-2.7,0-5,2.2-5,5C646.6,14.4,648.8,16.6,651.5,16.6z"/>
  <circle class="dot" cx="621.3" cy="8.7" r="4.9"/>
  <circle class="dot" cx="591.3" cy="4.5" r="4.9"/>
  <circle class="dot" cx="561.4" cy="-0.8" r="5.1"/>
  <circle class="dot" cx="944" cy="3.7" r="4.8"/>
  <path class="dot" d="M919.6,12c0-2.7-2.2-4.8-4.8-4.8c-2.7,0-4.8,2.2-4.8,4.8s2.2,4.8,4.8,4.8C917.5,16.8,919.6,14.7,919.6,12z
    M885.3,24c2.7,0,4.8-2.2,4.8-4.8c0-2.7-2.2-4.8-4.8-4.8c-2.7,0-4.8,2.2-4.8,4.8S882.6,24,885.3,24z"/>
  <circle class="dot" cx="855.6" cy="25.2" r="4.7"/>
  <circle class="dot" cx="825.6" cy="30.1" r="4.8"/>
  <circle class="dot" cx="795.5" cy="33.8" r="4.8"/>
  <circle class="dot" cx="765.2" cy="36.4" r="4.8"/>
  <circle class="dot" cx="734.9" cy="37.9" r="4.8"/>
  <circle class="dot" cx="704.6" cy="38.1" r="4.8"/>
  <circle class="dot" cx="674.2" cy="37.3" r="4.8"/>
  <circle class="dot" cx="644" cy="35.3" r="4.8"/>
  <circle class="dot" cx="613.8" cy="32.1" r="4.8"/>
  <circle class="dot" cx="583.7" cy="27.8" r="4.8"/>
  <circle class="dot" cx="553.9" cy="22.3" r="4.8"/>
  <circle class="dot" cx="524.3" cy="15.7" r="4.8"/>
  <path class="dot" d="M499.7,8c0-2.7-2.2-4.8-4.8-4.8c-2.7,0-4.8,2.2-4.8,4.8c0,2.7,2.2,4.8,4.8,4.8C497.6,12.8,499.7,10.7,499.7,8z"
    />
  <circle class="dot" cx="465.9" cy="-0.8" r="5"/>
  <path class="dot" d="M1022.9,5.9c2.6,0,4.6-2.1,4.6-4.6c0-2.6-2.1-4.6-4.6-4.6c-2.6,0-4.6,2.1-4.6,4.6S1020.4,5.9,1022.9,5.9z"/>
  <circle class="dot" cx="994.6" cy="12.2" r="4.7"/>
  <path class="dot" d="M970.7,22.1c0-2.6-2.1-4.8-4.8-4.8c-2.6,0-4.8,2.1-4.8,4.8c0,2.6,2.1,4.8,4.8,4.8S970.7,24.8,970.7,22.1z
    M941.5,31c0-2.6-2.1-4.6-4.6-4.6c-2.6,0-4.6,2.1-4.6,4.6c0,2.6,2.1,4.6,4.6,4.6C939.5,35.6,941.5,33.5,941.5,31z"/>
  <circle class="dot" cx="907.6" cy="38.7" r="4.6"/>
  <path class="dot" d="M882.6,45.4c0-2.6-2.1-4.7-4.7-4.7s-4.7,2.1-4.7,4.7s2.1,4.7,4.7,4.7S882.6,48,882.6,45.4z"/>
  <circle class="dot" cx="848.1" cy="51" r="4.5"/>
  <path class="dot" d="M822.7,55.5c0-2.5-2-4.6-4.6-4.6c-2.5,0-4.6,2-4.6,4.6c0,2.5,2,4.6,4.6,4.6C820.6,60,822.7,58,822.7,55.5z
    M792.5,58.8c0-2.5-2-4.6-4.6-4.6c-2.5,0-4.6,2-4.6,4.6c0,2.5,2,4.6,4.6,4.6S792.5,61.3,792.5,58.8z M757.7,65.6
    c2.5,0,4.6-2,4.6-4.6c0-2.5-2-4.6-4.6-4.6c-2.5,0-4.6,2-4.6,4.6S755.2,65.6,757.7,65.6z"/>
  <circle class="dot" cx="727.3" cy="62.2" r="4.6"/>
  <path class="dot" d="M697,66.7c2.5,0,4.6-2,4.6-4.6c0-2.5-2-4.6-4.6-4.6c-2.5,0-4.6,2-4.6,4.6S694.5,66.7,697,66.7z M666.7,65.6
    c2.5,0,4.6-2,4.6-4.6c0-2.5-2-4.6-4.6-4.6c-2.5,0-4.6,2-4.6,4.6S664.1,65.6,666.7,65.6z M640.9,58.8c0-2.5-2-4.6-4.6-4.6
    c-2.5,0-4.6,2-4.6,4.6c0,2.5,2,4.6,4.6,4.6S640.9,61.3,640.9,58.8z M610.8,55.5c0-2.5-2-4.6-4.6-4.6c-2.5,0-4.6,2-4.6,4.6
    c0,2.5,2,4.6,4.6,4.6C608.7,60,610.8,58,610.8,55.5z"/>
  <circle class="dot" cx="576.2" cy="51" r="4.5"/>
  <circle class="dot" cx="546.4" cy="45.4" r="4.7"/>
  <circle class="dot" cx="516.8" cy="38.7" r="4.7"/>
  <path class="dot" d="M487.4,35.6c2.6,0,4.6-2.1,4.6-4.6c0-2.6-2.1-4.6-4.6-4.6c-2.6,0-4.6,2.1-4.6,4.6S484.9,35.6,487.4,35.6z
    M463.2,22.1c0-2.7-2.2-4.8-4.8-4.8c-2.7,0-4.8,2.2-4.8,4.8c0,2.7,2.2,4.8,4.8,4.8C461.1,27,463.2,24.8,463.2,22.1z"/>
  <circle class="dot" cx="429.7" cy="12.2" r="4.8"/>
  <circle class="dot" cx="401.4" cy="1.3" r="4.7"/>
  <path class="dot" d="M1072.1,10.6c2.5,0,4.6-2,4.6-4.6c0-2.5-2-4.6-4.6-4.6c-2.5,0-4.6,2-4.6,4.6
    C1067.6,8.5,1069.6,10.6,1072.1,10.6z M1049,18.5c0-2.6-2.1-4.6-4.6-4.6c-2.6,0-4.6,2.1-4.6,4.6c0,2.6,2.1,4.6,4.6,4.6
    C1047,23.1,1049,21,1049,18.5z"/>
  <circle class="dot" cx="1016.3" cy="29.9" r="4.5"/>
  <path class="dot" d="M992.3,40.3c0-2.5-2-4.6-4.6-4.6c-2.5,0-4.6,2-4.6,4.6c0,2.5,2,4.6,4.6,4.6C990.3,44.8,992.3,42.8,992.3,40.3z"
    />
  <circle class="dot" cx="958.9" cy="49.7" r="4.4"/>
  <path class="dot" d="M934.2,58c0-2.4-2-4.4-4.4-4.4s-4.4,2-4.4,4.4s2,4.4,4.4,4.4S934.2,60.4,934.2,58z"/>
  <circle class="dot" cx="900.3" cy="65.3" r="4.5"/>
  <circle class="dot" cx="870.6" cy="71.5" r="4.5"/>
  <circle class="dot" cx="840.7" cy="76.7" r="4.4"/>
  <circle class="dot" cx="810.6" cy="80.7" r="4.4"/>
  <circle class="dot" cx="780.4" cy="83.7" r="4.4"/>
  <circle class="dot" cx="750.1" cy="85.6" r="4.4"/>
  <circle class="dot" cx="719.8" cy="86.5" r="4.4"/>
  <circle class="dot" cx="689.4" cy="86.2" r="4.4"/>
  <circle class="dot" cx="659.1" cy="84.8" r="4.4"/>
  <circle class="dot" cx="628.8" cy="82.4" r="4.4"/>
  <circle class="dot" cx="598.7" cy="78.8" r="4.4"/>
  <circle class="dot" cx="568.7" cy="74.2" r="4.4"/>
  <circle class="dot" cx="538.9" cy="68.5" r="4.5"/>
  <circle class="dot" cx="509.3" cy="61.8" r="4.5"/>
  <circle class="dot" cx="480" cy="54" r="4.4"/>
  <circle class="dot" cx="450.9" cy="45.1" r="4.6"/>
  <path class="dot" d="M426.8,35.2c0-2.5-2-4.6-4.6-4.6c-2.5,0-4.6,2-4.6,4.6c0,2.5,2,4.6,4.6,4.6S426.8,37.7,426.8,35.2z"/>
  <circle class="dot" cx="393.9" cy="24.3" r="4.5"/>
  <path class="dot" d="M370.6,12.4c0-2.6-2.1-4.6-4.6-4.6c-2.6,0-4.6,2.1-4.6,4.6c0,2.6,2.1,4.6,4.6,4.6
    C368.6,17,370.6,14.9,370.6,12.4z M343.2-0.6c0-2.6-2.1-4.6-4.6-4.6c-2.6,0-4.6,2.1-4.6,4.6c0,2.6,2.1,4.6,4.6,4.6
    C341.1,4.1,343.2,2,343.2-0.6z"/>
  <circle class="dot" cx="1120.4" cy="8.9" r="4.5"/>
  <circle class="dot" cx="1093.3" cy="22.6" r="4.5"/>
  <circle class="dot" cx="1065.8" cy="35.5" r="4.4"/>
  <circle class="dot" cx="1037.9" cy="47.3" r="4.5"/>
  <circle class="dot" cx="1009.6" cy="58.2" r="4.4"/>
  <circle class="dot" cx="980.9" cy="68.1" r="4.4"/>
  <path class="dot" d="M956.1,77c0-2.3-1.9-4.2-4.2-4.2s-4.2,1.9-4.2,4.2c0,2.3,1.9,4.2,4.2,4.2S956.1,79.3,956.1,77z"/>
  <circle class="dot" cx="922.5" cy="84.8" r="4.3"/>
  <circle class="dot" cx="893" cy="91.6" r="4.3"/>
  <path class="dot" d="M863.2,101.6c2.3,0,4.1-1.9,4.1-4.2c0-2.3-1.9-4.2-4.1-4.2c-2.3,0-4.2,1.9-4.2,4.2
    C859,99.7,860.9,101.6,863.2,101.6z"/>
  <circle class="dot" cx="833.2" cy="102.2" r="4.2"/>
  <circle class="dot" cx="803.1" cy="105.9" r="4.2"/>
  <circle class="dot" cx="772.8" cy="108.5" r="4.2"/>
  <path class="dot" d="M742.5,114.3c2.3,0,4.2-1.9,4.2-4.2c0-2.3-1.9-4.2-4.2-4.2s-4.2,1.9-4.2,4.2
    C738.3,112.4,740.2,114.3,742.5,114.3z"/>
  <circle class="dot" cx="712.2" cy="110.6" r="4.2"/>
  <path class="dot" d="M681.8,114.3c2.3,0,4.2-1.9,4.2-4.2c0-2.3-1.9-4.2-4.2-4.2s-4.2,1.9-4.2,4.2
    C677.6,112.4,679.5,114.3,681.8,114.3z"/>
  <circle class="dot" cx="651.5" cy="108.5" r="4.2"/>
  <path class="dot" d="M621.3,110c2.3,0,4.2-1.9,4.2-4.2c0-2.3-1.9-4.2-4.2-4.2s-4.1,1.9-4.1,4.2C617.1,108.2,619,110,621.3,110z"/>
  <circle class="dot" cx="591.2" cy="102.2" r="4.2"/>
  <circle class="dot" cx="561.2" cy="97.4" r="4.2"/>
  <circle class="dot" cx="531.4" cy="91.6" r="4.4"/>
  <circle class="dot" cx="501.8" cy="84.8" r="4.3"/>
  <circle class="dot" cx="472.5" cy="77" r="4.3"/>
  <circle class="dot" cx="443.5" cy="68.1" r="4.4"/>
  <circle class="dot" cx="414.8" cy="58.2" r="4.4"/>
  <circle class="dot" cx="386.4" cy="47.3" r="4.5"/>
  <circle class="dot" cx="358.5" cy="35.5" r="4.4"/>
  <path class="dot" d="M331,27.2c2.5,0,4.6-2,4.6-4.6c0-2.5-2-4.6-4.6-4.6c-2.5,0-4.6,2-4.6,4.6S328.5,27.2,331,27.2z"/>
  <circle class="dot" cx="303.9" cy="8.9" r="4.5"/>
  <circle class="dot" cx="1167.7" cy="10" r="4.4"/>
  <path class="dot" d="M1145.7,25c0-2.4-1.9-4.3-4.3-4.3s-4.3,1.9-4.3,4.3s1.9,4.3,4.3,4.3C1143.7,29.3,1145.7,27.3,1145.7,25z"/>
  <circle class="dot" cx="1114.5" cy="39.1" r="4.3"/>
  <circle class="dot" cx="1087.2" cy="52.3" r="4.2"/>
  <circle class="dot" cx="1059.4" cy="64.6" r="4.3"/>
  <circle class="dot" cx="1031.2" cy="75.9" r="4.2"/>
  <circle class="dot" cx="1002.7" cy="86.2" r="4.2"/>
  <circle class="dot" cx="973.9" cy="95.6" r="4.2"/>
  <circle class="dot" cx="944.7" cy="104" r="4"/>
  <circle class="dot" cx="915.3" cy="111.4" r="4.1"/>
  <path class="dot" d="M885.6,122c2.3,0,4.2-1.9,4.2-4.2c0-2.3-1.9-4.2-4.2-4.2s-4.1,1.9-4.1,4.2C881.4,120.1,883.3,122,885.6,122z"/>
  <circle class="dot" cx="855.7" cy="123.2" r="4"/>
  <path class="dot" d="M825.7,123.6c-2.2,0-3.9,1.8-3.9,3.9c0,2.2,1.8,4,3.9,4c2.2,0,4-1.8,4-4C829.6,125.4,827.9,123.6,825.7,123.6z"
    />
  <circle class="dot" cx="795.5" cy="130.9" r="4"/>
  <path class="dot" d="M765.3,129.2c-2.2,0-4,1.8-4,4s1.8,4,4,4s4-1.8,4-4S767.5,129.2,765.3,129.2z M734.9,130.5c-2.2,0-4,1.8-4,4
    s1.8,4,4,4s4-1.8,4-4S737.1,130.5,734.9,130.5z"/>
  <circle class="dot" cx="704.6" cy="134.8" r="4"/>
  <circle class="dot" cx="674.2" cy="134" r="4"/>
  <circle class="dot" cx="643.9" cy="132.2" r="4"/>
  <circle class="dot" cx="613.7" cy="129.4" r="4"/>
  <circle class="dot" cx="583.6" cy="125.5" r="4"/>
  <circle class="dot" cx="553.7" cy="120.6" r="4"/>
  <circle class="dot" cx="523.9" cy="114.7" r="4.2"/>
  <circle class="dot" cx="494.3" cy="107.8" r="4.1"/>
  <path class="dot" d="M465,95.9c-2.3,0-4.1,1.8-4.1,4.1s1.8,4.1,4.1,4.1s4.1-1.8,4.1-4.1S467.3,95.9,465,95.9z M436,86.8
    c-2.3,0-4.2,1.9-4.2,4.2c0,2.3,1.9,4.2,4.2,4.2c2.3,0,4.2-1.9,4.2-4.2C440.2,88.7,438.3,86.8,436,86.8z"/>
  <circle class="dot" cx="407.3" cy="81.2" r="4.2"/>
  <circle class="dot" cx="378.9" cy="70.3" r="4.3"/>
  <circle class="dot" cx="351" cy="58.6" r="4.3"/>
  <circle class="dot" cx="323.4" cy="45.8" r="4.4"/>
  <path class="dot" d="M300.7,32.2c0-2.4-2-4.4-4.4-4.4s-4.4,2-4.4,4.4s2,4.4,4.4,4.4C298.7,36.5,300.7,34.6,300.7,32.2z"/>
  <circle class="dot" cx="269.7" cy="17.6" r="4.5"/>
  <circle class="dot" cx="243.6" cy="2.1" r="4.4"/>
  <path class="dot" d="M1218.4,9.5c0-2.3-1.9-4.2-4.2-4.2c-2.3,0-4.2,1.9-4.2,4.2s1.9,4.2,4.2,4.2C1216.5,13.7,1218.4,11.8,1218.4,9.5
    z M1192.7,25.7c0-2.3-1.9-4.2-4.2-4.2c-2.3,0-4.1,1.9-4.1,4.2s1.9,4.2,4.1,4.2C1190.8,29.8,1192.7,28,1192.7,25.7z"/>
  <circle class="dot" cx="1162.3" cy="41" r="4.2"/>
  <circle class="dot" cx="1135.6" cy="55.4" r="4.1"/>
  <circle class="dot" cx="1108.4" cy="69" r="4.2"/>
  <circle class="dot" cx="1080.9" cy="81.6" r="4"/>
  <circle class="dot" cx="1052.9" cy="93.4" r="4.1"/>
  <circle class="dot" cx="1024.5" cy="104.2" r="4"/>
  <circle class="dot" cx="995.8" cy="114" r="4"/>
  <circle class="dot" cx="966.8" cy="122.9" r="3.8"/>
  <path class="dot" d="M937.5,127c-2.1,0-3.9,1.7-3.9,3.9c0,2.1,1.7,3.9,3.9,3.9c2.1,0,3.9-1.7,3.9-3.9S939.6,127,937.5,127z"/>
  <circle class="dot" cx="907.9" cy="137.8" r="3.9"/>
  <circle class="dot" cx="878.2" cy="143.8" r="4"/>
  <circle class="dot" cx="848.2" cy="148.8" r="3.8"/>
  <circle class="dot" cx="818.2" cy="152.8" r="3.8"/>
  <circle class="dot" cx="788" cy="155.8" r="3.8"/>
  <circle class="dot" cx="757.7" cy="157.8" r="3.8"/>
  <path class="dot" d="M727.3,155c-2.1,0-3.8,1.7-3.8,3.8s1.7,3.8,3.8,3.8s3.8-1.7,3.8-3.8C731.2,156.7,729.5,155,727.3,155z"/>
  <circle class="dot" cx="697" cy="158.8" r="3.8"/>
  <circle class="dot" cx="666.7" cy="157.8" r="3.8"/>
  <circle class="dot" cx="636.4" cy="155.8" r="3.8"/>
  <circle class="dot" cx="606.2" cy="152.8" r="3.8"/>
  <path class="dot" d="M576.1,145c-2.1,0-3.8,1.7-3.8,3.8s1.7,3.8,3.8,3.8s3.8-1.7,3.8-3.8S578.2,145,576.1,145z"/>
  <circle class="dot" cx="546.1" cy="143.8" r="4"/>
  <circle class="dot" cx="516.4" cy="137.8" r="4"/>
  <circle class="dot" cx="486.8" cy="130.9" r="3.9"/>
  <circle class="dot" cx="457.6" cy="122.9" r="3.9"/>
  <circle class="dot" cx="428.5" cy="114" r="4"/>
  <circle class="dot" cx="399.8" cy="104.2" r="4"/>
  <circle class="dot" cx="371.5" cy="93.4" r="4.2"/>
  <circle class="dot" cx="343.5" cy="81.6" r="4.1"/>
  <path class="dot" d="M320.1,69c0-2.3-1.9-4.2-4.2-4.2c-2.3,0-4.2,1.9-4.2,4.2c0,2.3,1.9,4.2,4.2,4.2C318.2,73.2,320.1,71.3,320.1,69
    z"/>
  <circle class="dot" cx="288.7" cy="55.4" r="4.2"/>
  <circle class="dot" cx="262" cy="41" r="4.3"/>
  <circle class="dot" cx="235.8" cy="25.7" r="4.2"/>
  <circle class="dot" cx="210.2" cy="9.5" r="4.3"/>
  <circle class="dot" cx="1259.7" cy="7.6" r="4.1"/>
  <circle class="dot" cx="1234.7" cy="24.9" r="4"/>
  <path class="dot" d="M1213.3,41.3c0-2.3-1.8-4.1-4.1-4.1s-4.1,1.8-4.1,4.1s1.8,4.1,4.1,4.1S1213.3,43.6,1213.3,41.3z"/>
  <circle class="dot" cx="1183.2" cy="56.9" r="4"/>
  <path class="dot" d="M1160.7,71.6c0-2.3-1.8-4.1-4.1-4.1s-4.1,1.8-4.1,4.1s1.8,4.1,4.1,4.1S1160.7,73.9,1160.7,71.6z"/>
  <circle class="dot" cx="1129.6" cy="85.5" r="4"/>
  <path class="dot" d="M1106,98.5c0-2.1-1.7-3.8-3.8-3.8s-3.8,1.7-3.8,3.8c0,2.1,1.7,3.8,3.8,3.8S1106,100.7,1106,98.5z"/>
  <circle class="dot" cx="1074.4" cy="110.7" r="3.9"/>
  <circle class="dot" cx="1046.2" cy="121.9" r="3.8"/>
  <circle class="dot" cx="1017.6" cy="132.2" r="3.8"/>
  <circle class="dot" cx="988.8" cy="141.6" r="3.8"/>
  <circle class="dot" cx="959.6" cy="150" r="3.7"/>
  <path class="dot" d="M930.2,153.8c-2,0-3.7,1.6-3.7,3.7c0,2,1.6,3.7,3.7,3.7c2,0,3.7-1.7,3.7-3.7S932.3,153.8,930.2,153.8z"/>
  <circle class="dot" cx="900.6" cy="164.1" r="3.8"/>
  <path class="dot" d="M870.8,166.1c-2,0-3.5,1.6-3.5,3.5c0,2,1.6,3.5,3.5,3.5c2,0,3.6-1.6,3.6-3.5
    C874.3,167.7,872.7,166.1,870.8,166.1z"/>
  <circle class="dot" cx="840.8" cy="174.3" r="3.6"/>
  <circle class="dot" cx="810.6" cy="177.9" r="3.6"/>
  <circle class="dot" cx="780.4" cy="180.6" r="3.6"/>
  <path class="dot" d="M750.1,178.7c-2,0-3.7,1.7-3.7,3.7s1.6,3.7,3.7,3.7c2,0,3.7-1.6,3.7-3.7S752.1,178.7,750.1,178.7z"/>
  <circle class="dot" cx="719.8" cy="183.1" r="3.7"/>
  <path class="dot" d="M689.4,179.1c-2,0-3.7,1.6-3.7,3.7c0,2,1.6,3.7,3.7,3.7c2,0,3.7-1.7,3.7-3.7S691.4,179.1,689.4,179.1z"/>
  <circle class="dot" cx="659.1" cy="181.6" r="3.7"/>
  <circle class="dot" cx="628.8" cy="179.4" r="3.7"/>
  <circle class="dot" cx="598.6" cy="176.2" r="3.6"/>
  <circle class="dot" cx="568.6" cy="172.1" r="3.6"/>
  <circle class="dot" cx="538.6" cy="167" r="3.8"/>
  <ellipse transform="matrix(0.3827 -0.9239 0.9239 0.3827 165.5 569.4883)" class="dot" cx="508.9" cy="160.9" rx="3.8" ry="3.8"/>
  <path class="dot" d="M479.4,150.2c-2,0-3.7,1.6-3.7,3.7c0,2,1.6,3.7,3.7,3.7c2,0,3.7-1.7,3.7-3.7
    C483.1,151.8,481.4,150.2,479.4,150.2z M450.1,142.2c-2,0-3.7,1.7-3.7,3.7s1.6,3.7,3.7,3.7c2,0,3.7-1.6,3.7-3.7
    C453.8,143.9,452.1,142.2,450.1,142.2z"/>
  <circle class="dot" cx="421.1" cy="137" r="3.8"/>
  <circle class="dot" cx="392.4" cy="127.2" r="3.8"/>
  <circle class="dot" cx="364" cy="116.4" r="4"/>
  <circle class="dot" cx="336" cy="104.7" r="3.9"/>
  <circle class="dot" cx="308.3" cy="92.2" r="4"/>
  <path class="dot" d="M285.1,78.7c0-2.2-1.8-4-3.9-4c-2.2,0-4,1.8-4,4s1.8,4,4,4C283.3,82.7,285.1,80.9,285.1,78.7z"/>
  <circle class="dot" cx="254.4" cy="64.4" r="4.1"/>
  <path class="dot" d="M232.1,49.2c0-2.2-1.8-4-4-4s-4,1.8-4,4s1.8,4,4,4S232.1,51.4,232.1,49.2z"/>
  <circle class="dot" cx="202.3" cy="33.2" r="4.2"/>
  <circle class="dot" cx="177.1" cy="16.4" r="4.2"/>
  <circle class="dot" cx="152.4" cy="-1.3" r="4.4"/>
  <path class="dot" d="M1308.3,4.5c0-2.2-1.8-4-3.9-4c-2.2,0-4,1.8-4,4s1.8,4,4,4C1306.5,8.5,1308.3,6.7,1308.3,4.5z"/>
  <circle class="dot" cx="1280.1" cy="22.7" r="4"/>
  <circle class="dot" cx="1255.2" cy="40.2" r="4"/>
  <path class="dot" d="M1229.9,60.7c2.1,0,3.9-1.7,3.9-3.9s-1.7-3.9-3.9-3.9c-2.1,0-3.9,1.7-3.9,3.9S1227.7,60.7,1229.9,60.7z"/>
  <circle class="dot" cx="1204" cy="72.7" r="3.8"/>
  <circle class="dot" cx="1177.6" cy="87.7" r="3.8"/>
  <path class="dot" d="M1154.5,102c0-2.1-1.7-3.8-3.7-3.8c-2.1,0-3.8,1.7-3.8,3.8c0,2.1,1.7,3.8,3.8,3.8
    C1152.9,105.7,1154.5,104,1154.5,102z"/>
  <circle class="dot" cx="1123.5" cy="115.3" r="3.8"/>
  <path class="dot" d="M1095.9,131.5c2,0,3.7-1.6,3.7-3.7c0-2-1.7-3.7-3.7-3.7s-3.7,1.7-3.7,3.7S1093.8,131.5,1095.9,131.5z
    M1067.8,143.1c2,0,3.7-1.7,3.7-3.7s-1.6-3.7-3.7-3.7c-2,0-3.7,1.6-3.7,3.7C1064.1,141.4,1065.8,143.1,1067.8,143.1z"/>
  <circle class="dot" cx="1039.4" cy="150.1" r="3.6"/>
  <circle class="dot" cx="1010.7" cy="160" r="3.6"/>
  <circle class="dot" cx="981.7" cy="168.9" r="3.5"/>
  <circle class="dot" cx="952.4" cy="176.9" r="3.5"/>
  <path class="dot" d="M922.9,180.4c-2,0-3.5,1.6-3.5,3.5c0,2,1.6,3.5,3.5,3.5c2,0,3.6-1.6,3.6-3.5S924.9,180.4,922.9,180.4z
    M893.2,186.6c-2,0-3.6,1.6-3.6,3.5c0,2,1.6,3.6,3.6,3.6s3.5-1.6,3.5-3.6C896.8,188.2,895.2,186.6,893.2,186.6z M863.3,191.9
    c-1.9,0-3.4,1.5-3.4,3.4s1.5,3.4,3.4,3.4s3.4-1.5,3.4-3.4S865.2,191.9,863.3,191.9z"/>
  <circle class="dot" cx="833.3" cy="199.6" r="3.4"/>
  <circle class="dot" cx="803.1" cy="203" r="3.4"/>
  <circle class="dot" cx="772.8" cy="205.3" r="3.4"/>
  <path class="dot" d="M742.5,203.3c-1.9,0-3.5,1.6-3.5,3.5s1.6,3.5,3.5,3.5s3.5-1.6,3.5-3.5S744.4,203.3,742.5,203.3z M712.2,203.8
    c-1.9,0-3.5,1.6-3.5,3.5s1.6,3.5,3.5,3.5s3.5-1.6,3.5-3.5C715.6,205.3,714.1,203.8,712.2,203.8z M681.8,203.3
    c-1.9,0-3.5,1.6-3.5,3.5s1.6,3.5,3.5,3.5s3.5-1.6,3.5-3.5S683.7,203.3,681.8,203.3z"/>
  <circle class="dot" cx="651.5" cy="205.3" r="3.4"/>
  <path class="dot" d="M621.2,199.5c-1.9,0-3.4,1.5-3.4,3.4s1.5,3.4,3.4,3.4s3.4-1.5,3.4-3.4S623.1,199.5,621.2,199.5z"/>
  <circle class="dot" cx="591.1" cy="199.6" r="3.4"/>
  <circle class="dot" cx="561" cy="195.4" r="3.4"/>
  <circle class="dot" cx="531.1" cy="190.1" r="3.6"/>
  <path class="dot" d="M501.4,180.4c-2,0-3.5,1.6-3.5,3.5c0,2,1.6,3.5,3.5,3.5c2,0,3.6-1.6,3.6-3.5S503.4,180.4,501.4,180.4z"/>
  <circle class="dot" cx="471.9" cy="176.9" r="3.6"/>
  <path class="dot" d="M442.6,165.4c-1.9,0-3.5,1.6-3.5,3.5s1.6,3.5,3.5,3.5s3.5-1.6,3.5-3.5S444.5,165.4,442.6,165.4z M413.6,156.3
    c-2,0-3.7,1.7-3.7,3.7s1.7,3.7,3.7,3.7s3.7-1.6,3.7-3.7S415.6,156.3,413.6,156.3z M384.9,146.6c-2,0-3.6,1.6-3.6,3.6
    s1.6,3.5,3.6,3.5s3.5-1.6,3.5-3.5C388.4,148.2,386.9,146.6,384.9,146.6z M356.5,143.2c2.1,0,3.8-1.7,3.8-3.8s-1.7-3.7-3.8-3.7
    c-2.1,0-3.7,1.7-3.7,3.7S354.4,143.2,356.5,143.2z"/>
  <circle class="dot" cx="328.5" cy="127.8" r="3.7"/>
  <circle class="dot" cx="300.8" cy="115.3" r="3.8"/>
  <circle class="dot" cx="273.5" cy="101.9" r="3.8"/>
  <circle class="dot" cx="246.7" cy="87.7" r="3.9"/>
  <circle class="dot" cx="220.4" cy="72.7" r="3.8"/>
  <circle class="dot" cx="194.5" cy="56.9" r="4"/>
  <circle class="dot" cx="169.1" cy="40.2" r="4.1"/>
  <circle class="dot" cx="144.3" cy="22.7" r="4.1"/>
  <circle class="dot" cx="120" cy="4.5" r="4"/>
  <circle class="dot" cx="1348.1" cy="0.3" r="3.9"/>
  <circle class="dot" cx="1324.5" cy="19.4" r="4"/>
  <path class="dot" d="M1300.4,33.9c-2.1,0-3.9,1.7-3.9,3.9c0,2.1,1.7,3.9,3.9,3.9c2.1,0,3.9-1.7,3.9-3.9S1302.5,33.9,1300.4,33.9z"/>
  <circle class="dot" cx="1275.7" cy="55.4" r="3.8"/>
  <circle class="dot" cx="1250.5" cy="72.3" r="3.7"/>
  <circle class="dot" cx="1224.7" cy="88.4" r="3.7"/>
  <circle class="dot" cx="1198.5" cy="103.7" r="3.6"/>
  <circle class="dot" cx="1171.9" cy="118.2" r="3.7"/>
  <path class="dot" d="M1144.8,135.5c2,0,3.6-1.6,3.6-3.5c0-2-1.6-3.5-3.6-3.5s-3.5,1.6-3.5,3.5
    C1141.2,133.9,1142.8,135.5,1144.8,135.5z"/>
  <circle class="dot" cx="1117.3" cy="144.8" r="3.4"/>
  <path class="dot" d="M1089.4,160.2c1.9,0,3.5-1.6,3.5-3.5s-1.6-3.5-3.5-3.5s-3.5,1.6-3.5,3.5
    C1085.9,158.7,1087.5,160.2,1089.4,160.2z M1064.7,167.9c0-2-1.6-3.5-3.5-3.5c-2,0-3.6,1.6-3.6,3.5c0,2,1.6,3.5,3.6,3.5
    C1063.1,171.4,1064.7,169.8,1064.7,167.9z M1036,178.1c0-1.9-1.5-3.4-3.4-3.4s-3.4,1.5-3.4,3.4s1.5,3.4,3.4,3.4
    C1034.5,181.6,1036,180,1036,178.1z"/>
  <circle class="dot" cx="1003.7" cy="187.5" r="3.4"/>
  <circle class="dot" cx="974.6" cy="196" r="3.3"/>
  <path class="dot" d="M945.2,200.3c-1.9,0-3.3,1.5-3.3,3.3c0,1.9,1.5,3.3,3.3,3.3s3.3-1.5,3.3-3.3C948.5,201.7,947,200.3,945.2,200.3
    z M915.6,206.9c-1.8,0-3.3,1.5-3.3,3.3c0,1.9,1.5,3.3,3.3,3.3c1.9,0,3.4-1.5,3.4-3.3C918.9,208.4,917.4,206.9,915.6,206.9z"/>
  <circle class="dot" cx="885.8" cy="216.1" r="3.4"/>
  <circle class="dot" cx="855.8" cy="220.9" r="3.2"/>
  <circle class="dot" cx="825.7" cy="224.9" r="3.2"/>
  <path class="dot" d="M795.5,224.6c-1.8,0-3.3,1.5-3.3,3.3s1.5,3.3,3.3,3.3s3.3-1.5,3.3-3.3S797.4,224.6,795.5,224.6z M765.3,226.7
    c-1.8,0-3.3,1.5-3.3,3.3s1.5,3.3,3.3,3.3s3.3-1.5,3.3-3.3C768.5,228.2,767.1,226.7,765.3,226.7z M734.9,227.9
    c-1.8,0-3.3,1.5-3.3,3.3s1.5,3.3,3.3,3.3s3.3-1.5,3.3-3.3C738.2,229.3,736.7,227.9,734.9,227.9z M704.6,228.1
    c-1.8,0-3.3,1.5-3.3,3.3s1.5,3.3,3.3,3.3s3.3-1.5,3.3-3.3S706.4,228.1,704.6,228.1z M674.2,227.4c-1.8,0-3.3,1.5-3.3,3.3
    s1.5,3.3,3.3,3.3s3.3-1.5,3.3-3.3S676.1,227.4,674.2,227.4z M643.9,225.8c-1.8,0-3.3,1.5-3.3,3.3s1.5,3.3,3.3,3.3s3.3-1.5,3.3-3.3
    C647.2,227.2,645.7,225.8,643.9,225.8z M613.7,223.2c-1.8,0-3.3,1.5-3.3,3.3s1.5,3.3,3.3,3.3s3.3-1.5,3.3-3.3
    S615.5,223.2,613.7,223.2z M583.5,219.7c-1.8,0-3.3,1.5-3.3,3.3s1.5,3.3,3.3,3.3s3.3-1.5,3.3-3.3S585.3,219.7,583.5,219.7z"/>
  <circle class="dot" cx="553.5" cy="218.6" r="3.2"/>
  <circle class="dot" cx="523.6" cy="213.3" r="3.4"/>
  <path class="dot" d="M493.9,203.7c-1.9,0-3.4,1.5-3.4,3.3c0,1.9,1.5,3.3,3.4,3.3c1.8,0,3.3-1.5,3.3-3.3
    C497.3,205.2,495.8,203.7,493.9,203.7z M464.4,196.6c-1.8,0-3.3,1.5-3.3,3.3s1.5,3.3,3.3,3.3c1.9,0,3.4-1.5,3.4-3.3
    S466.3,196.6,464.4,196.6z M435.2,188.4c-1.9,0-3.5,1.6-3.5,3.5s1.6,3.5,3.5,3.5s3.5-1.6,3.5-3.5C438.6,190,437.1,188.4,435.2,188.4
    z"/>
  <circle class="dot" cx="406.2" cy="182.9" r="3.4"/>
  <path class="dot" d="M377.4,169.7c-1.9,0-3.4,1.5-3.4,3.4s1.5,3.4,3.4,3.4s3.4-1.5,3.4-3.4S379.3,169.7,377.4,169.7z"/>
  <circle class="dot" cx="349" cy="162.4" r="3.5"/>
  <path class="dot" d="M321,154.4c2,0,3.5-1.6,3.5-3.5c0-2-1.6-3.5-3.5-3.5c-2,0-3.6,1.6-3.6,3.5S319,154.4,321,154.4z M293.3,142.1
    c2,0,3.7-1.7,3.7-3.7s-1.7-3.7-3.7-3.7s-3.7,1.6-3.7,3.7S291.2,142.1,293.3,142.1z"/>
  <circle class="dot" cx="266" cy="125.2" r="3.6"/>
  <circle class="dot" cx="239.1" cy="111.1" r="3.7"/>
  <circle class="dot" cx="212.6" cy="96.2" r="3.6"/>
  <path class="dot" d="M190.4,80.5c0-2.1-1.7-3.8-3.8-3.8s-3.7,1.7-3.7,3.8c0,2.1,1.7,3.7,3.7,3.7C188.7,84.2,190.4,82.6,190.4,80.5z
    M165,64c0-2.1-1.7-3.8-3.8-3.8s-3.8,1.7-3.8,3.8s1.7,3.8,3.8,3.8S165,66.1,165,64z"/>
  <circle class="dot" cx="136.2" cy="46.7" r="4"/>
  <circle class="dot" cx="111.8" cy="28.7" r="3.9"/>
  <circle class="dot" cx="88" cy="9.9" r="4"/>
  <circle class="dot" cx="1368.1" cy="15" r="3.8"/>
  <path class="dot" d="M1348.4,34.2c0-2.1-1.7-3.8-3.8-3.8c-2.1,0-3.7,1.7-3.7,3.8s1.7,3.7,3.7,3.7C1346.7,38,1348.4,36.3,1348.4,34.2
    z M1324.3,52.8c0-2-1.7-3.7-3.7-3.7s-3.7,1.6-3.7,3.7c0,2,1.6,3.7,3.7,3.7S1324.3,54.8,1324.3,52.8z"/>
  <circle class="dot" cx="1296.1" cy="70.6" r="3.7"/>
  <circle class="dot" cx="1271" cy="87.7" r="3.6"/>
  <circle class="dot" cx="1245.5" cy="104.1" r="3.5"/>
  <circle class="dot" cx="1219.4" cy="119.6" r="3.5"/>
  <circle class="dot" cx="1192.9" cy="134.4" r="3.4"/>
  <circle class="dot" cx="1165.9" cy="148.4" r="3.3"/>
  <circle class="dot" cx="1138.6" cy="161.6" r="3.4"/>
  <path class="dot" d="M1110.9,177.2c1.8,0,3.3-1.5,3.3-3.3s-1.5-3.3-3.3-3.3s-3.3,1.5-3.3,3.3S1109.1,177.2,1110.9,177.2z"/>
  <circle class="dot" cx="1082.8" cy="185.4" r="3.3"/>
  <circle class="dot" cx="1054.4" cy="196.1" r="3.2"/>
  <path class="dot" d="M1025.7,202.7c1.8,0,3.2,1.4,3.2,3.2s-1.4,3.2-3.2,3.2s-3.2-1.4-3.2-3.2S1023.9,202.7,1025.7,202.7z"/>
  <path class="dot" d="M996.6,211.6c-1.8,0-3.3,1.5-3.3,3.3s1.5,3.3,3.3,3.3s3.3-1.5,3.3-3.3S998.5,211.6,996.6,211.6z"/>
  <circle class="dot" cx="967.4" cy="222.9" r="3.1"/>
  <circle class="dot" cx="937.9" cy="230.1" r="3.2"/>
  <circle class="dot" cx="908.2" cy="236.4" r="3.2"/>
  <circle class="dot" cx="878.4" cy="241.9" r="3"/>
  <path class="dot" d="M848.3,243.3c-1.7,0-3.1,1.4-3.1,3.1c0,1.7,1.4,3.1,3.1,3.1c1.7,0,3.1-1.4,3.1-3.1
    C851.4,244.7,850,243.3,848.3,243.3z"/>
  <circle class="dot" cx="818.2" cy="250" r="3.1"/>
  <path class="dot" d="M788,249.6c-1.7,0-3.1,1.4-3.1,3.1c0,1.7,1.4,3.1,3.1,3.1c1.7,0,3.1-1.4,3.1-3.1
    C791.1,251,789.7,249.6,788,249.6z"/>
  <circle class="dot" cx="757.7" cy="254.5" r="3.1"/>
  <path class="dot" d="M727.3,252.4c-1.7,0-3.1,1.4-3.1,3.1s1.4,3.1,3.1,3.1c1.7,0,3.1-1.4,3.1-3.1C730.4,253.7,729,252.4,727.3,252.4
    z M697,252.4c-1.7,0-3.1,1.4-3.1,3.1s1.4,3.1,3.1,3.1c1.7,0,3.1-1.4,3.1-3.1C700.1,253.7,698.7,252.4,697,252.4z M666.7,251.5
    c-1.7,0-3.1,1.4-3.1,3.1s1.4,3.1,3.1,3.1c1.7,0,3.1-1.4,3.1-3.1C669.7,252.8,668.4,251.5,666.7,251.5z M636.4,249.6
    c-1.7,0-3.1,1.4-3.1,3.1c0,1.7,1.4,3.1,3.1,3.1c1.7,0,3.1-1.4,3.1-3.1C639.4,251,638.1,249.6,636.4,249.6z M606.1,246.9
    c-1.7,0-3.1,1.4-3.1,3.1c0,1.7,1.4,3.1,3.1,3.1c1.7,0,3.1-1.4,3.1-3.1C609.2,248.3,607.8,246.9,606.1,246.9z"/>
  <circle class="dot" cx="576" cy="246.4" r="3.1"/>
  <path class="dot" d="M546,238.8c-1.7,0-3.1,1.4-3.1,3.1c0,1.7,1.4,3.1,3.1,3.1s3.1-1.4,3.1-3.1C549.1,240.2,547.7,238.8,546,238.8z"
    />
  <circle class="dot" cx="516.1" cy="236.4" r="3.2"/>
  <circle class="dot" cx="486.4" cy="230.1" r="3.2"/>
  <path class="dot" d="M456.9,219.8c-1.7,0-3.2,1.4-3.2,3.1c0,1.7,1.4,3.1,3.2,3.1c1.7,0,3.1-1.4,3.1-3.1
    C460.1,221.2,458.7,219.8,456.9,219.8z M427.7,211.5c-1.9,0-3.3,1.5-3.3,3.3s1.5,3.3,3.3,3.3s3.3-1.5,3.3-3.3
    S429.5,211.5,427.7,211.5z M398.7,202.6c-1.8,0-3.3,1.5-3.3,3.3s1.5,3.3,3.3,3.3s3.3-1.5,3.3-3.3S400.5,202.6,398.7,202.6z"/>
  <circle class="dot" cx="370" cy="196.1" r="3.2"/>
  <path class="dot" d="M341.5,182.1c-1.9,0-3.4,1.5-3.4,3.3c0,1.9,1.5,3.3,3.4,3.3c1.8,0,3.3-1.5,3.3-3.3
    C344.9,183.6,343.4,182.1,341.5,182.1z M313.5,177.3c1.9,0,3.3-1.5,3.3-3.3c0-1.9-1.5-3.3-3.3-3.3s-3.3,1.5-3.3,3.3
    C310.1,175.8,311.6,177.3,313.5,177.3z"/>
  <circle class="dot" cx="285.7" cy="161.6" r="3.4"/>
  <circle class="dot" cx="258.4" cy="148.4" r="3.4"/>
  <path class="dot" d="M231.4,137.9c1.9,0,3.5-1.6,3.5-3.5s-1.6-3.5-3.5-3.5s-3.5,1.6-3.5,3.5C228,136.4,229.5,137.9,231.4,137.9z"/>
  <circle class="dot" cx="204.9" cy="119.6" r="3.6"/>
  <circle class="dot" cx="178.9" cy="104.1" r="3.6"/>
  <circle class="dot" cx="153.3" cy="87.7" r="3.7"/>
  <circle class="dot" cx="128.2" cy="70.6" r="3.8"/>
  <path class="dot" d="M103.7,56.5c2,0,3.7-1.6,3.7-3.7c0-2-1.6-3.7-3.7-3.7c-2,0-3.7,1.7-3.7,3.7S101.6,56.5,103.7,56.5z"/>
  <circle class="dot" cx="79.7" cy="34.2" r="3.8"/>
  <circle class="dot" cx="56.2" cy="15" r="3.9"/>
  <circle class="dot" cx="1410.9" cy="9.6" r="3.7"/>
  <circle class="dot" cx="1388.1" cy="29.6" r="3.5"/>
  <path class="dot" d="M1368.3,49.1c0-1.9-1.6-3.5-3.5-3.5s-3.5,1.6-3.5,3.5s1.6,3.5,3.5,3.5C1366.7,52.5,1368.3,51,1368.3,49.1z
    M1344.5,67.8c0-2-1.6-3.5-3.5-3.5c-2,0-3.6,1.6-3.6,3.5c0,2,1.6,3.5,3.6,3.5C1342.9,71.3,1344.5,69.7,1344.5,67.8z M1316.5,82.3
    c-1.9,0-3.5,1.6-3.5,3.5s1.6,3.5,3.5,3.5s3.5-1.6,3.5-3.5S1318.4,82.3,1316.5,82.3z"/>
  <circle class="dot" cx="1291.5" cy="103.1" r="3.4"/>
  <circle class="dot" cx="1266.1" cy="119.7" r="3.4"/>
  <circle class="dot" cx="1240.2" cy="135.5" r="3.3"/>
  <path class="dot" d="M1213.8,153.7c1.8,0,3.2-1.4,3.2-3.2s-1.4-3.2-3.2-3.2c-1.8,0-3.2,1.4-3.2,3.2S1212.1,153.7,1213.8,153.7z
    M1187.1,168.1c1.8,0,3.3-1.5,3.3-3.3s-1.5-3.3-3.3-3.3s-3.3,1.5-3.3,3.3S1185.2,168.1,1187.1,168.1z"/>
  <circle class="dot" cx="1159.9" cy="178.3" r="3.1"/>
  <path class="dot" d="M1132.3,194.2c1.8,0,3.3-1.5,3.3-3.3s-1.5-3.3-3.3-3.3s-3.3,1.5-3.3,3.3C1129,192.8,1130.5,194.2,1132.3,194.2z
    M1107.4,202.8c0-1.7-1.4-3.1-3.1-3.1s-3.1,1.4-3.1,3.1c0,1.7,1.4,3.1,3.1,3.1C1106.1,205.9,1107.4,204.5,1107.4,202.8z
    M1079.2,213.9c0-1.7-1.4-3.1-3.1-3.1s-3.1,1.4-3.1,3.1c0,1.7,1.4,3.1,3.1,3.1S1079.2,215.6,1079.2,213.9z"/>
  <circle class="dot" cx="1047.5" cy="224.1" r="3"/>
  <circle class="dot" cx="1018.6" cy="233.5" r="3.1"/>
  <circle class="dot" cx="989.5" cy="242" r="2.9"/>
  <path class="dot" d="M960.2,246.7c-1.6,0-2.9,1.3-2.9,2.9c0,1.6,1.3,2.9,2.9,2.9c1.6,0,2.9-1.3,2.9-2.9
    C963.1,248,961.8,246.7,960.2,246.7z"/>
  <circle class="dot" cx="930.6" cy="256.5" r="2.9"/>
  <circle class="dot" cx="900.8" cy="262.4" r="3"/>
  <path class="dot" d="M870.9,264.6c-1.6,0-2.9,1.3-2.9,2.9s1.3,2.9,2.9,2.9c1.6,0,2.9-1.3,2.9-2.9S872.5,264.6,870.9,264.6z"/>
  <circle class="dot" cx="840.8" cy="271.7" r="2.9"/>
  <circle class="dot" cx="810.7" cy="275" r="2.9"/>
  <path class="dot" d="M780.4,274.6c-1.6,0-2.9,1.3-2.9,2.9s1.3,2.9,2.9,2.9c1.6,0,2.9-1.3,2.9-2.9S782,274.6,780.4,274.6z
    M750.1,276.1c-1.6,0-2.9,1.3-2.9,2.9s1.3,2.9,2.9,2.9c1.6,0,2.9-1.3,2.9-2.9S751.7,276.1,750.1,276.1z"/>
  <circle class="dot" cx="719.8" cy="279.7" r="2.9"/>
  <path class="dot" d="M689.4,276.5c-1.6,0-2.9,1.3-2.9,2.9s1.3,2.9,2.9,2.9c1.6,0,2.9-1.3,2.9-2.9C692.4,277.8,691,276.5,689.4,276.5
    z M659.1,275.4c-1.6,0-2.9,1.3-2.9,2.9s1.3,2.9,2.9,2.9c1.6,0,2.9-1.3,2.9-2.9S660.7,275.4,659.1,275.4z M628.8,273.4
    c-1.6,0-2.9,1.3-2.9,2.9s1.3,2.9,2.9,2.9c1.6,0,2.9-1.3,2.9-2.9S630.4,273.4,628.8,273.4z M598.6,270.6c-1.6,0-2.9,1.3-2.9,2.9
    s1.3,2.9,2.9,2.9c1.6,0,2.9-1.3,2.9-2.9S600.2,270.6,598.6,270.6z M568.5,266.8c-1.6,0-2.9,1.3-2.9,2.9s1.3,2.9,2.9,2.9
    c1.6,0,2.9-1.3,2.9-2.9C571.3,268.1,570,266.8,568.5,266.8z"/>
  <circle class="dot" cx="538.5" cy="265.1" r="2.9"/>
  <circle class="dot" cx="508.6" cy="259.6" r="3"/>
  <circle class="dot" cx="478.9" cy="253.2" r="2.9"/>
  <path class="dot" d="M449.5,243c-1.6,0-2.9,1.3-2.9,2.9c0,1.6,1.3,2.9,2.9,2.9s2.9-1.3,2.9-2.9C452.4,244.3,451.1,243,449.5,243z"/>
  <circle class="dot" cx="420.2" cy="237.8" r="3.1"/>
  <path class="dot" d="M391.2,225.8c-1.7,0-3.1,1.4-3.1,3.1c0,1.7,1.4,3.1,3.1,3.1s3.1-1.4,3.1-3.1
    C394.3,227.2,392.9,225.8,391.2,225.8z M362.5,216c-1.7,0-3.1,1.4-3.1,3.1c0,1.7,1.4,3.1,3.1,3.1s3.1-1.4,3.1-3.1
    C365.6,217.4,364.2,216,362.5,216z"/>
  <circle class="dot" cx="334.1" cy="208.4" r="3.1"/>
  <path class="dot" d="M306,200.1c1.7,0,3.1-1.4,3.1-3.1c0-1.7-1.4-3.1-3.1-3.1s-3.1,1.4-3.1,3.1C302.9,198.7,304.3,200.1,306,200.1z
    M278.2,188c1.8,0,3.3-1.5,3.3-3.3s-1.5-3.3-3.3-3.3s-3.3,1.5-3.3,3.3S276.4,188,278.2,188z"/>
  <circle class="dot" cx="250.8" cy="171.6" r="3.2"/>
  <circle class="dot" cx="223.8" cy="157.7" r="3.3"/>
  <circle class="dot" cx="197.3" cy="143.1" r="3.4"/>
  <circle class="dot" cx="171.1" cy="127.7" r="3.4"/>
  <circle class="dot" cx="145.4" cy="111.5" r="3.5"/>
  <circle class="dot" cx="120.3" cy="94.5" r="3.6"/>
  <circle class="dot" cx="95.6" cy="76.9" r="3.5"/>
  <circle class="dot" cx="71.4" cy="58.5" r="3.5"/>
  <circle class="dot" cx="47.8" cy="39.4" r="3.8"/>
  <circle class="dot" cx="24.8" cy="19.7" r="3.8"/>
  <path class="dot" d="M6.1-0.7c0-2.1-1.7-3.8-3.7-3.8c-2.1,0-3.8,1.7-3.8,3.8S0.2,3,2.3,3S6.1,1.3,6.1-0.7z"/>
  <circle class="dot" cx="1430.8" cy="24.1" r="3.4"/>
  <path class="dot" d="M1411.7,44.3c0-2-1.6-3.6-3.6-3.6s-3.5,1.6-3.5,3.6s1.6,3.5,3.5,3.5C1410.1,47.8,1411.7,46.2,1411.7,44.3z
    M1388.3,63.8c0-1.9-1.5-3.4-3.4-3.4s-3.4,1.5-3.4,3.4c0,1.9,1.5,3.4,3.4,3.4C1386.8,67.3,1388.3,65.7,1388.3,63.8z"/>
  <circle class="dot" cx="1361.1" cy="82.7" r="3.3"/>
  <circle class="dot" cx="1336.8" cy="100.9" r="3.3"/>
  <circle class="dot" cx="1312" cy="118.4" r="3.3"/>
  <circle class="dot" cx="1286.7" cy="135.2" r="3.2"/>
  <path class="dot" d="M1261,154.3c1.7,0,3.1-1.4,3.1-3.1s-1.4-3.1-3.1-3.1s-3.1,1.4-3.1,3.1S1259.3,154.3,1261,154.3z"/>
  <circle class="dot" cx="1234.8" cy="166.5" r="3.2"/>
  <path class="dot" d="M1208.1,184.1c1.7,0,3.1-1.4,3.1-3.1c0-1.7-1.4-3.1-3.1-3.1s-3.1,1.4-3.1,3.1
    C1205,182.8,1206.4,184.1,1208.1,184.1z M1181.1,197.8c1.6,0,2.9-1.3,2.9-2.9c0-1.6-1.3-2.9-2.9-2.9s-2.9,1.3-2.9,2.9
    C1178.1,196.5,1179.5,197.8,1181.1,197.8z"/>
  <circle class="dot" cx="1153.7" cy="207.8" r="3"/>
  <circle class="dot" cx="1125.9" cy="220" r="2.9"/>
  <path class="dot" d="M1100.7,231.5c0-1.6-1.3-2.9-2.9-2.9s-2.9,1.3-2.9,2.9c0,1.6,1.3,2.9,2.9,2.9S1100.7,233.1,1100.7,231.5z
    M1072.1,242.1c0-1.6-1.3-2.8-2.8-2.8c-1.6,0-2.8,1.3-2.8,2.8c0,1.6,1.3,2.8,2.8,2.8C1070.9,244.9,1072.1,243.6,1072.1,242.1z"/>
  <circle class="dot" cx="1040.6" cy="251.9" r="2.9"/>
  <circle class="dot" cx="1011.6" cy="260.8" r="2.9"/>
  <circle class="dot" cx="982.3" cy="269" r="2.7"/>
  <circle class="dot" cx="952.9" cy="276.3" r="2.8"/>
  <path class="dot" d="M923.2,279.9c-1.6,0-2.8,1.3-2.8,2.8c0,1.6,1.3,2.8,2.8,2.8s2.8-1.3,2.8-2.8C926,281.1,924.8,279.9,923.2,279.9
    z M893.4,285.4c-1.6,0-2.9,1.3-2.9,2.9s1.3,2.9,2.9,2.9c1.6,0,2.9-1.3,2.9-2.9S895,285.4,893.4,285.4z M863.4,290.4
    c-1.5,0-2.7,1.2-2.7,2.7s1.2,2.7,2.7,2.7s2.7-1.2,2.7-2.7S864.9,290.4,863.4,290.4z"/>
  <circle class="dot" cx="833.3" cy="296.9" r="2.7"/>
  <path class="dot" d="M803.1,297.2c-1.5,0-2.7,1.2-2.7,2.7s1.2,2.7,2.7,2.7s2.7-1.2,2.7-2.7C805.9,298.5,804.6,297.2,803.1,297.2z"/>
  <circle class="dot" cx="772.8" cy="302.1" r="2.7"/>
  <path class="dot" d="M742.5,300.7c-1.5,0-2.7,1.2-2.7,2.7s1.2,2.7,2.7,2.7s2.7-1.2,2.7-2.7C745.3,301.9,744,300.7,742.5,300.7z
    M712.2,301.1c-1.5,0-2.7,1.2-2.7,2.7s1.2,2.7,2.7,2.7s2.7-1.2,2.7-2.7C714.9,302.4,713.7,301.1,712.2,301.1z"/>
  <circle class="dot" cx="681.8" cy="303.4" r="2.7"/>
  <path class="dot" d="M651.5,299.4c-1.5,0-2.7,1.2-2.7,2.7s1.2,2.7,2.7,2.7s2.7-1.2,2.7-2.7S653,299.4,651.5,299.4z"/>
  <circle class="dot" cx="621.2" cy="300" r="2.7"/>
  <circle class="dot" cx="591" cy="296.9" r="2.7"/>
  <circle class="dot" cx="560.9" cy="293.1" r="2.7"/>
  <circle class="dot" cx="530.9" cy="288.3" r="2.9"/>
  <path class="dot" d="M501.1,279.8c-1.6,0-2.9,1.3-2.9,2.9s1.3,2.9,2.9,2.9s2.9-1.3,2.9-2.9S502.7,279.8,501.1,279.8z"/>
  <circle class="dot" cx="471.4" cy="276.2" r="2.8"/>
  <circle class="dot" cx="442" cy="269" r="2.8"/>
  <path class="dot" d="M412.7,257.9c-1.6,0-2.9,1.3-2.9,2.9s1.3,2.9,2.9,2.9s2.9-1.3,2.9-2.9C415.7,259.2,414.4,257.9,412.7,257.9z"/>
  <circle class="dot" cx="383.7" cy="251.9" r="2.9"/>
  <circle class="dot" cx="355" cy="242.1" r="2.9"/>
  <path class="dot" d="M326.6,228.5c-1.6,0-2.9,1.3-2.9,2.9c0,1.6,1.3,2.9,2.9,2.9s2.9-1.3,2.9-2.9
    C329.5,229.8,328.2,228.5,326.6,228.5z M298.5,217.1c-1.6,0-2.9,1.3-2.9,2.9c0,1.6,1.3,2.9,2.9,2.9s2.9-1.3,2.9-2.9
    C301.4,218.4,300.1,217.1,298.5,217.1z M270.7,210.9c1.7,0,3.1-1.4,3.1-3.1c0-1.7-1.4-3.1-3.1-3.1s-3.1,1.4-3.1,3.1
    C267.6,209.5,269,210.9,270.7,210.9z"/>
  <circle class="dot" cx="243.2" cy="194.8" r="3"/>
  <path class="dot" d="M216.2,184.1c1.7,0,3.1-1.4,3.1-3.1c0-1.7-1.4-3.1-3.1-3.1c-1.7,0-3.1,1.4-3.1,3.1
    C213.1,182.7,214.5,184.1,216.2,184.1z"/>
  <circle class="dot" cx="189.6" cy="166.5" r="3.2"/>
  <circle class="dot" cx="163.4" cy="151.2" r="3.2"/>
  <path class="dot" d="M137.6,138.4c1.8,0,3.3-1.5,3.3-3.3s-1.5-3.3-3.3-3.3s-3.3,1.5-3.3,3.3C134.3,137,135.8,138.4,137.6,138.4z"/>
  <circle class="dot" cx="112.3" cy="118.4" r="3.4"/>
  <path class="dot" d="M87.5,97.5c-1.8,0-3.3,1.5-3.3,3.3c0,1.9,1.5,3.3,3.3,3.3c1.9,0,3.4-1.5,3.4-3.3C90.8,99,89.3,97.5,87.5,97.5z"
    />
  <circle class="dot" cx="63.2" cy="82.7" r="3.4"/>
  <path class="dot" d="M39.4,67.3c1.9,0,3.5-1.6,3.5-3.5s-1.6-3.5-3.5-3.5s-3.5,1.6-3.5,3.5C35.9,65.8,37.5,67.3,39.4,67.3z
    M19.7,44.3c0-2-1.6-3.6-3.6-3.6s-3.5,1.6-3.5,3.6s1.6,3.5,3.5,3.5C18.2,47.8,19.7,46.2,19.7,44.3z"/>
  <circle class="dot" cx="1428.1" cy="58.9" r="3.3"/>
  <path class="dot" d="M1408.2,78.6c0-1.8-1.4-3.2-3.2-3.2c-1.8,0-3.2,1.4-3.2,3.2c0,1.8,1.4,3.2,3.2,3.2
    C1406.8,81.8,1408.2,80.4,1408.2,78.6z M1381.3,100.7c1.7,0,3.1-1.4,3.1-3.1s-1.4-3.1-3.1-3.1s-3.1,1.4-3.1,3.1
    C1378.3,99.3,1379.6,100.7,1381.3,100.7z"/>
  <circle class="dot" cx="1357.2" cy="116" r="3.2"/>
  <path class="dot" d="M1332.5,136.7c1.7,0,3.1-1.4,3.1-3.1c0-1.7-1.4-3.1-3.1-3.1s-3.1,1.4-3.1,3.1
    C1329.4,135.3,1330.8,136.7,1332.5,136.7z"/>
  <circle class="dot" cx="1307.3" cy="150.6" r="3"/>
  <path class="dot" d="M1281.7,169.9c1.7,0,3.1-1.4,3.1-3.1c0-1.7-1.4-3.1-3.1-3.1s-3.1,1.4-3.1,3.1
    C1278.6,168.6,1280,169.9,1281.7,169.9z"/>
  <circle class="dot" cx="1255.6" cy="182.4" r="2.9"/>
  <circle class="dot" cx="1229.1" cy="197.2" r="2.9"/>
  <path class="dot" d="M1202.2,214.2c1.6,0,2.9-1.3,2.9-2.9c0-1.6-1.3-2.9-2.9-2.9s-2.9,1.3-2.9,2.9
    C1199.3,212.9,1200.6,214.2,1202.2,214.2z"/>
  <circle class="dot" cx="1175" cy="224.6" r="2.8"/>
  <circle class="dot" cx="1147.3" cy="237.1" r="2.9"/>
  <circle class="dot" cx="1119.3" cy="248.9" r="2.7"/>
  <path class="dot" d="M1093.8,259.9c0-1.5-1.2-2.7-2.7-2.7s-2.7,1.2-2.7,2.7s1.2,2.7,2.7,2.7S1093.8,261.4,1093.8,259.9z M1065.1,270
    c0-1.4-1.2-2.6-2.6-2.6s-2.6,1.2-2.6,2.6s1.2,2.6,2.6,2.6S1065.1,271.5,1065.1,270z"/>
  <circle class="dot" cx="1033.6" cy="279.4" r="2.7"/>
  <circle class="dot" cx="1004.5" cy="288" r="2.7"/>
  <circle class="dot" cx="975.1" cy="295.7" r="2.6"/>
  <circle class="dot" cx="945.6" cy="302.7" r="2.6"/>
  <circle class="dot" cx="915.8" cy="308.8" r="2.6"/>
  <circle class="dot" cx="885.9" cy="314" r="2.5"/>
  <path class="dot" d="M855.9,316c-1.4,0-2.5,1.1-2.5,2.5s1.1,2.5,2.5,2.5s2.5-1.1,2.5-2.5S857.3,316,855.9,316z"/>
  <circle class="dot" cx="825.8" cy="322.1" r="2.5"/>
  <path class="dot" d="M795.6,322.3c-1.4,0-2.5,1.1-2.5,2.5s1.1,2.5,2.5,2.5s2.5-1.1,2.5-2.5S797,322.3,795.6,322.3z"/>
  <circle class="dot" cx="765.3" cy="326.7" r="2.5"/>
  <circle class="dot" cx="734.9" cy="327.8" r="2.5"/>
  <circle class="dot" cx="704.6" cy="328" r="2.5"/>
  <circle class="dot" cx="674.2" cy="327.4" r="2.5"/>
  <circle class="dot" cx="643.9" cy="325.9" r="2.5"/>
  <circle class="dot" cx="613.7" cy="323.5" r="2.5"/>
  <circle class="dot" cx="583.5" cy="320.4" r="2.5"/>
  <circle class="dot" cx="553.4" cy="316.4" r="2.5"/>
  <circle class="dot" cx="523.4" cy="311.5" r="2.7"/>
  <circle class="dot" cx="493.6" cy="305.8" r="2.6"/>
  <circle class="dot" cx="464" cy="299.3" r="2.6"/>
  <circle class="dot" cx="434.5" cy="292" r="2.6"/>
  <circle class="dot" cx="405.3" cy="283.8" r="2.7"/>
  <circle class="dot" cx="376.3" cy="274.8" r="2.7"/>
  <circle class="dot" cx="347.6" cy="265" r="2.7"/>
  <circle class="dot" cx="319.1" cy="254.5" r="2.8"/>
  <path class="dot" d="M291,240.3c-1.5,0-2.7,1.2-2.7,2.7s1.2,2.7,2.7,2.7s2.7-1.2,2.7-2.7C293.7,241.6,292.5,240.3,291,240.3z
    M266,230.9c0-1.6-1.3-2.9-2.9-2.9s-2.9,1.3-2.9,2.9c0,1.6,1.3,2.9,2.9,2.9S266,232.5,266,230.9z M238.5,218c0-1.6-1.3-2.8-2.8-2.8
    s-2.8,1.3-2.8,2.8c0,1.6,1.3,2.8,2.8,2.8S238.5,219.6,238.5,218z"/>
  <circle class="dot" cx="208.6" cy="204.3" r="2.9"/>
  <path class="dot" d="M181.9,193c1.7,0,3.1-1.4,3.1-3.1c0-1.7-1.4-3.1-3.1-3.1c-1.7,0-3.1,1.4-3.1,3.1
    C178.8,191.6,180.2,193,181.9,193z M155.6,177.7c1.7,0,3-1.4,3-3c0-1.7-1.4-3-3-3c-1.7,0-3,1.3-3,3S153.9,177.7,155.6,177.7z
    M129.8,161.9c1.7,0,3.1-1.4,3.1-3.1c0-1.7-1.4-3.1-3.1-3.1c-1.7,0-3.1,1.4-3.1,3.1C126.7,160.5,128.1,161.9,129.8,161.9z"/>
  <circle class="dot" cx="104.4" cy="142.2" r="3.2"/>
  <circle class="dot" cx="79.4" cy="124.9" r="3.1"/>
  <circle class="dot" cx="55" cy="106.9" r="3.3"/>
  <circle class="dot" cx="31.1" cy="88.2" r="3.3"/>
  <circle class="dot" cx="7.7" cy="68.8" r="3.4"/>
  <circle class="dot" cx="1425.1" cy="93.3" r="3.1"/>
  <path class="dot" d="M1401.5,115.6c1.7,0,3.1-1.4,3.1-3.1s-1.4-3.1-3.1-3.1s-3.1,1.4-3.1,3.1S1399.8,115.6,1401.5,115.6z"/>
  <circle class="dot" cx="1377.4" cy="131" r="2.9"/>
  <path class="dot" d="M1352.9,151.7c1.6,0,2.9-1.3,2.9-2.9c0-1.6-1.3-2.9-2.9-2.9s-2.9,1.3-2.9,2.9
    C1350,150.4,1351.3,151.7,1352.9,151.7z"/>
  <circle class="dot" cx="1327.9" cy="166" r="3"/>
  <path class="dot" d="M1302.4,185.3c1.6,0,2.9-1.3,2.9-2.9c0-1.6-1.3-2.9-2.9-2.9s-2.9,1.3-2.9,2.9
    C1299.5,184,1300.8,185.3,1302.4,185.3z"/>
  <circle class="dot" cx="1276.4" cy="198.2" r="2.8"/>
  <path class="dot" d="M1250.1,216.2c1.6,0,2.9-1.3,2.9-2.9c0-1.6-1.3-2.9-2.9-2.9s-2.9,1.3-2.9,2.9
    C1247.2,214.9,1248.5,216.2,1250.1,216.2z M1226.1,227.6c0-1.5-1.2-2.7-2.7-2.7s-2.7,1.2-2.7,2.7s1.2,2.7,2.7,2.7
    C1224.8,230.4,1226.1,229.1,1226.1,227.6z"/>
  <circle class="dot" cx="1196.2" cy="241.2" r="2.6"/>
  <path class="dot" d="M1171.3,254.1c0-1.4-1.2-2.6-2.6-2.6s-2.6,1.2-2.6,2.6c0,1.4,1.2,2.6,2.6,2.6S1171.3,255.5,1171.3,254.1z"/>
  <circle class="dot" cx="1140.9" cy="266.1" r="2.5"/>
  <circle class="dot" cx="1112.7" cy="277.5" r="2.5"/>
  <circle class="dot" cx="1084.2" cy="288" r="2.6"/>
  <circle class="dot" cx="1055.5" cy="297.8" r="2.5"/>
  <circle class="dot" cx="1026.5" cy="306.8" r="2.5"/>
  <circle class="dot" cx="997.3" cy="315" r="2.4"/>
  <circle class="dot" cx="967.8" cy="322.4" r="2.4"/>
  <circle class="dot" cx="938.2" cy="328.9" r="2.5"/>
  <path class="dot" d="M908.4,332.2c-1.4,0-2.5,1.1-2.5,2.5s1.1,2.5,2.5,2.5s2.5-1.1,2.5-2.5S909.8,332.2,908.4,332.2z M878.5,337.4
    c-1.3,0-2.3,1-2.3,2.3s1,2.3,2.3,2.3s2.3-1,2.3-2.3S879.7,337.4,878.5,337.4z"/>
  <circle class="dot" cx="848.4" cy="343.8" r="2.3"/>
  <circle class="dot" cx="818.2" cy="347.1" r="2.3"/>
  <circle class="dot" cx="788" cy="349.6" r="2.3"/>
  <circle class="dot" cx="757.7" cy="351.2" r="2.4"/>
  <circle class="dot" cx="727.3" cy="352.1" r="2.4"/>
  <circle class="dot" cx="697" cy="352.1" r="2.4"/>
  <circle class="dot" cx="666.7" cy="351.2" r="2.4"/>
  <circle class="dot" cx="636.3" cy="349.6" r="2.4"/>
  <circle class="dot" cx="606.1" cy="347.1" r="2.3"/>
  <circle class="dot" cx="575.9" cy="343.8" r="2.3"/>
  <circle class="dot" cx="545.9" cy="339.7" r="2.3"/>
  <circle class="dot" cx="515.9" cy="334.7" r="2.5"/>
  <circle class="dot" cx="486.1" cy="328.9" r="2.5"/>
  <circle class="dot" cx="456.5" cy="322.4" r="2.4"/>
  <path class="dot" d="M427,312.6c-1.3,0-2.4,1.1-2.4,2.4s1.1,2.4,2.4,2.4s2.4-1.1,2.4-2.4C429.5,313.6,428.4,312.6,427,312.6z"/>
  <circle class="dot" cx="397.8" cy="306.8" r="2.5"/>
  <circle class="dot" cx="368.8" cy="297.8" r="2.5"/>
  <path class="dot" d="M340.1,285.3c-1.5,0-2.7,1.2-2.7,2.7s1.2,2.7,2.7,2.7s2.7-1.2,2.7-2.7S341.6,285.3,340.1,285.3z"/>
  <circle class="dot" cx="311.6" cy="277.5" r="2.6"/>
  <circle class="dot" cx="283.5" cy="266.1" r="2.5"/>
  <circle class="dot" cx="255.6" cy="254.1" r="2.7"/>
  <circle class="dot" cx="228.1" cy="241.2" r="2.6"/>
  <circle class="dot" cx="201" cy="227.6" r="2.7"/>
  <circle class="dot" cx="174.3" cy="213.3" r="2.9"/>
  <circle class="dot" cx="147.9" cy="198.2" r="2.9"/>
  <circle class="dot" cx="122" cy="182.5" r="2.9"/>
  <path class="dot" d="M96.5,169.1c1.7,0,3.1-1.4,3.1-3.1c0-1.7-1.4-3.1-3.1-3.1s-3.1,1.4-3.1,3.1C93.4,167.7,94.8,169.1,96.5,169.1z
    M74.4,148.8c0-1.6-1.3-2.9-2.9-2.9s-2.9,1.3-2.9,2.9c0,1.6,1.3,2.9,2.9,2.9C73.1,151.8,74.4,150.4,74.4,148.8z"/>
  <circle class="dot" cx="46.9" cy="131" r="3"/>
  <circle class="dot" cx="22.8" cy="112.5" r="3.1"/>
  <circle class="dot" cx="-0.7" cy="93.3" r="3.2"/>
  <path class="dot" d="M1421.7,124.4c-1.6,0-2.9,1.3-2.9,2.9c0,1.6,1.3,2.9,2.9,2.9s2.9-1.3,2.9-2.9
    C1424.5,125.7,1423.2,124.4,1421.7,124.4z"/>
  <circle class="dot" cx="1397.7" cy="146" r="2.8"/>
  <path class="dot" d="M1373.3,166.8c1.6,0,2.9-1.3,2.9-2.9c0-1.6-1.3-2.9-2.9-2.9s-2.9,1.3-2.9,2.9
    C1370.4,165.6,1371.7,166.8,1373.3,166.8z M1348.4,178.6c-1.5,0-2.7,1.2-2.7,2.7s1.2,2.7,2.7,2.7s2.7-1.2,2.7-2.7
    S1349.9,178.6,1348.4,178.6z M1323,195.3c-1.5,0-2.7,1.2-2.7,2.7s1.2,2.7,2.7,2.7s2.7-1.2,2.7-2.7S1324.5,195.3,1323,195.3z
    M1297.2,216.7c1.5,0,2.7-1.2,2.7-2.7s-1.2-2.7-2.7-2.7s-2.7,1.2-2.7,2.7S1295.7,216.7,1297.2,216.7z M1271,226.6
    c-1.4,0-2.6,1.2-2.6,2.6c0,1.4,1.2,2.6,2.6,2.6s2.6-1.2,2.6-2.6C1273.6,227.8,1272.4,226.6,1271,226.6z"/>
  <circle class="dot" cx="1244.4" cy="243.8" r="2.5"/>
  <circle class="dot" cx="1217.4" cy="257.7" r="2.5"/>
  <circle class="dot" cx="1190" cy="270.9" r="2.4"/>
  <circle class="dot" cx="1162.3" cy="283.3" r="2.5"/>
  <path class="dot" d="M1136.7,294.9c0-1.3-1.1-2.4-2.4-2.4s-2.4,1.1-2.4,2.4s1.1,2.4,2.4,2.4S1136.7,296.3,1136.7,294.9z"/>
  <circle class="dot" cx="1106" cy="305.8" r="2.4"/>
  <path class="dot" d="M1079.6,316c0-1.3-1-2.3-2.3-2.3s-2.3,1-2.3,2.3s1,2.3,2.3,2.3S1079.6,317.2,1079.6,316z"/>
  <circle class="dot" cx="1048.5" cy="325.4" r="2.3"/>
  <circle class="dot" cx="1019.4" cy="334" r="2.3"/>
  <circle class="dot" cx="990.1" cy="341.8" r="2.2"/>
  <path class="dot" d="M960.5,346.5c-1.3,0-2.3,1-2.3,2.3s1,2.3,2.3,2.3s2.3-1,2.3-2.3C962.8,347.6,961.8,346.5,960.5,346.5z
    M930.8,352.8c-1.3,0-2.3,1-2.3,2.3s1,2.3,2.3,2.3s2.3-1,2.3-2.3S932.1,352.8,930.8,352.8z M901,358.2c-1.3,0-2.3,1-2.3,2.3
    s1,2.3,2.3,2.3s2.3-1,2.3-2.3S902.2,358.2,901,358.2z"/>
  <circle class="dot" cx="871" cy="365.2" r="2.1"/>
  <circle class="dot" cx="840.9" cy="369" r="2.1"/>
  <circle class="dot" cx="810.7" cy="372" r="2.1"/>
  <circle class="dot" cx="780.4" cy="374.3" r="2.1"/>
  <circle class="dot" cx="750.1" cy="375.7" r="2.1"/>
  <path class="dot" d="M719.8,374.1c-1.2,0-2.2,1-2.2,2.2s1,2.2,2.2,2.2s2.2-1,2.2-2.2S721,374.1,719.8,374.1z"/>
  <circle class="dot" cx="689.4" cy="376.1" r="2.2"/>
  <circle class="dot" cx="659.1" cy="375.1" r="2.1"/>
  <circle class="dot" cx="628.8" cy="373.3" r="2.1"/>
  <circle class="dot" cx="598.5" cy="370.6" r="2.1"/>
  <circle class="dot" cx="568.4" cy="367.2" r="2.1"/>
  <circle class="dot" cx="538.3" cy="362.9" r="2.1"/>
  <circle class="dot" cx="508.4" cy="357.9" r="2.3"/>
  <path class="dot" d="M478.6,349.8c-1.3,0-2.3,1-2.3,2.3s1,2.3,2.3,2.3s2.3-1,2.3-2.3S479.9,349.8,478.6,349.8z M449,343.1
    c-1.3,0-2.3,1-2.3,2.3s1,2.3,2.3,2.3s2.3-1,2.3-2.3S450.3,343.1,449,343.1z"/>
  <circle class="dot" cx="419.6" cy="338" r="2.2"/>
  <circle class="dot" cx="390.4" cy="329.8" r="2.4"/>
  <path class="dot" d="M361.4,318.5c-1.3,0-2.3,1-2.3,2.3s1,2.3,2.3,2.3s2.3-1,2.3-2.3C363.6,319.5,362.6,318.5,361.4,318.5z"/>
  <circle class="dot" cx="332.6" cy="311" r="2.5"/>
  <path class="dot" d="M304.2,298.1c-1.3,0-2.4,1.1-2.4,2.4s1.1,2.4,2.4,2.4s2.4-1.1,2.4-2.4C306.6,299.1,305.5,298.1,304.2,298.1z"/>
  <circle class="dot" cx="276" cy="289.2" r="2.4"/>
  <circle class="dot" cx="248.1" cy="277.2" r="2.5"/>
  <circle class="dot" cx="220.6" cy="264.4" r="2.6"/>
  <circle class="dot" cx="193.4" cy="250.9" r="2.6"/>
  <circle class="dot" cx="166.6" cy="236.6" r="2.7"/>
  <circle class="dot" cx="140.2" cy="221.7" r="2.6"/>
  <path class="dot" d="M114.2,208.8c1.5,0,2.7-1.2,2.7-2.7s-1.2-2.7-2.7-2.7s-2.7,1.2-2.7,2.7C111.4,207.6,112.7,208.8,114.2,208.8z
    M91.5,189.7c0-1.6-1.3-2.9-2.9-2.9s-2.9,1.3-2.9,2.9c0,1.6,1.3,2.9,2.9,2.9S91.5,191.3,91.5,189.7z"/>
  <circle class="dot" cx="63.5" cy="172.7" r="2.7"/>
  <circle class="dot" cx="38.8" cy="155" r="2.9"/>
  <circle class="dot" cx="14.6" cy="136.7" r="2.9"/>
  <circle class="dot" cx="1441.8" cy="142.1" r="2.8"/>
  <circle class="dot" cx="1417.9" cy="160.9" r="2.7"/>
  <path class="dot" d="M1396.2,179.1c0-1.4-1.2-2.6-2.6-2.6s-2.6,1.2-2.6,2.6c0,1.4,1.2,2.6,2.6,2.6
    C1395.1,181.7,1396.2,180.5,1396.2,179.1z M1368.8,194c-1.4,0-2.5,1.1-2.5,2.5s1.1,2.5,2.5,2.5s2.5-1.1,2.5-2.5
    C1371.4,195.2,1370.2,194,1368.8,194z"/>
  <circle class="dot" cx="1343.6" cy="213.4" r="2.6"/>
  <circle class="dot" cx="1317.9" cy="229.6" r="2.5"/>
  <circle class="dot" cx="1291.9" cy="245.2" r="2.4"/>
  <path class="dot" d="M1265.4,257.5c-1.4,0-2.5,1.1-2.5,2.5s1.1,2.5,2.5,2.5s2.5-1.1,2.5-2.5C1267.8,258.6,1266.7,257.5,1265.4,257.5
    z"/>
  <circle class="dot" cx="1238.5" cy="274.1" r="2.3"/>
  <path class="dot" d="M1213.7,287.5c0-1.3-1.1-2.4-2.4-2.4s-2.4,1.1-2.4,2.4s1.1,2.4,2.4,2.4C1212.6,290,1213.7,288.9,1213.7,287.5z
    M1186,300.3c0-1.3-1-2.3-2.3-2.3s-2.3,1-2.3,2.3s1,2.3,2.3,2.3C1185,302.5,1186,301.5,1186,300.3z"/>
  <circle class="dot" cx="1155.8" cy="312.2" r="2.3"/>
  <circle class="dot" cx="1127.6" cy="323.5" r="2.2"/>
  <path class="dot" d="M1101.4,334c0-1.3-1-2.3-2.3-2.3s-2.3,1-2.3,2.3s1,2.3,2.3,2.3S1101.4,335.2,1101.4,334z"/>
  <circle class="dot" cx="1070.4" cy="343.7" r="2.1"/>
  <circle class="dot" cx="1041.4" cy="352.7" r="2.1"/>
  <path class="dot" d="M1012.2,358.8c-1.2,0-2.2,1-2.2,2.2s1,2.2,2.2,2.2s2.2-1,2.2-2.2S1013.5,358.8,1012.2,358.8z"/>
  <circle class="dot" cx="982.8" cy="368.4" r="2"/>
  <path class="dot" d="M953.2,373.1c-1.1,0-2.1,0.9-2.1,2.1c0,1.1,0.9,2.1,2.1,2.1c1.2,0,2.1-0.9,2.1-2.1S954.4,373.1,953.2,373.1z
    M923.4,379c-1.1,0-2.1,0.9-2.1,2.1c0,1.1,0.9,2.1,2.1,2.1c1.2,0,2.1-0.9,2.1-2.1S924.6,379,923.4,379z"/>
  <circle class="dot" cx="893.5" cy="386.2" r="1.9"/>
  <circle class="dot" cx="863.5" cy="390.6" r="1.9"/>
  <circle class="dot" cx="833.4" cy="394.1" r="1.9"/>
  <circle class="dot" cx="803.1" cy="396.9" r="2"/>
  <path class="dot" d="M772.8,396.9c-1.1,0-2,0.9-2,2s0.9,2,2,2s2-0.9,2-2S774,396.9,772.8,396.9z M742.5,398.1c-1.1,0-2,0.9-2,2
    s0.9,2,2,2s2-0.9,2-2S743.6,398.1,742.5,398.1z M712.2,398.5c-1.1,0-2,0.9-2,2s0.9,2,2,2s2-0.9,2-2S713.3,398.5,712.2,398.5z
    M681.8,398.1c-1.1,0-2,0.9-2,2s0.9,2,2,2s2-0.9,2-2S682.9,398.1,681.8,398.1z M651.5,396.9c-1.1,0-2,0.9-2,2s0.9,2,2,2s2-0.9,2-2
    S652.6,396.9,651.5,396.9z"/>
  <circle class="dot" cx="621.2" cy="396.9" r="2"/>
  <path class="dot" d="M591,392.1c-1.1,0-2,0.9-2,2s0.9,2,2,2s2-0.9,2-2S592.1,392.1,591,392.1z"/>
  <circle class="dot" cx="560.8" cy="390.6" r="1.9"/>
  <circle class="dot" cx="530.8" cy="386.2" r="1.9"/>
  <circle class="dot" cx="500.9" cy="381.1" r="2.1"/>
  <circle class="dot" cx="471.1" cy="375.1" r="2.1"/>
  <circle class="dot" cx="441.5" cy="368.4" r="2.1"/>
  <path class="dot" d="M412.1,358.8c-1.2,0-2.2,1-2.2,2.2s1,2.2,2.2,2.2s2.2-1,2.2-2.2S413.3,358.8,412.1,358.8z"/>
  <circle class="dot" cx="382.9" cy="352.7" r="2.1"/>
  <circle class="dot" cx="353.9" cy="343.7" r="2.1"/>
  <circle class="dot" cx="325.2" cy="334" r="2.3"/>
  <circle class="dot" cx="296.7" cy="323.5" r="2.3"/>
  <path class="dot" d="M268.5,309.8c-1.3,0-2.4,1.1-2.4,2.4s1.1,2.4,2.4,2.4s2.4-1.1,2.4-2.4S269.8,309.8,268.5,309.8z"/>
  <circle class="dot" cx="240.6" cy="300.2" r="2.3"/>
  <circle class="dot" cx="213" cy="287.5" r="2.4"/>
  <circle class="dot" cx="185.8" cy="274.1" r="2.4"/>
  <circle class="dot" cx="159" cy="260" r="2.5"/>
  <circle class="dot" cx="132.5" cy="245.2" r="2.5"/>
  <circle class="dot" cx="106.4" cy="229.6" r="2.5"/>
  <circle class="dot" cx="80.7" cy="213.4" r="2.7"/>
  <path class="dot" d="M58.1,196.6c0-1.4-1.2-2.6-2.6-2.6c-1.4,0-2.6,1.2-2.6,2.6c0,1.4,1.2,2.6,2.6,2.6
    C56.9,199.2,58.1,198,58.1,196.6z"/>
  <circle class="dot" cx="30.7" cy="179.1" r="2.7"/>
  <path class="dot" d="M9.2,160.9c0-1.6-1.3-2.8-2.8-2.8s-2.8,1.3-2.8,2.8c0,1.6,1.3,2.8,2.8,2.8S9.2,162.5,9.2,160.9z"/>
  <circle class="dot" cx="1438.2" cy="175.8" r="2.5"/>
  <circle class="dot" cx="1413.9" cy="194.1" r="2.4"/>
  <path class="dot" d="M1391.8,211.8c0-1.4-1.1-2.5-2.5-2.5s-2.5,1.1-2.5,2.5s1.1,2.5,2.5,2.5C1390.6,214.3,1391.8,213.2,1391.8,211.8
    z"/>
  <circle class="dot" cx="1364.2" cy="228.9" r="2.4"/>
  <circle class="dot" cx="1338.6" cy="245.2" r="2.3"/>
  <circle class="dot" cx="1312.7" cy="261" r="2.3"/>
  <path class="dot" d="M1286.3,273.8c-1.2,0-2.2,1-2.2,2.2s1,2.2,2.2,2.2s2.2-1,2.2-2.2S1287.5,273.8,1286.3,273.8z"/>
  <circle class="dot" cx="1259.6" cy="290.4" r="2.1"/>
  <circle class="dot" cx="1232.5" cy="304.1" r="2.1"/>
  <circle class="dot" cx="1205.1" cy="317.1" r="2.1"/>
  <circle class="dot" cx="1177.3" cy="329.4" r="2.1"/>
  <circle class="dot" cx="1149.3" cy="341" r="2"/>
  <path class="dot" d="M1122.9,351.8c0-1.1-0.9-2-2-2s-2,0.9-2,2s0.9,2,2,2S1122.9,352.9,1122.9,351.8z"/>
  <circle class="dot" cx="1092.3" cy="361.9" r="1.9"/>
  <path class="dot" d="M1065.4,371.3c0-1.1-0.9-1.9-1.9-1.9c-1.1,0-1.9,0.9-1.9,1.9c0,1.1,0.9,1.9,1.9,1.9
    C1064.5,373.3,1065.4,372.4,1065.4,371.3z M1034.3,377.9c-1.1,0-2,0.9-2,2s0.9,2,2,2s2-0.9,2-2S1035.4,377.9,1034.3,377.9z
    M1005,386c-1,0-1.8,0.8-1.8,1.8s0.8,1.8,1.8,1.8s1.8-0.8,1.8-1.8S1006,386,1005,386z"/>
  <circle class="dot" cx="975.5" cy="395" r="1.9"/>
  <path class="dot" d="M945.8,399.5c-1,0-1.9,0.8-1.9,1.9c0,1,0.8,1.9,1.9,1.9c1,0,1.9-0.8,1.9-1.9S946.9,399.5,945.8,399.5z M916,405
    c-1.1,0-1.9,0.9-1.9,1.9c0,1.1,0.9,1.9,1.9,1.9c1.1,0,1.9-0.9,1.9-1.9C918,405.9,917.1,405,916,405z M886.1,410
    c-1,0-1.8,0.8-1.8,1.8s0.8,1.8,1.8,1.8s1.8-0.8,1.8-1.8S887.1,410,886.1,410z"/>
  <circle class="dot" cx="856" cy="415.9" r="1.8"/>
  <path class="dot" d="M825.8,417.4c-1,0-1.8,0.8-1.8,1.8s0.8,1.8,1.8,1.8s1.8-0.8,1.8-1.8S826.8,417.4,825.8,417.4z M795.6,419.9
    c-1,0-1.8,0.8-1.8,1.8s0.8,1.8,1.8,1.8s1.8-0.8,1.8-1.8S796.6,419.9,795.6,419.9z M765.3,421.6c-1,0-1.8,0.8-1.8,1.8
    s0.8,1.8,1.8,1.8s1.8-0.8,1.8-1.8S766.3,421.6,765.3,421.6z M734.9,422.6c-1,0-1.8,0.8-1.8,1.8s0.8,1.8,1.8,1.8s1.8-0.8,1.8-1.8
    S735.9,422.6,734.9,422.6z M704.6,422.8c-1,0-1.8,0.8-1.8,1.8s0.8,1.8,1.8,1.8s1.8-0.8,1.8-1.8S705.6,422.8,704.6,422.8z"/>
  <circle class="dot" cx="674.2" cy="424" r="1.8"/>
  <path class="dot" d="M643.9,420.9c-1,0-1.8,0.8-1.8,1.8s0.8,1.8,1.8,1.8s1.8-0.8,1.8-1.8S644.9,420.9,643.9,420.9z M613.6,418.7
    c-1,0-1.8,0.8-1.8,1.8s0.8,1.8,1.8,1.8s1.8-0.8,1.8-1.8S614.6,418.7,613.6,418.7z M583.4,415.8c-1,0-1.8,0.8-1.8,1.8
    s0.8,1.8,1.8,1.8s1.8-0.8,1.8-1.8S584.4,415.8,583.4,415.8z M553.3,412.1c-1,0-1.8,0.8-1.8,1.8s0.8,1.8,1.8,1.8s1.8-0.8,1.8-1.8
    S554.3,412.1,553.3,412.1z"/>
  <circle class="dot" cx="523.3" cy="409.5" r="1.9"/>
  <circle class="dot" cx="493.4" cy="404.2" r="1.9"/>
  <circle class="dot" cx="463.6" cy="398.2" r="1.9"/>
  <circle class="dot" cx="434" cy="391.5" r="1.9"/>
  <path class="dot" d="M404.6,382c-1.1,0-2,0.9-2,2s0.9,2,2,2s2-0.9,2-2S405.7,382,404.6,382z M375.4,373.7c-1.1,0-2,0.9-2,2
    s0.9,2,2,2s2-0.9,2-2S376.5,373.7,375.4,373.7z M346.4,364.8c-1.1,0-1.9,0.9-1.9,1.9c0,1.1,0.9,1.9,1.9,1.9c1.1,0,1.9-0.9,1.9-1.9
    C348.4,365.6,347.5,364.8,346.4,364.8z"/>
  <circle class="dot" cx="317.7" cy="357" r="2.1"/>
  <path class="dot" d="M289.2,344.5c-1.1,0-2,0.9-2,2s0.9,2,2,2s2-0.9,2-2S290.3,344.5,289.2,344.5z"/>
  <circle class="dot" cx="261" cy="335.3" r="2.1"/>
  <circle class="dot" cx="233.1" cy="323.3" r="2.1"/>
  <path class="dot" d="M207.8,310.7c0-1.3-1-2.3-2.3-2.3s-2.3,1-2.3,2.3s1,2.3,2.3,2.3S207.8,312,207.8,310.7z"/>
  <circle class="dot" cx="178.2" cy="297.4" r="2.2"/>
  <circle class="dot" cx="151.3" cy="283.3" r="2.3"/>
  <circle class="dot" cx="124.8" cy="268.6" r="2.3"/>
  <path class="dot" d="M101,253.2c0-1.3-1.1-2.4-2.4-2.4s-2.4,1.1-2.4,2.4c0,1.3,1.1,2.4,2.4,2.4C100,255.6,101,254.5,101,253.2z"/>
  <circle class="dot" cx="72.9" cy="237.1" r="2.5"/>
  <path class="dot" d="M50,220.4c0-1.3-1.1-2.4-2.4-2.4c-1.3,0-2.4,1.1-2.4,2.4c0,1.3,1.1,2.4,2.4,2.4C48.9,222.8,50,221.7,50,220.4z"
    />
  <circle class="dot" cx="22.6" cy="203" r="2.5"/>
  <path class="dot" d="M0.8,185c0-1.4-1.2-2.6-2.6-2.6s-2.6,1.2-2.6,2.6c0,1.4,1.2,2.6,2.6,2.6C-0.3,187.7,0.8,186.5,0.8,185z"/>
  <circle class="dot" cx="1434.3" cy="209.1" r="2.3"/>
  <circle class="dot" cx="1409.7" cy="227" r="2.3"/>
  <circle class="dot" cx="1384.7" cy="244.2" r="2.1"/>
  <circle class="dot" cx="1359.3" cy="260.8" r="2.2"/>
  <circle class="dot" cx="1333.5" cy="276.7" r="2.1"/>
  <path class="dot" d="M1307.2,290c-1.1,0-2,0.9-2,2s0.9,2,2,2s2-0.9,2-2S1308.3,290,1307.2,290z M1280.6,304.6c-1.1,0-2,0.9-2,2
    s0.9,2,2,2s2-0.9,2-2S1281.7,304.6,1280.6,304.6z"/>
  <circle class="dot" cx="1253.7" cy="320.6" r="2"/>
  <path class="dot" d="M1228.4,333.8c0-1.1-0.9-2-2-2s-2,0.9-2,2s0.9,2,2,2C1227.5,335.9,1228.4,335,1228.4,333.8z M1200.7,346.4
    c0-1.1-0.9-1.9-1.9-1.9c-1.1,0-1.9,0.9-1.9,1.9c0,1.1,0.9,1.9,1.9,1.9C1199.8,348.4,1200.7,347.5,1200.7,346.4z"/>
  <circle class="dot" cx="1170.8" cy="358.3" r="1.9"/>
  <path class="dot" d="M1144.4,369.5c0-1-0.8-1.8-1.8-1.8s-1.8,0.8-1.8,1.8s0.8,1.8,1.8,1.8S1144.4,370.5,1144.4,369.5z"/>
  <circle class="dot" cx="1114.1" cy="379.9" r="1.9"/>
  <path class="dot" d="M1087.1,389.7c0-1-0.8-1.7-1.7-1.7c-1,0-1.7,0.8-1.7,1.7c0,1,0.8,1.7,1.7,1.7
    C1086.3,391.4,1087.1,390.6,1087.1,389.7z M1056.4,396.9c-1,0-1.8,0.8-1.8,1.8s0.8,1.8,1.8,1.8s1.8-0.8,1.8-1.8
    S1057.4,396.9,1056.4,396.9z M1027.2,405.2c-1,0-1.8,0.8-1.8,1.8s0.8,1.8,1.8,1.8s1.8-0.8,1.8-1.8S1028.2,405.2,1027.2,405.2z"/>
  <circle class="dot" cx="997.8" cy="414.5" r="1.7"/>
  <path class="dot" d="M968.2,419.7c-0.9,0-1.7,0.7-1.7,1.7c0,0.9,0.7,1.7,1.7,1.7c0.9,0,1.7-0.7,1.7-1.7S969.1,419.7,968.2,419.7z
    M938.5,425.7c-1,0-1.7,0.8-1.7,1.7s0.8,1.7,1.7,1.7c1,0,1.7-0.8,1.7-1.7S939.4,425.7,938.5,425.7z"/>
  <circle class="dot" cx="908.6" cy="432.7" r="1.7"/>
  <path class="dot" d="M878.6,435.7c-0.9,0-1.6,0.7-1.6,1.6s0.7,1.6,1.6,1.6s1.6-0.7,1.6-1.6S879.5,435.7,878.6,435.7z M848.5,439.5
    c-0.9,0-1.6,0.7-1.6,1.6s0.7,1.6,1.6,1.6c0.9,0,1.6-0.7,1.6-1.6S849.4,439.5,848.5,439.5z M818.3,442.5c-0.9,0-1.6,0.7-1.6,1.6
    s0.7,1.6,1.6,1.6c0.9,0,1.6-0.7,1.6-1.6S819.2,442.5,818.3,442.5z M788,444.8c-0.9,0-1.6,0.7-1.6,1.6s0.7,1.6,1.6,1.6
    c0.9,0,1.6-0.7,1.6-1.6S788.9,444.8,788,444.8z M757.7,446.3c-0.9,0-1.6,0.7-1.6,1.6s0.7,1.6,1.6,1.6c0.9,0,1.6-0.7,1.6-1.6
    S758.6,446.3,757.7,446.3z M727.4,447c-0.9,0-1.7,0.7-1.7,1.7c0,0.9,0.7,1.7,1.7,1.7c0.9,0,1.7-0.7,1.7-1.7
    C729,447.8,728.3,447,727.4,447z"/>
  <circle class="dot" cx="697" cy="448.7" r="1.7"/>
  <path class="dot" d="M666.7,446.3c-0.9,0-1.7,0.7-1.7,1.7c0,0.9,0.7,1.7,1.7,1.7c0.9,0,1.7-0.7,1.7-1.7
    C668.3,447,667.6,446.3,666.7,446.3z M636.3,444.8c-0.9,0-1.6,0.7-1.6,1.6s0.7,1.6,1.6,1.6c0.9,0,1.6-0.7,1.6-1.6
    C638,445.5,637.2,444.8,636.3,444.8z M606.1,442.5c-0.9,0-1.6,0.7-1.6,1.6s0.7,1.6,1.6,1.6c0.9,0,1.6-0.7,1.6-1.6
    S607,442.5,606.1,442.5z M575.9,439.5c-0.9,0-1.6,0.7-1.6,1.6s0.7,1.6,1.6,1.6c0.9,0,1.6-0.7,1.6-1.6S576.8,439.5,575.9,439.5z
    M545.8,435.7c-0.9,0-1.6,0.7-1.6,1.6s0.7,1.6,1.6,1.6c0.9,0,1.6-0.7,1.6-1.6S546.7,435.7,545.8,435.7z M515.8,430.9
    c-1,0-1.8,0.8-1.8,1.8s0.8,1.8,1.8,1.8s1.8-0.8,1.8-1.8S516.8,430.9,515.8,430.9z M485.9,425.7c-1,0-1.7,0.8-1.7,1.7
    s0.8,1.7,1.7,1.7c1,0,1.7-0.8,1.7-1.7S486.8,425.7,485.9,425.7z"/>
  <circle class="dot" cx="456.1" cy="421.3" r="1.7"/>
  <path class="dot" d="M426.6,412.9c-0.9,0-1.7,0.7-1.7,1.7s0.7,1.7,1.7,1.7c0.9,0,1.7-0.7,1.7-1.7S427.5,412.9,426.6,412.9z
    M397.2,405.2c-1,0-1.8,0.8-1.8,1.8s0.8,1.8,1.8,1.8s1.8-0.8,1.8-1.8S398.2,405.2,397.2,405.2z M368,396.9c-1,0-1.8,0.8-1.8,1.8
    s0.8,1.8,1.8,1.8s1.8-0.8,1.8-1.8S369,396.9,368,396.9z"/>
  <circle class="dot" cx="339" cy="389.7" r="1.8"/>
  <circle class="dot" cx="310.2" cy="379.9" r="1.9"/>
  <circle class="dot" cx="281.7" cy="369.5" r="1.9"/>
  <circle class="dot" cx="253.5" cy="358.3" r="2"/>
  <circle class="dot" cx="225.6" cy="346.4" r="1.9"/>
  <path class="dot" d="M198,331.8c-1.1,0-2.1,0.9-2.1,2.1c0,1.1,0.9,2.1,2.1,2.1c1.2,0,2.1-0.9,2.1-2.1
    C200,332.7,199.1,331.8,198,331.8z M170.7,318.6c-1.1,0-2,0.9-2,2s0.9,2,2,2s2-0.9,2-2S171.8,318.6,170.7,318.6z"/>
  <circle class="dot" cx="143.7" cy="306.6" r="2.1"/>
  <path class="dot" d="M117.1,290c-1.1,0-2,0.9-2,2s0.9,2,2,2s2-0.9,2-2S118.2,290,117.1,290z"/>
  <circle class="dot" cx="90.9" cy="276.7" r="2.1"/>
  <path class="dot" d="M67.3,260.8c0-1.3-1-2.3-2.3-2.3c-1.3,0-2.3,1-2.3,2.3s1,2.3,2.3,2.3C66.3,263.1,67.3,262.1,67.3,260.8z"/>
  <circle class="dot" cx="39.6" cy="244.2" r="2.2"/>
  <circle class="dot" cx="14.7" cy="227" r="2.3"/>
  <path class="dot" d="M1432.1,242.1c0-1.1-0.9-2-2-2s-2,0.9-2,2s0.9,2,2,2S1432.1,243.2,1432.1,242.1z"/>
  <circle class="dot" cx="1405.2" cy="259.5" r="2.1"/>
  <circle class="dot" cx="1379.9" cy="276.3" r="2"/>
  <circle class="dot" cx="1354.2" cy="292.4" r="1.9"/>
  <path class="dot" d="M1328.1,306c-1.1,0-1.9,0.9-1.9,1.9s0.9,1.9,1.9,1.9c1.1,0,1.9-0.9,1.9-1.9S1329.2,306,1328.1,306z"/>
  <circle class="dot" cx="1301.6" cy="322.8" r="1.9"/>
  <circle class="dot" cx="1274.8" cy="337" r="1.9"/>
  <path class="dot" d="M1247.6,348.7c-1,0-1.8,0.8-1.8,1.8s0.8,1.8,1.8,1.8s1.8-0.8,1.8-1.8S1248.6,348.7,1247.6,348.7z"/>
  <circle class="dot" cx="1220.1" cy="363.3" r="1.7"/>
  <circle class="dot" cx="1192.3" cy="375.5" r="1.7"/>
  <circle class="dot" cx="1164.2" cy="387" r="1.6"/>
  <circle class="dot" cx="1135.9" cy="397.8" r="1.7"/>
  <circle class="dot" cx="1107.2" cy="407.9" r="1.7"/>
  <circle class="dot" cx="1078.4" cy="417.3" r="1.6"/>
  <path class="dot" d="M1049.3,424.3c-0.9,0-1.6,0.7-1.6,1.6s0.7,1.6,1.6,1.6s1.6-0.7,1.6-1.6S1050.2,424.3,1049.3,424.3z M1020,432.3
    c-0.9,0-1.6,0.7-1.6,1.6s0.7,1.6,1.6,1.6c0.9,0,1.6-0.7,1.6-1.6S1020.9,432.3,1020,432.3z"/>
  <circle class="dot" cx="990.5" cy="441.1" r="1.5"/>
  <circle class="dot" cx="960.9" cy="447.6" r="1.5"/>
  <path class="dot" d="M931.1,451.8c-0.9,0-1.5,0.7-1.5,1.5c0,0.9,0.7,1.5,1.5,1.5c0.9,0,1.5-0.7,1.5-1.5S931.9,451.8,931.1,451.8z"/>
  <circle class="dot" cx="901.1" cy="458.4" r="1.4"/>
  <path class="dot" d="M871.1,461.2c-0.8,0-1.4,0.6-1.4,1.4s0.6,1.4,1.4,1.4c0.8,0,1.4-0.6,1.4-1.4
    C872.5,461.9,871.9,461.2,871.1,461.2z M840.9,464.7c-0.8,0-1.5,0.7-1.5,1.5s0.7,1.5,1.5,1.5s1.5-0.7,1.5-1.5
    S841.7,464.7,840.9,464.7z"/>
  <circle class="dot" cx="810.7" cy="469" r="1.5"/>
  <circle class="dot" cx="780.4" cy="471.1" r="1.5"/>
  <circle class="dot" cx="750.1" cy="472.4" r="1.5"/>
  <circle class="dot" cx="719.8" cy="472.9" r="1.5"/>
  <path class="dot" d="M689.4,471.3c-0.8,0-1.5,0.7-1.5,1.5s0.7,1.5,1.5,1.5s1.5-0.7,1.5-1.5C690.9,471.9,690.2,471.3,689.4,471.3z"/>
  <circle class="dot" cx="659.1" cy="471.8" r="1.5"/>
  <path class="dot" d="M628.8,468.6c-0.8,0-1.5,0.7-1.5,1.5s0.7,1.5,1.5,1.5s1.5-0.7,1.5-1.5C630.2,469.3,629.6,468.6,628.8,468.6z"/>
  <circle class="dot" cx="598.5" cy="467.7" r="1.5"/>
  <circle class="dot" cx="568.3" cy="464.5" r="1.5"/>
  <path class="dot" d="M538.2,459.2c-0.8,0-1.4,0.6-1.4,1.4s0.6,1.4,1.4,1.4c0.8,0,1.4-0.6,1.4-1.4S539,459.2,538.2,459.2z
    M508.2,454.3c-0.9,0-1.6,0.7-1.6,1.6s0.7,1.6,1.6,1.6s1.6-0.7,1.6-1.6C509.8,455.1,509.1,454.3,508.2,454.3z"/>
  <circle class="dot" cx="478.4" cy="450.6" r="1.5"/>
  <circle class="dot" cx="448.6" cy="444.4" r="1.5"/>
  <path class="dot" d="M419.1,436.1c-0.8,0-1.5,0.7-1.5,1.5s0.7,1.5,1.5,1.5s1.5-0.7,1.5-1.5C420.5,436.8,419.9,436.1,419.1,436.1z"/>
  <circle class="dot" cx="389.7" cy="430" r="1.7"/>
  <path class="dot" d="M360.5,420.1c-0.9,0-1.6,0.7-1.6,1.6s0.7,1.6,1.6,1.6s1.6-0.7,1.6-1.6S361.4,420.1,360.5,420.1z M331.5,411
    c-0.9,0-1.6,0.7-1.6,1.6s0.7,1.6,1.6,1.6s1.6-0.7,1.6-1.6C333.1,411.8,332.4,411,331.5,411z"/>
  <circle class="dot" cx="302.8" cy="402.9" r="1.7"/>
  <circle class="dot" cx="274.3" cy="392.5" r="1.7"/>
  <path class="dot" d="M246,379.5c-1,0-1.8,0.8-1.8,1.8s0.8,1.8,1.8,1.8s1.8-0.8,1.8-1.8S247,379.5,246,379.5z"/>
  <circle class="dot" cx="218.1" cy="369.5" r="1.8"/>
  <path class="dot" d="M190.4,355.1c-1,0-1.9,0.8-1.9,1.9c0,1,0.8,1.9,1.9,1.9c1,0,1.9-0.8,1.9-1.9C192.3,356,191.5,355.1,190.4,355.1
    z M163.1,342c-1,0-1.8,0.8-1.8,1.8s0.8,1.8,1.8,1.8s1.8-0.8,1.8-1.8S164.1,342,163.1,342z"/>
  <circle class="dot" cx="136.1" cy="329.9" r="1.9"/>
  <circle class="dot" cx="109.4" cy="315.4" r="1.9"/>
  <path class="dot" d="M83.2,298.2c-1.1,0-2,0.9-2,2s0.9,2,2,2s2-0.9,2-2S84.3,298.2,83.2,298.2z"/>
  <circle class="dot" cx="57.2" cy="284.4" r="2.1"/>
  <path class="dot" d="M33.8,268c0-1.1-0.9-2-2-2s-2,0.9-2,2s0.9,2,2,2C32.9,270,33.8,269.1,33.8,268z"/>
  <circle class="dot" cx="6.6" cy="250.9" r="2.1"/>
  <path class="dot" d="M1427.5,274.8c0-1-0.8-1.9-1.9-1.9c-1,0-1.9,0.8-1.9,1.9s0.8,1.9,1.9,1.9
    C1426.7,276.6,1427.5,275.8,1427.5,274.8z M1400.5,289.9c-1,0-1.8,0.8-1.8,1.8s0.8,1.8,1.8,1.8s1.8-0.8,1.8-1.8
    S1401.5,289.9,1400.5,289.9z"/>
  <circle class="dot" cx="1374.9" cy="308" r="1.9"/>
  <path class="dot" d="M1348.9,321.9c-1,0-1.8,0.8-1.8,1.8s0.8,1.8,1.8,1.8s1.8-0.8,1.8-1.8S1349.9,321.9,1348.9,321.9z"/>
  <circle class="dot" cx="1322.6" cy="338.8" r="1.7"/>
  <circle class="dot" cx="1295.9" cy="353.2" r="1.7"/>
  <path class="dot" d="M1268.8,365.4c-0.9,0-1.6,0.7-1.6,1.6s0.7,1.6,1.6,1.6s1.6-0.7,1.6-1.6S1269.7,365.4,1268.8,365.4z"/>
  <circle class="dot" cx="1241.4" cy="380.1" r="1.7"/>
  <circle class="dot" cx="1213.8" cy="392.6" r="1.5"/>
  <circle class="dot" cx="1185.8" cy="404.4" r="1.6"/>
  <circle class="dot" cx="1157.5" cy="415.5" r="1.5"/>
  <circle class="dot" cx="1129" cy="425.9" r="1.5"/>
  <circle class="dot" cx="1100.3" cy="435.6" r="1.3"/>
  <path class="dot" d="M1071.3,443.2c-0.8,0-1.4,0.6-1.4,1.4s0.6,1.4,1.4,1.4s1.4-0.6,1.4-1.4C1072.7,443.9,1072.1,443.2,1071.3,443.2
    z"/>
  <circle class="dot" cx="1042.1" cy="453" r="1.5"/>
  <circle class="dot" cx="1012.7" cy="460.6" r="1.3"/>
  <path class="dot" d="M983.2,466.2c-0.7,0-1.3,0.6-1.3,1.3c0,0.7,0.6,1.3,1.3,1.3s1.3-0.6,1.3-1.3
    C984.5,466.8,983.9,466.2,983.2,466.2z"/>
  <circle class="dot" cx="953.5" cy="473.7" r="1.3"/>
  <circle class="dot" cx="923.6" cy="479.2" r="1.3"/>
  <path class="dot" d="M893.6,482.7c-0.7,0-1.2,0.5-1.2,1.2s0.5,1.2,1.2,1.2s1.2-0.5,1.2-1.2C894.8,483.3,894.3,482.7,893.6,482.7z"/>
  <circle class="dot" cx="863.6" cy="487.9" r="1.2"/>
  <path class="dot" d="M833.4,490c-0.7,0-1.2,0.5-1.2,1.2s0.5,1.2,1.2,1.2s1.2-0.5,1.2-1.2C834.6,490.6,834.1,490,833.4,490z"/>
  <circle class="dot" cx="803.1" cy="493.8" r="1.3"/>
  <path class="dot" d="M772.8,494.4c-0.7,0-1.3,0.6-1.3,1.3c0,0.7,0.6,1.3,1.3,1.3s1.3-0.6,1.3-1.3
    C774.1,494.9,773.5,494.4,772.8,494.4z M742.5,495.5c-0.7,0-1.3,0.6-1.3,1.3c0,0.7,0.6,1.3,1.3,1.3s1.3-0.6,1.3-1.3
    C743.8,496,743.2,495.5,742.5,495.5z"/>
  <circle class="dot" cx="712.2" cy="497.1" r="1.3"/>
  <circle class="dot" cx="681.8" cy="496.7" r="1.3"/>
  <circle class="dot" cx="651.5" cy="495.6" r="1.3"/>
  <circle class="dot" cx="621.2" cy="493.8" r="1.3"/>
  <circle class="dot" cx="590.9" cy="491.2" r="1.3"/>
  <path class="dot" d="M560.8,486.7c-0.7,0-1.2,0.5-1.2,1.2s0.5,1.2,1.2,1.2s1.2-0.5,1.2-1.2C562,487.3,561.4,486.7,560.8,486.7z
    M530.7,482.7c-0.7,0-1.2,0.5-1.2,1.2s0.5,1.2,1.2,1.2s1.2-0.5,1.2-1.2C531.9,483.3,531.4,482.7,530.7,482.7z M500.7,477.8
    c-0.8,0-1.4,0.6-1.4,1.4s0.6,1.4,1.4,1.4s1.4-0.6,1.4-1.4S501.5,477.8,500.7,477.8z"/>
  <circle class="dot" cx="470.9" cy="473.7" r="1.3"/>
  <circle class="dot" cx="441.1" cy="467.5" r="1.3"/>
  <circle class="dot" cx="411.6" cy="460.6" r="1.3"/>
  <circle class="dot" cx="382.2" cy="453" r="1.5"/>
  <path class="dot" d="M353,443.2c-0.8,0-1.5,0.7-1.5,1.5s0.7,1.5,1.5,1.5s1.5-0.7,1.5-1.5C354.5,443.8,353.8,443.2,353,443.2z
    M324,434.2c-0.8,0-1.4,0.6-1.4,1.4s0.6,1.4,1.4,1.4s1.4-0.6,1.4-1.4S324.8,434.2,324,434.2z"/>
  <circle class="dot" cx="295.3" cy="425.9" r="1.5"/>
  <circle class="dot" cx="266.8" cy="415.5" r="1.5"/>
  <path class="dot" d="M238.5,402.8c-0.9,0-1.6,0.7-1.6,1.6s0.7,1.6,1.6,1.6c0.9,0,1.6-0.7,1.6-1.6S239.4,402.8,238.5,402.8z
    M210.6,391c-0.9,0-1.6,0.7-1.6,1.6s0.7,1.6,1.6,1.6c0.9,0,1.6-0.7,1.6-1.6S211.5,391,210.6,391z"/>
  <circle class="dot" cx="182.9" cy="380.1" r="1.7"/>
  <circle class="dot" cx="155.5" cy="367" r="1.7"/>
  <path class="dot" d="M128.5,351.4c-1,0-1.8,0.8-1.8,1.8s0.8,1.8,1.8,1.8s1.8-0.8,1.8-1.8S129.5,351.4,128.5,351.4z"/>
  <circle class="dot" cx="101.8" cy="338.8" r="1.7"/>
  <path class="dot" d="M75.4,321.9c-1,0-1.8,0.8-1.8,1.8s0.8,1.8,1.8,1.8s1.8-0.8,1.8-1.8S76.4,321.9,75.4,321.9z"/>
  <circle class="dot" cx="49.5" cy="308" r="1.9"/>
  <circle class="dot" cx="23.9" cy="291.7" r="1.9"/>
  <circle class="dot" cx="-1.3" cy="274.8" r="1.9"/>
  <path class="dot" d="M1421,305.3c-1,0-1.8,0.8-1.8,1.8s0.8,1.8,1.8,1.8s1.8-0.8,1.8-1.8S1422,305.3,1421,305.3z"/>
  <circle class="dot" cx="1395.5" cy="323.6" r="1.7"/>
  <path class="dot" d="M1369.7,337.9c-0.9,0-1.6,0.7-1.6,1.6s0.7,1.6,1.6,1.6s1.6-0.7,1.6-1.6S1370.6,337.9,1369.7,337.9z
    M1343.4,353.2c-0.9,0-1.6,0.7-1.6,1.6s0.7,1.6,1.6,1.6s1.6-0.7,1.6-1.6S1344.3,353.2,1343.4,353.2z"/>
  <circle class="dot" cx="1316.9" cy="369.4" r="1.5"/>
  <path class="dot" d="M1289.9,381.8c-0.9,0-1.6,0.7-1.6,1.6s0.7,1.6,1.6,1.6s1.6-0.7,1.6-1.6C1291.6,382.6,1290.8,381.8,1289.9,381.8
    z"/>
  <circle class="dot" cx="1262.7" cy="396.8" r="1.5"/>
  <circle class="dot" cx="1235.1" cy="409.6" r="1.5"/>
  <path class="dot" d="M1207.3,420.3c-0.7,0-1.3,0.6-1.3,1.3c0,0.7,0.6,1.3,1.3,1.3c0.7,0,1.3-0.6,1.3-1.3
    C1208.6,420.9,1208,420.3,1207.3,420.3z"/>
  <circle class="dot" cx="1179.2" cy="433" r="1.5"/>
  <circle class="dot" cx="1150.8" cy="443.8" r="1.3"/>
  <circle class="dot" cx="1122.1" cy="453.8" r="1.3"/>
  <path class="dot" d="M1094.5,463.2c0-0.7-0.5-1.2-1.2-1.2s-1.2,0.5-1.2,1.2s0.5,1.2,1.2,1.2C1093.9,464.4,1094.5,463.9,1094.5,463.2
    z"/>
  <circle class="dot" cx="1064.2" cy="471.9" r="1.2"/>
  <circle class="dot" cx="1034.9" cy="479.9" r="1.3"/>
  <circle class="dot" cx="1005.5" cy="487.2" r="1.1"/>
  <circle class="dot" cx="975.8" cy="493.8" r="1.1"/>
  <circle class="dot" cx="946.1" cy="499.7" r="1.1"/>
  <path class="dot" d="M916.2,503.7c-0.7,0-1.2,0.5-1.2,1.2s0.5,1.2,1.2,1.2s1.2-0.5,1.2-1.2S916.8,503.7,916.2,503.7z M886.1,508.4
    c-0.6,0-1,0.4-1,1s0.4,1,1,1s1-0.4,1-1S886.7,508.4,886.1,508.4z"/>
  <path class="dot" d="M856,512c0.6,0,1.1,0.5,1.1,1.1s-0.5,1.1-1.1,1.1s-1.1-0.5-1.1-1.1S855.4,512,856,512z"/>
  <path class="dot" d="M825.8,515.1c-0.6,0-1.1,0.5-1.1,1.1s0.5,1.1,1.1,1.1s1.1-0.5,1.1-1.1S826.4,515.1,825.8,515.1z"/>
  <circle class="dot" cx="795.6" cy="518.5" r="1.1"/>
  <circle class="dot" cx="765.2" cy="520.1" r="1.1"/>
  <path class="dot" d="M734.9,519.9c-0.6,0-1.1,0.5-1.1,1.1s0.5,1.1,1.1,1.1s1.1-0.5,1.1-1.1C736.1,520.4,735.5,519.9,734.9,519.9z"/>
  <circle class="dot" cx="704.6" cy="521.2" r="1.1"/>
  <circle class="dot" cx="674.2" cy="520.7" r="1.1"/>
  <path class="dot" d="M643.9,518.3c-0.6,0-1.1,0.5-1.1,1.1s0.5,1.1,1.1,1.1s1.1-0.5,1.1-1.1S644.5,518.3,643.9,518.3z"/>
  <circle class="dot" cx="613.6" cy="517.5" r="1.1"/>
  <circle class="dot" cx="583.4" cy="514.8" r="1.1"/>
  <path class="dot" d="M553.2,510.2c0.6,0,1.1,0.5,1.1,1.1s-0.5,1.1-1.1,1.1s-1.1-0.5-1.1-1.1S552.6,510.2,553.2,510.2z"/>
  <circle class="dot" cx="523.1" cy="507.2" r="1"/>
  <path class="dot" d="M493.2,501.2c-0.7,0-1.2,0.5-1.2,1.2s0.5,1.2,1.2,1.2s1.2-0.5,1.2-1.2S493.8,501.2,493.2,501.2z"/>
  <circle class="dot" cx="463.3" cy="496.8" r="1.2"/>
  <circle class="dot" cx="433.6" cy="490.6" r="1.1"/>
  <circle class="dot" cx="404.1" cy="483.6" r="1.1"/>
  <path class="dot" d="M374.7,474.7c-0.7,0-1.3,0.6-1.3,1.3c0,0.7,0.6,1.3,1.3,1.3c0.7,0,1.3-0.6,1.3-1.3
    C376,475.3,375.4,474.7,374.7,474.7z M345.5,466.4c-0.7,0-1.2,0.5-1.2,1.2s0.5,1.2,1.2,1.2s1.2-0.5,1.2-1.2
    C346.7,467,346.2,466.4,345.5,466.4z"/>
  <circle class="dot" cx="316.6" cy="458.6" r="1.2"/>
  <path class="dot" d="M287.8,447.5c-0.7,0-1.3,0.6-1.3,1.3c0,0.7,0.6,1.3,1.3,1.3c0.7,0,1.3-0.6,1.3-1.3
    C289.1,448.1,288.5,447.5,287.8,447.5z M259.3,437.2c-0.7,0-1.3,0.6-1.3,1.3s0.6,1.3,1.3,1.3c0.7,0,1.3-0.6,1.3-1.3
    S260,437.2,259.3,437.2z"/>
  <circle class="dot" cx="231" cy="427.4" r="1.5"/>
  <circle class="dot" cx="203" cy="415.7" r="1.4"/>
  <circle class="dot" cx="175.3" cy="403.3" r="1.5"/>
  <circle class="dot" cx="147.9" cy="390.2" r="1.5"/>
  <path class="dot" d="M120.9,374.9c-0.9,0-1.6,0.7-1.6,1.6s0.7,1.6,1.6,1.6s1.6-0.7,1.6-1.6S121.7,374.9,120.9,374.9z"/>
  <circle class="dot" cx="94.1" cy="362.2" r="1.5"/>
  <path class="dot" d="M67.7,345.6c-0.9,0-1.6,0.7-1.6,1.6s0.7,1.6,1.6,1.6s1.6-0.7,1.6-1.6S68.6,345.6,67.7,345.6z M41.7,329.9
    c-1,0-1.7,0.8-1.7,1.7s0.8,1.7,1.7,1.7c1,0,1.7-0.8,1.7-1.7S42.6,329.9,41.7,329.9z"/>
  <ellipse transform="matrix(0.9999 -1.020252e-02 1.020252e-02 0.9999 -3.217 0.1797)" class="dot" cx="16" cy="315.4" rx="1.7" ry="1.7"/>
  <circle class="dot" cx="1441.5" cy="322.4" r="1.5"/>
  <circle class="dot" cx="1416.2" cy="339.1" r="1.5"/>
  <circle class="dot" cx="1390.4" cy="355.2" r="1.5"/>
  <circle class="dot" cx="1364.3" cy="370.7" r="1.4"/>
  <circle class="dot" cx="1337.9" cy="385.5" r="1.5"/>
  <path class="dot" d="M1311.1,398.4c-0.7,0-1.3,0.6-1.3,1.3c0,0.7,0.6,1.3,1.3,1.3c0.7,0,1.3-0.6,1.3-1.3
    C1312.4,399,1311.8,398.4,1311.1,398.4z"/>
  <circle class="dot" cx="1283.9" cy="413.4" r="1.2"/>
  <path class="dot" d="M1256.5,425.1c-0.7,0-1.3,0.6-1.3,1.3c0,0.7,0.6,1.3,1.3,1.3c0.7,0,1.3-0.6,1.3-1.3
    C1257.8,425.7,1257.2,425.1,1256.5,425.1z"/>
  <circle class="dot" cx="1228.8" cy="438.7" r="1.2"/>
  <path class="dot" d="M1200.8,449.2c-0.7,0-1.2,0.5-1.2,1.2s0.5,1.2,1.2,1.2s1.2-0.5,1.2-1.2C1202,449.8,1201.4,449.2,1200.8,449.2z"
    />
  <circle class="dot" cx="1172.5" cy="461.5" r="1.1"/>
  <path class="dot" d="M1145.1,471.9c0-0.6-0.5-1.1-1.1-1.1s-1.1,0.5-1.1,1.1s0.5,1.1,1.1,1.1S1145.1,472.5,1145.1,471.9z
    M1116.4,481.6c0-0.6-0.5-1.1-1.1-1.1s-1.1,0.5-1.1,1.1s0.5,1.1,1.1,1.1C1115.8,482.7,1116.4,482.2,1116.4,481.6z M1086.2,489.6
    c-0.6,0-1,0.4-1,1s0.4,1,1,1s1-0.4,1-1C1087.2,490.1,1086.8,489.6,1086.2,489.6z"/>
  <circle class="dot" cx="1057.1" cy="499" r="1.1"/>
  <circle class="dot" cx="1027.7" cy="506.7" r="0.9"/>
  <circle class="dot" cx="998.2" cy="513.7" r="0.9"/>
  <circle class="dot" cx="968.5" cy="520" r="1"/>
  <circle class="dot" cx="938.7" cy="525.6" r="1"/>
  <path class="dot" d="M908.7,529.5c-0.6,0-1,0.5-1,1c0,0.6,0.4,1,1,1s1-0.4,1-1C909.7,530,909.3,529.5,908.7,529.5z"/>
  <circle class="dot" cx="878.6" cy="534.7" r="0.9"/>
  <circle class="dot" cx="848.5" cy="538.3" r="0.9"/>
  <circle class="dot" cx="818.3" cy="541.1" r="0.9"/>
  <path class="dot" d="M788,542.3c-0.5,0-0.9,0.4-0.9,0.9s0.4,0.9,0.9,0.9s0.9-0.4,0.9-0.9S788.5,542.3,788,542.3z"/>
  <circle class="dot" cx="757.7" cy="544.6" r="0.9"/>
  <circle class="dot" cx="727.3" cy="545.3" r="0.9"/>
  <circle class="dot" cx="697" cy="545.3" r="0.9"/>
  <circle class="dot" cx="666.6" cy="544.6" r="0.9"/>
  <circle class="dot" cx="636.3" cy="543.2" r="0.9"/>
  <circle class="dot" cx="606" cy="541.1" r="0.9"/>
  <circle class="dot" cx="575.8" cy="538.3" r="0.9"/>
  <path class="dot" d="M545.7,533.9c-0.5,0-0.9,0.4-0.9,0.9s0.4,0.9,0.9,0.9s0.9-0.4,0.9-0.9C546.5,534.3,546.2,533.9,545.7,533.9z"/>
  <circle class="dot" cx="515.6" cy="530.5" r="1"/>
  <circle class="dot" cx="485.7" cy="525.6" r="1"/>
  <circle class="dot" cx="455.8" cy="520" r="1"/>
  <path class="dot" d="M426.2,512.7c-0.6,0-1,0.4-1,1s0.5,1,1,1c0.6,0,1-0.5,1-1C427.2,513.1,426.7,512.7,426.2,512.7z M396.6,505.7
    c-0.5,0-0.9,0.4-0.9,0.9s0.4,0.9,0.9,0.9s0.9-0.4,0.9-0.9C397.6,506.1,397.1,505.7,396.6,505.7z"/>
  <circle class="dot" cx="367.3" cy="499" r="1.1"/>
  <path class="dot" d="M338.1,489.5c-0.6,0-1.1,0.5-1.1,1.1s0.5,1.1,1.1,1.1s1.1-0.5,1.1-1.1S338.7,489.5,338.1,489.5z M309.1,480.4
    c-0.7,0-1.2,0.5-1.2,1.2s0.5,1.2,1.2,1.2s1.2-0.5,1.2-1.2S309.8,480.4,309.1,480.4z M280.4,470.7c-0.6,0-1.1,0.5-1.1,1.1
    s0.5,1.1,1.1,1.1s1.1-0.5,1.1-1.1S281,470.7,280.4,470.7z M251.8,460.3c-0.6,0-1.1,0.5-1.1,1.1s0.5,1.1,1.1,1.1s1.1-0.5,1.1-1.1
    C253,460.8,252.5,460.3,251.8,460.3z"/>
  <circle class="dot" cx="223.6" cy="450.4" r="1.3"/>
  <circle class="dot" cx="195.6" cy="438.7" r="1.2"/>
  <circle class="dot" cx="167.8" cy="426.4" r="1.3"/>
  <circle class="dot" cx="140.4" cy="413.4" r="1.3"/>
  <circle class="dot" cx="113.3" cy="399.8" r="1.3"/>
  <circle class="dot" cx="86.5" cy="385.5" r="1.5"/>
  <circle class="dot" cx="60" cy="370.7" r="1.5"/>
  <path class="dot" d="M33.9,353.6c-0.9,0-1.6,0.7-1.6,1.6s0.7,1.6,1.6,1.6c0.9,0,1.6-0.7,1.6-1.6S34.8,353.6,33.9,353.6z"/>
  <circle class="dot" cx="8.2" cy="339.1" r="1.5"/>
  <path class="dot" d="M1436.8,353.1c-0.8,0-1.4,0.6-1.4,1.4s0.6,1.4,1.4,1.4s1.4-0.6,1.4-1.4C1438.2,353.8,1437.5,353.1,1436.8,353.1
    z"/>
  <circle class="dot" cx="1411.1" cy="370.8" r="1.3"/>
  <path class="dot" d="M1385.1,385.3c-0.7,0-1.2,0.5-1.2,1.2s0.5,1.2,1.2,1.2s1.2-0.5,1.2-1.2S1385.8,385.3,1385.1,385.3z
    M1358.8,400.4c-0.7,0-1.2,0.5-1.2,1.2s0.5,1.2,1.2,1.2s1.2-0.5,1.2-1.2S1359.5,400.4,1358.8,400.4z"/>
  <circle class="dot" cx="1332.1" cy="416" r="1.1"/>
  <circle class="dot" cx="1305.1" cy="429.9" r="1.1"/>
  <circle class="dot" cx="1277.8" cy="443.1" r="1.1"/>
  <circle class="dot" cx="1250.2" cy="455.7" r="1.1"/>
  <path class="dot" d="M1222.3,466.7c-0.6,0-1,0.4-1,1s0.4,1,1,1s1-0.5,1-1S1222.9,466.7,1222.3,466.7z"/>
  <circle class="dot" cx="1194.1" cy="479" r="1.1"/>
  <circle class="dot" cx="1165.7" cy="489.7" r="0.9"/>
  <circle class="dot" cx="1137.1" cy="499.8" r="0.9"/>
  <circle class="dot" cx="1108.2" cy="509.1" r="0.9"/>
  <path class="dot" d="M1079.2,517c-0.5,0-0.9,0.4-0.9,0.9s0.4,0.9,0.9,0.9s0.9-0.4,0.9-0.9C1080,517.4,1079.6,517,1079.2,517z"/>
  <circle class="dot" cx="1049.9" cy="525.9" r="0.9"/>
  <circle class="dot" cx="1020.4" cy="533.3" r="0.7"/>
  <circle class="dot" cx="990.8" cy="540" r="0.7"/>
  <circle class="dot" cx="961.1" cy="546" r="0.8"/>
  <path class="dot" d="M931.2,550.6c-0.4,0-0.8,0.4-0.8,0.8s0.4,0.8,0.8,0.8s0.8-0.4,0.8-0.8C932,550.9,931.7,550.6,931.2,550.6z"/>
  <circle class="dot" cx="901.2" cy="556" r="0.7"/>
  <circle class="dot" cx="871.1" cy="560" r="0.7"/>
  <circle class="dot" cx="841" cy="563.3" r="0.7"/>
  <circle class="dot" cx="810.7" cy="565.9" r="0.7"/>
  <path class="dot" d="M780.4,567.1c-0.4,0-0.7,0.3-0.7,0.7s0.3,0.7,0.7,0.7s0.7-0.3,0.7-0.7C781.2,567.4,780.8,567.1,780.4,567.1z
    M750.1,568.3c-0.4,0-0.7,0.3-0.7,0.7s0.3,0.7,0.7,0.7s0.7-0.3,0.7-0.7S750.5,568.3,750.1,568.3z M719.8,568.8
    c-0.4,0-0.7,0.3-0.7,0.7s0.3,0.7,0.7,0.7s0.7-0.3,0.7-0.7S720.2,568.8,719.8,568.8z"/>
  <circle class="dot" cx="689.4" cy="569.4" r="0.7"/>
  <circle class="dot" cx="659.1" cy="568.5" r="0.7"/>
  <circle class="dot" cx="628.8" cy="566.9" r="0.7"/>
  <path class="dot" d="M598.5,563.9c-0.4,0-0.7,0.3-0.7,0.7s0.3,0.7,0.7,0.7s0.7-0.3,0.7-0.7C599.2,564.3,598.9,563.9,598.5,563.9z"/>
  <circle class="dot" cx="568.3" cy="561.7" r="0.7"/>
  <circle class="dot" cx="538.1" cy="558.1" r="0.7"/>
  <circle class="dot" cx="508.1" cy="553.8" r="0.9"/>
  <circle class="dot" cx="478.2" cy="548.8" r="0.8"/>
  <circle class="dot" cx="448.3" cy="543.1" r="0.8"/>
  <circle class="dot" cx="418.7" cy="536.7" r="0.7"/>
  <circle class="dot" cx="389.1" cy="529.7" r="0.9"/>
  <circle class="dot" cx="359.8" cy="522" r="0.9"/>
  <path class="dot" d="M330.6,512.7c-0.5,0-0.9,0.4-0.9,0.9s0.4,0.9,0.9,0.9s0.9-0.4,0.9-0.9S331.1,512.7,330.6,512.7z"/>
  <circle class="dot" cx="301.7" cy="504.5" r="1"/>
  <path class="dot" d="M272.9,493.8c-0.6,0-1,0.4-1,1s0.4,1,1,1s1-0.4,1-1C273.9,494.3,273.4,493.8,272.9,493.8z"/>
  <circle class="dot" cx="244.4" cy="484.5" r="0.9"/>
  <circle class="dot" cx="216.1" cy="473.5" r="1.1"/>
  <path class="dot" d="M188.1,460.8c-0.6,0-1,0.5-1,1c0,0.6,0.4,1,1,1s1-0.4,1-1S188.6,460.8,188.1,460.8z"/>
  <circle class="dot" cx="160.3" cy="449.5" r="1.1"/>
  <circle class="dot" cx="132.8" cy="436.6" r="1.1"/>
  <path class="dot" d="M105.7,421.8c-0.7,0-1.2,0.5-1.2,1.2s0.5,1.2,1.2,1.2s1.2-0.5,1.2-1.2C106.9,422.4,106.3,421.8,105.7,421.8z"/>
  <circle class="dot" cx="78.8" cy="408.9" r="1.3"/>
  <circle class="dot" cx="52.3" cy="394.1" r="1.3"/>
  <path class="dot" d="M26.2,377.3c-0.8,0-1.4,0.6-1.4,1.4s0.6,1.4,1.4,1.4s1.4-0.6,1.4-1.4S26.9,377.3,26.2,377.3z"/>
  <circle class="dot" cx="0.3" cy="362.8" r="1.3"/>
  <path class="dot" d="M1431.8,385.3c-0.6,0-1.1,0.5-1.1,1.1s0.5,1.1,1.1,1.1s1.1-0.5,1.1-1.1S1432.4,385.3,1431.8,385.3z"/>
  <circle class="dot" cx="1405.9" cy="402.3" r="1.1"/>
  <path class="dot" d="M1379.7,416.5c-0.6,0-1,0.4-1,1s0.5,1,1,1c0.6,0,1-0.5,1-1S1380.2,416.5,1379.7,416.5z"/>
  <circle class="dot" cx="1353.1" cy="432.2" r="1.1"/>
  <path class="dot" d="M1326.2,445.3c-0.6,0-1,0.5-1,1c0,0.6,0.4,1,1,1s1-0.4,1-1S1326.8,445.3,1326.2,445.3z"/>
  <circle class="dot" cx="1299" cy="459.8" r="0.9"/>
  <circle class="dot" cx="1271.5" cy="472.6" r="0.9"/>
  <circle class="dot" cx="1243.8" cy="484.9" r="0.7"/>
  <circle class="dot" cx="1215.7" cy="496.5" r="0.8"/>
  <circle class="dot" cx="1187.4" cy="507.5" r="0.7"/>
  <circle class="dot" cx="1158.9" cy="517.8" r="0.7"/>
  <path class="dot" d="M1130.1,526.7c-0.4,0-0.8,0.4-0.8,0.8s0.4,0.8,0.8,0.8s0.8-0.4,0.8-0.8S1130.6,526.7,1130.1,526.7z"/>
  <circle class="dot" cx="1101.2" cy="536.6" r="0.7"/>
  <circle class="dot" cx="1072" cy="545" r="0.7"/>
  <circle class="dot" cx="1042.7" cy="552.7" r="0.7"/>
  <circle class="dot" cx="1013.2" cy="559.8" r="0.6"/>
  <circle class="dot" cx="983.5" cy="566.2" r="0.6"/>
  <path class="dot" d="M953.7,571.3c-0.4,0-0.7,0.3-0.7,0.7s0.3,0.7,0.7,0.7s0.7-0.3,0.7-0.7S954,571.3,953.7,571.3z M923.8,576.4
    c-0.4,0-0.7,0.3-0.7,0.7s0.3,0.7,0.7,0.7s0.7-0.3,0.7-0.7C924.4,576.7,924.1,576.4,923.8,576.4z M893.7,581c-0.3,0-0.5,0.2-0.5,0.5
    s0.2,0.5,0.5,0.5s0.5-0.2,0.5-0.5S894,581,893.7,581z"/>
  <circle class="dot" cx="863.6" cy="585.2" r="0.5"/>
  <path class="dot" d="M833.4,587.7c-0.3,0-0.5,0.2-0.5,0.5s0.2,0.5,0.5,0.5s0.5-0.2,0.5-0.5C833.9,588,833.7,587.7,833.4,587.7z"/>
  <circle class="dot" cx="803.2" cy="590.6" r="0.5"/>
  <circle class="dot" cx="772.8" cy="592.4" r="0.5"/>
  <circle class="dot" cx="742.5" cy="593.4" r="0.5"/>
  <path class="dot" d="M712.2,593.2c-0.3,0-0.5,0.2-0.5,0.5s0.2,0.5,0.5,0.5s0.5-0.2,0.5-0.5S712.5,593.2,712.2,593.2z"/>
  <circle class="dot" cx="681.8" cy="593.4" r="0.5"/>
  <path class="dot" d="M651.5,591.8c-0.3,0-0.5,0.2-0.5,0.5s0.2,0.5,0.5,0.5s0.5-0.2,0.5-0.5C652,592.1,651.8,591.8,651.5,591.8z"/>
  <circle class="dot" cx="621.2" cy="590.6" r="0.5"/>
  <circle class="dot" cx="590.9" cy="588.3" r="0.5"/>
  <circle class="dot" cx="560.7" cy="585.2" r="0.5"/>
  <circle class="dot" cx="530.6" cy="581.5" r="0.5"/>
  <circle class="dot" cx="500.6" cy="577.1" r="0.7"/>
  <circle class="dot" cx="470.6" cy="572" r="0.7"/>
  <circle class="dot" cx="440.8" cy="566.2" r="0.7"/>
  <circle class="dot" cx="411.2" cy="559.8" r="0.6"/>
  <circle class="dot" cx="381.7" cy="552.7" r="0.7"/>
  <circle class="dot" cx="352.3" cy="545" r="0.7"/>
  <path class="dot" d="M323.2,535.9c-0.4,0-0.7,0.3-0.7,0.7s0.3,0.7,0.7,0.7c0.4,0,0.7-0.3,0.7-0.7
    C323.8,536.2,323.5,535.9,323.2,535.9z"/>
  <circle class="dot" cx="294.2" cy="527.5" r="0.9"/>
  <circle class="dot" cx="265.4" cy="517.8" r="0.8"/>
  <path class="dot" d="M236.9,506.7c-0.4,0-0.7,0.3-0.7,0.7c0,0.4,0.3,0.7,0.7,0.7s0.7-0.3,0.7-0.7
    C237.6,507.1,237.3,506.7,236.9,506.7z"/>
  <circle class="dot" cx="208.6" cy="496.5" r="0.9"/>
  <circle class="dot" cx="180.6" cy="484.9" r="0.8"/>
  <circle class="dot" cx="152.8" cy="472.6" r="1"/>
  <circle class="dot" cx="125.3" cy="459.8" r="0.9"/>
  <circle class="dot" cx="98.1" cy="446.3" r="1"/>
  <path class="dot" d="M71.2,431.1c-0.6,0-1.1,0.5-1.1,1.1s0.5,1.1,1.1,1.1s1.1-0.5,1.1-1.1S71.8,431.1,71.2,431.1z"/>
  <circle class="dot" cx="44.6" cy="417.5" r="1.1"/>
  <path class="dot" d="M18.4,401c-0.7,0-1.2,0.5-1.2,1.2s0.5,1.2,1.2,1.2s1.2-0.5,1.2-1.2C19.6,401.6,19.1,401,18.4,401z"/>
  <circle class="dot" cx="1426.7" cy="418" r="0.9"/>
  <circle class="dot" cx="1400.5" cy="433.4" r="0.9"/>
  <circle class="dot" cx="1374.1" cy="448.3" r="0.9"/>
  <path class="dot" d="M1347.3,461.9c-0.4,0-0.7,0.3-0.7,0.7s0.3,0.7,0.7,0.7c0.4,0,0.7-0.3,0.7-0.7S1347.7,461.9,1347.3,461.9z"/>
  <circle class="dot" cx="1320.2" cy="476.3" r="0.8"/>
  <path class="dot" d="M1292.9,488.7c-0.4,0-0.7,0.3-0.7,0.7c0,0.4,0.3,0.7,0.7,0.7c0.4,0,0.7-0.3,0.7-0.7
    C1293.5,489,1293.2,488.7,1292.9,488.7z M1265.2,501.2c-0.4,0-0.7,0.3-0.7,0.7c0,0.4,0.3,0.7,0.7,0.7c0.4,0,0.7-0.3,0.7-0.7
    C1265.9,501.5,1265.6,501.2,1265.2,501.2z"/>
  <circle class="dot" cx="1237.3" cy="513.8" r="0.6"/>
  <circle class="dot" cx="1209.1" cy="525.1" r="0.7"/>
  <circle class="dot" cx="1180.7" cy="535.7" r="0.5"/>
  <circle class="dot" cx="1152" cy="545.7" r="0.6"/>
  <circle class="dot" cx="1123.1" cy="555.1" r="0.4"/>
  <path class="dot" d="M1094.1,563.4c-0.3,0-0.5,0.2-0.5,0.5s0.2,0.5,0.5,0.5s0.5-0.2,0.5-0.5S1094.3,563.4,1094.1,563.4z"/>
  <circle class="dot" cx="1064.8" cy="571.9" r="0.5"/>
  <path class="dot" d="M1035.4,579c-0.2,0-0.4,0.2-0.4,0.4s0.2,0.4,0.4,0.4s0.4-0.2,0.4-0.4S1035.6,579,1035.4,579z"/>
  <circle class="dot" cx="1005.8" cy="586.2" r="0.4"/>
  <circle class="dot" cx="976.1" cy="592.3" r="0.4"/>
  <circle class="dot" cx="946.3" cy="597.8" r="0.4"/>
  <circle class="dot" cx="916.3" cy="602.6" r="0.5"/>
  <circle class="dot" cx="886.2" cy="606.8" r="0.3"/>
  <circle class="dot" cx="856.1" cy="610.3" r="0.3"/>
  <circle class="dot" cx="825.9" cy="613.2" r="0.3"/>
  <circle class="dot" cx="795.6" cy="615.3" r="0.3"/>
  <path class="dot" d="M764.9,616.8c0,0.2,0.1,0.3,0.3,0.3s0.3-0.1,0.3-0.3s-0.1-0.3-0.3-0.3C765.1,616.5,764.9,616.7,764.9,616.8z"/>
  <circle class="dot" cx="734.9" cy="617.7" r="0.4"/>
  <circle class="dot" cx="704.6" cy="617.8" r="0.4"/>
  <circle class="dot" cx="674.2" cy="617.3" r="0.4"/>
  <path class="dot" d="M643.6,616.2c0,0.2,0.1,0.3,0.3,0.3s0.3-0.1,0.3-0.3s-0.1-0.3-0.3-0.3C643.7,615.8,643.6,616,643.6,616.2z
    M613.3,614.3c0,0.2,0.1,0.3,0.3,0.3s0.3-0.1,0.3-0.3s-0.1-0.3-0.3-0.3S613.3,614.1,613.3,614.3z M583,611.8c0,0.2,0.1,0.3,0.3,0.3
    s0.3-0.1,0.3-0.3s-0.1-0.3-0.3-0.3C583.2,611.5,583,611.6,583,611.8z M552.8,608.7c0,0.2,0.1,0.3,0.3,0.3s0.3-0.2,0.3-0.3
    c0-0.2-0.1-0.3-0.3-0.3C553,608.3,552.8,608.5,552.8,608.7z M522.8,604.8c0,0.1,0.1,0.3,0.3,0.3c0.1,0,0.3-0.1,0.3-0.3
    c0-0.1-0.1-0.3-0.3-0.3S522.8,604.7,522.8,604.8z"/>
  <circle class="dot" cx="493.1" cy="600.3" r="0.5"/>
  <circle class="dot" cx="463.1" cy="595.2" r="0.5"/>
  <path class="dot" d="M433.4,588.9c-0.2,0-0.4,0.2-0.4,0.4s0.2,0.4,0.4,0.4s0.4-0.2,0.4-0.4S433.6,588.9,433.4,588.9z"/>
  <circle class="dot" cx="403.7" cy="582.9" r="0.4"/>
  <path class="dot" d="M374.2,575.2c-0.3,0-0.5,0.2-0.5,0.5s0.2,0.5,0.5,0.5s0.5-0.2,0.5-0.5S374.5,575.2,374.2,575.2z"/>
  <circle class="dot" cx="344.9" cy="568" r="0.5"/>
  <path class="dot" d="M315.7,559c-0.3,0-0.5,0.2-0.5,0.5s0.2,0.5,0.5,0.5s0.5-0.2,0.5-0.5S316,559,315.7,559z M286.7,549.8
    c-0.4,0-0.7,0.3-0.7,0.7s0.3,0.7,0.7,0.7c0.4,0,0.7-0.3,0.7-0.7S287.1,549.8,286.7,549.8z"/>
  <circle class="dot" cx="258" cy="540.8" r="0.6"/>
  <path class="dot" d="M229.4,529.7c-0.4,0-0.7,0.3-0.7,0.7s0.3,0.7,0.7,0.7s0.7-0.3,0.7-0.7C230.2,530.1,229.8,529.7,229.4,529.7z"/>
  <circle class="dot" cx="201.1" cy="519.5" r="0.7"/>
  <circle class="dot" cx="173.1" cy="507.9" r="0.7"/>
  <circle class="dot" cx="145.3" cy="495.7" r="0.7"/>
  <circle class="dot" cx="117.8" cy="482.9" r="0.7"/>
  <circle class="dot" cx="90.5" cy="469.5" r="0.8"/>
  <circle class="dot" cx="63.6" cy="455.5" r="0.9"/>
  <circle class="dot" cx="37" cy="440.9" r="0.9"/>
  <circle class="dot" cx="10.7" cy="425.8" r="1"/>
  <circle class="dot" cx="1421.4" cy="449.2" r="0.7"/>
  <circle class="dot" cx="1395" cy="464.3" r="0.7"/>
  <path class="dot" d="M1368.4,478.1c-0.4,0-0.7,0.3-0.7,0.7c0,0.4,0.3,0.7,0.7,0.7c0.4,0,0.7-0.3,0.7-0.7
    C1369.1,478.4,1368.8,478.1,1368.4,478.1z"/>
  <circle class="dot" cx="1341.4" cy="492.7" r="0.6"/>
  <circle class="dot" cx="1314.1" cy="506.1" r="0.7"/>
  <circle class="dot" cx="1286.6" cy="518.8" r="0.5"/>
  <circle class="dot" cx="1258.8" cy="531" r="0.4"/>
  <path class="dot" d="M1230.7,542c-0.3,0-0.5,0.2-0.5,0.5s0.2,0.5,0.5,0.5s0.5-0.2,0.5-0.5C1231.2,542.3,1231,542,1230.7,542z"/>
  <circle class="dot" cx="1202.4" cy="553.4" r="0.5"/>
  <circle class="dot" cx="1173.8" cy="563.8" r="0.4"/>
  <circle class="dot" cx="1145.1" cy="573.4" r="0.4"/>
  <circle class="dot" cx="1116.1" cy="582.5" r="0.3"/>
  <circle class="dot" cx="1087" cy="591" r="0.3"/>
  <path class="dot" d="M1057.3,598.8c0,0.2,0.2,0.3,0.3,0.3c0.2,0,0.3-0.2,0.3-0.3s-0.2-0.3-0.3-0.3
    C1057.5,598.4,1057.3,598.6,1057.3,598.8z"/>
  <circle class="dot" cx="1028.1" cy="605.9" r="0.2"/>
  <circle class="dot" cx="998.5" cy="612.4" r="0.2"/>
  <circle class="dot" cx="968.7" cy="618.3" r="0.3"/>
  <circle class="dot" cx="938.8" cy="623.6" r="0.3"/>
  <circle class="dot" cx="908.8" cy="628.1" r="0.1"/>
  <circle class="dot" cx="878.7" cy="632.1" r="0.1"/>
  <circle class="dot" cx="545.6" cy="632.1" r="0.1"/>
  <circle class="dot" cx="515.5" cy="628.2" r="0.1"/>
  <path class="dot" d="M485.3,623.6c0,0.1,0.1,0.3,0.3,0.3c0.1,0,0.3-0.1,0.3-0.3c0-0.1-0.1-0.3-0.3-0.3
    C485.4,623.3,485.3,623.4,485.3,623.6z M455.4,618.3c0,0.1,0.1,0.3,0.3,0.3c0.1,0,0.3-0.1,0.3-0.3c0-0.1-0.1-0.3-0.3-0.3
    C455.5,618.1,455.4,618.2,455.4,618.3z M425.6,612.5c0,0.1,0.1,0.3,0.3,0.3c0.1,0,0.3-0.1,0.3-0.3c0-0.1-0.1-0.3-0.3-0.3
    C425.7,612.2,425.6,612.3,425.6,612.5z"/>
  <circle class="dot" cx="396.2" cy="605.9" r="0.2"/>
  <circle class="dot" cx="366.7" cy="598.8" r="0.4"/>
  <circle class="dot" cx="337.4" cy="591" r="0.3"/>
  <circle class="dot" cx="308.2" cy="582.5" r="0.3"/>
  <circle class="dot" cx="279.3" cy="573.5" r="0.4"/>
  <circle class="dot" cx="250.5" cy="563.8" r="0.4"/>
  <path class="dot" d="M222,552.9c-0.3,0-0.5,0.2-0.5,0.5s0.2,0.5,0.5,0.5s0.5-0.2,0.5-0.5C222.5,553.2,222.3,552.9,222,552.9z"/>
  <circle class="dot" cx="193.7" cy="542.5" r="0.5"/>
  <circle class="dot" cx="165.6" cy="531" r="0.4"/>
  <circle class="dot" cx="137.8" cy="518.8" r="0.5"/>
  <path class="dot" d="M110.2,505.4c-0.4,0-0.7,0.3-0.7,0.7c0,0.4,0.3,0.7,0.7,0.7c0.4,0,0.7-0.3,0.7-0.7
    C110.9,505.7,110.6,505.4,110.2,505.4z"/>
  <circle class="dot" cx="83" cy="492.8" r="0.7"/>
  <circle class="dot" cx="56" cy="478.8" r="0.7"/>
  <path class="dot" d="M29.3,463.6c-0.4,0-0.7,0.3-0.7,0.7c0,0.4,0.3,0.7,0.7,0.7c0.4,0,0.7-0.3,0.7-0.7
    C30.1,463.9,29.7,463.6,29.3,463.6z"/>
  <circle class="dot" cx="3" cy="449.3" r="0.9"/>
  <circle class="dot" cx="1415.9" cy="480.3" r="0.6"/>
  <circle class="dot" cx="1389.4" cy="495" r="0.5"/>
  <circle class="dot" cx="1362.5" cy="509.1" r="0.4"/>
  <circle class="dot" cx="1335.4" cy="522.7" r="0.4"/>
  <circle class="dot" cx="1307.9" cy="535.7" r="0.3"/>
  <path class="dot" d="M1279.9,548.1c0,0.2,0.1,0.3,0.3,0.3c0.2,0,0.3-0.1,0.3-0.3s-0.1-0.3-0.3-0.3
    C1280,547.7,1279.9,547.9,1279.9,548.1z M1252,559.9c0,0.1,0.1,0.3,0.3,0.3c0.1,0,0.3-0.1,0.3-0.3c0-0.1-0.1-0.3-0.3-0.3
    C1252.1,559.6,1252,559.7,1252,559.9z"/>
  <circle class="dot" cx="1224.1" cy="571.1" r="0.3"/>
  <circle class="dot" cx="1195.6" cy="581.7" r="0.2"/>
  <circle class="dot" cx="1167" cy="591.7" r="0.2"/>
  <circle class="dot" cx="1138.1" cy="601" r="0.3"/>
  <circle class="dot" cx="1109" cy="609.8" r="0.1"/>
  <circle class="dot" cx="1079.8" cy="617.9" r="0.1"/>
  <circle class="dot" cx="1050.4" cy="625.5" r="0.2"/>
  <path class="dot" d="M388.7,629C388.7,629,388.7,629.1,388.7,629c0.1,0.1,0.1,0,0.1,0C388.8,628.9,388.8,628.9,388.7,629
    C388.7,628.9,388.7,628.9,388.7,629z"/>
  <circle class="dot" cx="359.2" cy="621.8" r="0.2"/>
  <circle class="dot" cx="329.9" cy="614" r="0.1"/>
  <circle class="dot" cx="300.8" cy="605.5" r="0.1"/>
  <path class="dot" d="M271.5,596.4c0,0.1,0.1,0.3,0.3,0.3c0.1,0,0.3-0.1,0.3-0.3s-0.1-0.3-0.3-0.3
    C271.7,596.2,271.5,596.3,271.5,596.4z"/>
  <circle class="dot" cx="243" cy="586.7" r="0.3"/>
  <circle class="dot" cx="214.5" cy="576.4" r="0.3"/>
  <circle class="dot" cx="186.2" cy="565.5" r="0.3"/>
  <circle class="dot" cx="158.1" cy="554" r="0.4"/>
  <circle class="dot" cx="130.2" cy="541.9" r="0.4"/>
  <circle class="dot" cx="102.7" cy="529.3" r="0.5"/>
  <circle class="dot" cx="75.4" cy="516" r="0.5"/>
  <circle class="dot" cx="48.4" cy="502.1" r="0.6"/>
  <path class="dot" d="M21.7,487.2c-0.3,0-0.5,0.2-0.5,0.5s0.2,0.5,0.5,0.5s0.5-0.2,0.5-0.5S22,487.2,21.7,487.2z"/>
  <circle class="dot" cx="1436.8" cy="496.2" r="0.4"/>
  <circle class="dot" cx="1410.3" cy="511.1" r="0.3"/>
  <circle class="dot" cx="1383.6" cy="525.4" r="0.3"/>
  <circle class="dot" cx="1356.5" cy="539.2" r="0.2"/>
  <circle class="dot" cx="1329.2" cy="552.4" r="0.3"/>
  <circle class="dot" cx="1301.6" cy="565" r="0.2"/>
  <circle class="dot" cx="1273.8" cy="577.1" r="0.2"/>
  <circle class="dot" cx="1245.7" cy="588.6" r="0.1"/>
  <circle class="dot" cx="1217.3" cy="599.4" r="0.1"/>
  <circle class="dot" cx="1160" cy="619.4" r="0.1"/>
  <circle class="dot" cx="264.3" cy="619.4" r="0.1"/>
  <circle class="dot" cx="235.6" cy="609.7" r="0.1"/>
  <circle class="dot" cx="207" cy="599.4" r="0.2"/>
  <path class="dot" d="M178.5,588.6c0,0.1,0.1,0.1,0.1,0.1l0.1-0.1c0-0.1-0.1-0.1-0.1-0.1S178.5,588.5,178.5,588.6z"/>
  <circle class="dot" cx="150.6" cy="577.1" r="0.3"/>
  <circle class="dot" cx="122.7" cy="565" r="0.2"/>
  <circle class="dot" cx="95.1" cy="552.4" r="0.3"/>
  <circle class="dot" cx="67.8" cy="539.2" r="0.3"/>
  <path class="dot" d="M40.7,525c-0.2,0-0.4,0.2-0.4,0.4s0.2,0.4,0.4,0.4s0.4-0.2,0.4-0.4S41,525,40.7,525z"/>
  <circle class="dot" cx="14" cy="511.1" r="0.3"/>
  <circle class="dot" cx="1431.3" cy="527.1" r="0.2"/>
  <circle class="dot" cx="1404.6" cy="541.6" r="0.1"/>
  <path class="dot" d="M1350.4,569C1350.4,569.1,1350.4,569.1,1350.4,569C1350.5,569.1,1350.5,569,1350.4,569L1350.4,569z"/>
  <circle class="dot" cx="143.1" cy="600.1" r="0.1"/>
  <circle class="dot" cx="87.6" cy="575.5" r="0.1"/>
  <path class="dot" d="M60.2,562.4C60.2,562.4,60.2,562.5,60.2,562.4C60.3,562.5,60.3,562.4,60.2,562.4
    C60.3,562.4,60.3,562.3,60.2,562.4C60.2,562.3,60.2,562.4,60.2,562.4z"/>
  <circle class="dot" cx="33.1" cy="548.7" r="0.2"/>
  <circle class="dot" cx="6.4" cy="534.4" r="0.2"/>
  <circle class="dot" cx="25.5" cy="571.9" r="0.1"/>
</svg>
