<?xml version="1.0" encoding="utf-8"?>
<!-- Generator: Adobe Illustrator 27.0.0, SVG Export Plug-In . SVG Version: 6.00 Build 0)  -->
<svg version="1.1" id="Layer_1" xmlns="http://www.w3.org/2000/svg" xmlns:xlink="http://www.w3.org/1999/xlink" x="0px" y="0px"
	 viewBox="0 0 120 33.9" style="enable-background:new 0 0 120 33.9;" xml:space="preserve">
<style type="text/css">
	.st0{fill-rule:evenodd;clip-rule:evenodd;fill:#00A0E9;}
	.st1{fill-rule:evenodd;clip-rule:evenodd;fill:#3E3A39;}
</style>
<g id="export-badges">
	<g id="production" transform="translate(-45.000000, -8808.000000)">
		<g id="alipay-copy-2" transform="translate(45.000000, 8808.000000)">
			<g id="Group-12-Copy" transform="translate(7.000000, 25.000000)">
				<path id="Combined-Shape" class="st0" d="M20.4-24.7c2.9,0,5.2,2.4,5.2,5.4l0,0V-2c0,0-1.1-0.1-5.7-1.7c-1.3-0.5-3-1.1-5-1.9
					c1.2-2.1,2.1-4.5,2.7-7.1l0,0h-6.4v-2.4h7.8v-1.3h-7.8v-4H8.1c-0.5,0-0.5,0.6-0.5,0.6l0,0v3.4h-7.9v1.3h7.9v2.4H0.9v1.3h12.7
					c-0.5,1.7-1.1,3.2-1.8,4.6C7.7-8.1,3.3-9.3,0.6-8.6C-1.2-8.1-2.3-7.3-3-6.5c-3,3.8-0.8,9.7,5.6,9.7C6.4,3.2,10.1,1,13-2.6
					c4.3,2.1,12.7,5.8,12.7,5.8l0,0v0.3c0,3-2.3,5.4-5.2,5.4l0,0H-1.7c-2.9,0-5.2-2.4-5.2-5.4l0,0v-22.8c0-3,2.3-5.4,5.2-5.4l0,0
					H20.4z M2.1-8c3-0.3,5.8,0.9,9.1,2.6C8.9-2.1,5.9-0.1,3-0.1c-5.1,0-6.6-4.3-4.1-6.6C-0.3-7.6,1.2-7.9,2.1-8z"/>
				<path id="Combined-Shape_00000030454436697899707570000001258772501211717815_" class="st1" d="M76.1-13.6
					c0.9,0,1.7,0.2,2.4,0.5c0.7,0.3,1.3,0.8,1.9,1.4c0.5,0.6,0.9,1.3,1.2,2c0.3,0.8,0.4,1.6,0.4,2.5c0,1.1-0.2,2.1-0.5,3.1
					c-0.3,0.9-0.8,1.7-1.4,2.4c-0.6,0.7-1.3,1.2-2.2,1.6S76,0.4,74.9,0.4c-0.6,0-1,0-1.4,0c-0.4,0-0.8-0.1-1.2-0.3v5.4h-4.1v-18
					c0-0.2,0.1-0.4,0.2-0.6c0.2-0.2,0.3-0.3,0.6-0.3h3.4v1.1c0.5-0.4,1-0.7,1.6-1C74.5-13.5,75.3-13.6,76.1-13.6z M101.8-13.6
					l4.3,8.4l3.6-7.8c0.1-0.2,0.2-0.3,0.3-0.4c0.2-0.1,0.3-0.1,0.5-0.1h2.4l-6.9,15.1c-1.7,4.1-5.7,3.5-6.4,3.5V2.8l0.2,0
					c0.7,0,2.3-0.1,3-0.9c0.2-0.2,0.4-0.6,0.5-0.8c0.1-0.3,0.2-0.5,0.3-0.7l0.5-1.1l-6.8-12.8H101.8z M64.8-13.1V0.5h-4.3v-12.9
					c0-0.2,0-0.3,0.2-0.5c0.2-0.2,0.4-0.2,0.6-0.2H64.8z M93-13.1c1.4,0.4,3.1,1.5,3.2,3.3l0,0.2v9.8h-4.3v-0.5
					c-5.1,2.2-8.2-0.8-8.2-4c0-1.9,1.3-4.7,5.1-4.7c0.8,0,1.8,0.1,2.6,0.2l0.5,0v-0.7c0-2.3-1-3.1-6.5-2.1c-0.1-0.3-0.3-0.9-0.4-1.3
					C88.5-13.8,91-13.7,93-13.1z M57-18.2V0h-4.3v-17.5c0-0.2,0.1-0.4,0.3-0.6c0.2-0.2,0.4-0.2,0.6-0.2H57z M42.4-18.2L51,0h-4.6
					l-1.4-3h-8.8l-1.6,3h-3.1l8.7-17.6c0.1-0.2,0.2-0.3,0.4-0.4c0.1-0.1,0.3-0.1,0.4-0.2l0.1,0H42.4z M75.2-11c-0.3,0-0.5,0-0.8,0.1
					c-0.3,0.1-0.5,0.2-0.7,0.4c-0.2,0.2-0.4,0.3-0.6,0.6c-0.2,0.2-0.4,0.4-0.6,0.7v6c0,0.3,0,0.6,0.2,0.9C72.8-2,73-1.8,73.2-1.5
					C73.4-1.3,73.7-1.2,74-1c0.3,0.1,0.7,0.2,1,0.2c0.3,0,0.7-0.1,1-0.3c0.3-0.3,0.6-0.6,0.8-1c0.2-0.4,0.4-0.9,0.6-1.5
					c0.1-0.6,0.2-1.2,0.2-1.9c0-0.9,0-1.7-0.2-2.3c-0.1-0.7-0.3-1.2-0.5-1.7c-0.2-0.5-0.5-0.8-0.8-1C75.8-10.9,75.5-11,75.2-11z
					 M89.9-7.1c-1.6,0.1-2.8,1.4-2.8,3c0,1.6,1.2,2.9,2.8,3c0.7,0,1.3-0.2,1.8-0.7L91.9-2v-4.8C91.5-7,90.9-7.2,89.9-7.1z
					 M40.7-12.3l-4,8.1h7.8L40.7-12.3z"/>
				<path id="Fill-8" class="st0" d="M64.9-17.1c0,1.3-1,2.3-2.3,2.3c-1.3,0-2.3-1-2.3-2.3s1-2.3,2.3-2.3
					C63.9-19.3,64.9-18.3,64.9-17.1"/>
			</g>
		</g>
	</g>
</g>
</svg>
