<?xml version="1.0" encoding="utf-8"?>
<!-- Generator: Adobe Illustrator 27.0.0, SVG Export Plug-In . SVG Version: 6.00 Build 0)  -->
<svg version="1.1" id="katman_1" xmlns="http://www.w3.org/2000/svg" xmlns:xlink="http://www.w3.org/1999/xlink" x="0px" y="0px"
	 viewBox="0 0 600 233.3" style="enable-background:new 0 0 600 233.3;" xml:space="preserve">
<style type="text/css">
	.st0{fill:#010202;}
</style>
<path class="st0" d="M199.4,0.4c11.9,0,21.2,2.5,28.1,7.5c6.8,5,10.1,12.6,10.3,22.8c0,5-1.1,10-3.4,14.4c-2,4.1-5.3,7.5-9.4,9.4
	v0.7c4.6,2.1,8.5,5.5,11.4,10c1.8,2.7,3,5.5,3.9,8.5c1.1,3.6,1.6,7.5,1.4,11.2c0.2,5.7-1.1,11.2-3.4,16.2c-2.1,4.6-5.5,8.5-9.4,11.6
	c-4.1,3.2-8.7,5.5-13.7,6.9c-5.2,1.6-10.7,2.3-16,2.3H134V0h65.3V0.4z M165.3,45.2H194c3.6,0.4,6.9-0.7,9.6-3c1.8-2,2.8-4.6,2.7-7.3
	c0-2.5-0.9-5-2.7-6.9c-2.7-2.3-6.2-3.4-9.6-3h-28.7V45.2z M165.3,97.6h29c4.5,0.4,8.9-0.9,12.3-3.7c2.5-2.7,3.7-6.1,3.6-9.8
	c0.4-4.1-1.2-8-4.3-10.7c-3.4-2.5-7.5-3.7-11.6-3.6h-29V97.6z"/>
<path class="st0" d="M271.5,122.3h-33.1L281.4,0.5h32.1l44.2,121.8h-34.9l-5.9-21.2h-39.4L271.5,122.3z M297.3,32.4h-0.7l-12.6,45.2
	h25.8L297.3,32.4z"/>
<path class="st0" d="M394.3,50.2h-0.7v72.1h-31.3V0.4H397l41.5,68h0.7v-68h31.3v122H439L394.3,50.2z"/>
<path class="st0" d="M514.2,0.4v42.7l40.1-42.7h41.3l-49.1,46.5l52,75.5H559l-36-54.1l-9.1,8.7v45.4h-31.3V0.4H514.2z"/>
<path class="st0" d="M64.4,141v20.5H43v71.8H20.4v-71.8H-1V141L64.4,141L64.4,141z"/>
<path class="st0" d="M118.7,141c3.2,0,6.6,0.7,9.4,2c2.8,1.2,5.5,3.2,7.5,5.7c2.1,2.5,3.7,5.3,4.8,8.5c1.2,3.4,1.8,6.9,1.8,10.5
	c0.2,5.3-1.2,10.5-3.9,15.1c-2.7,4.3-6.4,7.5-10.9,9.6l16.7,40.8h-24l-13.9-37.6H88.1v37.6H65.5V141L118.7,141L118.7,141z
	 M111.9,176.5c2.1,0.2,4.3-0.7,5.5-2.5c1.2-1.6,1.8-3.6,1.8-5.5c0-0.9-0.2-2-0.4-2.8c-0.2-0.9-0.7-1.8-1.2-2.7
	c-0.5-0.7-1.4-1.4-2.3-2c-1.1-0.5-2.1-0.9-3.4-0.7H88.2v16.2H111.9z"/>
<path class="st0" d="M162.1,233.3h-23.9l31-92.2h23.1l31.7,92.2H199l-4.3-16h-28.3L162.1,233.3z M180.8,165.2h-0.4l-9.1,34.2h18.5
	L180.8,165.2z"/>
<path class="st0" d="M247.3,178.8h-0.5v54.5h-22.6V141H249l29.9,51.5h0.5V141h22.6v92.2h-22.8L247.3,178.8z"/>
<path class="st0" d="M340.7,235.6c-5,0.2-10-0.5-14.8-2c-3.9-1.2-7.5-3-10.7-5.3c-2.8-2.3-5.3-5-7.1-8.4c-1.8-3.4-3.2-6.9-4.1-10.5
	l21.5-8.7c0.2,4.6,2,8.9,5.2,12.1c3.4,2.8,7.7,4.3,11.9,4.1c1.2,0,2.5-0.2,3.7-0.4c1.2-0.2,2.3-0.5,3.4-1.2c1.1-0.5,1.8-1.4,2.5-2.5
	s1.1-2.5,1.1-3.7c0-1.2-0.2-2.5-0.5-3.7c-0.5-1.2-1.2-2.3-2.1-3c-1.2-1.1-2.7-2-4.3-2.7c-2.3-1.1-4.6-1.8-6.9-2.5
	c-5-1.4-9.8-3.2-14.4-5.2c-3.7-1.6-7.1-3.7-10.3-6.4c-2.7-2.3-4.8-5.2-6.2-8.4c-1.4-3.6-2.1-7.3-2.1-11c0-4.1,0.9-8.2,2.7-11.8
	c1.8-3.4,4.3-6.4,7.5-8.7c3.4-2.5,7.1-4.3,11.2-5.3c4.6-1.2,9.4-1.8,14.2-1.8c4.3,0,8.7,0.4,12.8,1.4c3.4,0.9,6.6,2.3,9.4,4.3
	c2.7,1.8,5,4.1,6.8,6.8c2,3,3.4,6.1,4.6,9.4l-19.4,8.5c-0.7-3.6-2.5-6.8-5-9.3c-5.3-3.6-12.1-3.7-17.6-0.5c-1.6,1.2-2.5,3-2.7,5
	c0,1.2,0.2,2.3,0.7,3.4c0.5,1.1,1.4,2.1,2.5,2.8c1.4,1.1,3,2,4.8,2.5c2.7,1.1,5.2,1.8,7.8,2.5c4.3,1.2,8.5,2.5,12.3,3.7
	c3.6,1.2,6.9,3,10,5.3c2.8,2.3,5.2,5.2,6.8,8.4c1.8,4.1,2.7,8.7,2.5,13.2c0.2,4.5-0.9,8.7-2.8,12.8c-2,3.6-4.6,6.8-8,9.1
	c-3.6,2.5-7.7,4.5-11.9,5.5C350.5,235,345.5,235.8,340.7,235.6z"/>
<path class="st0" d="M402.5,175.2h35.1v20.5h-35.1v37.6h-22.6V141h68.4v20.5h-45.8L402.5,175.2L402.5,175.2z"/>
<path class="st0" d="M450.1,141h68.4v20.5h-45.8V174h40.1v20.5h-40.1V213h47v20.5h-69.6L450.1,141L450.1,141z"/>
<path class="st0" d="M574.5,141c3.2,0,6.6,0.7,9.4,2c2.8,1.2,5.5,3.2,7.5,5.7c2.1,2.5,3.7,5.3,4.8,8.5c1.2,3.4,1.8,6.9,1.8,10.5
	c0.2,5.3-1.2,10.5-3.9,15.1c-2.7,4.3-6.4,7.5-10.9,9.6l16.7,40.8h-24l-13.9-37.6h-18.2v37.6h-22.6V141L574.5,141L574.5,141z
	 M567.8,176.5c2.1,0.2,4.3-0.7,5.5-2.5c1.2-1.6,1.8-3.6,1.8-5.5c0-0.9-0.2-2-0.4-2.8c-0.2-0.9-0.7-1.8-1.2-2.7
	c-0.5-0.7-1.4-1.4-2.3-2c-1.1-0.5-2.1-0.9-3.4-0.7h-23.7v16.2H567.8z"/>
<rect x="-1.5" y="0.4" class="st0" width="123.4" height="24.8"/>
<rect x="-1.5" y="46.8" class="st0" width="123.4" height="24.8"/>
<rect x="-1.5" y="97.8" class="st0" width="123.4" height="24.8"/>
</svg>
