<?xml version="1.0" encoding="utf-8"?>
<!-- Generator: Adobe Illustrator 27.0.0, SVG Export Plug-In . SVG Version: 6.00 Build 0)  -->
<svg version="1.1" id="Layer_1" xmlns="http://www.w3.org/2000/svg" xmlns:xlink="http://www.w3.org/1999/xlink" x="0px" y="0px"
	 viewBox="0 0 70 40" style="enable-background:new 0 0 70 40;" xml:space="preserve">
<style type="text/css">
	.st0{fill:#18799F;}
</style>
<path class="st0" d="M3.6,1.4v17h6.2c5.1,0,8-3.1,8-8.6c0-5.4-3-8.5-8-8.5L3.6,1.4L3.6,1.4z M6.3,3.8h3.2c3.5,0,5.6,2.2,5.6,6.1
	c0,3.9-2.1,6.1-5.6,6.1H6.3C6.3,16,6.3,3.8,6.3,3.8z M20.5,18.5h2.5V5.6h-2.5V18.5z M21.8,3.3c0.9,0,1.6-0.7,1.6-1.5
	c0-0.9-0.7-1.6-1.6-1.6c-0.9,0-1.6,0.7-1.6,1.6C20.2,2.7,20.9,3.3,21.8,3.3z M26.2,18.5h2.5v-7.6c0-1.8,1.4-3,3.3-3
	c0.4,0,1.2,0.1,1.4,0.2V5.5c-0.3-0.1-0.8-0.1-1.1-0.1c-1.7,0-3.1,0.9-3.5,2.2h-0.2v-2h-2.4L26.2,18.5L26.2,18.5z M40.3,7.5
	c1.9,0,3.1,1.3,3.2,3.3h-6.5C37.1,8.8,38.4,7.5,40.3,7.5z M43.4,15c-0.5,1-1.5,1.6-3.1,1.6c-2,0-3.3-1.4-3.4-3.7v-0.1H46v-0.9
	c0-4-2.2-6.5-5.7-6.5c-3.6,0-5.9,2.6-5.9,6.7c0,4.1,2.3,6.6,5.9,6.6c2.9,0,5-1.4,5.6-3.7L43.4,15L43.4,15z M59.4,9.8
	c-0.3-2.6-2.3-4.5-5.5-4.5c-3.7,0-6,2.5-6,6.6c0,4.2,2.3,6.7,6,6.7c3.2,0,5.2-1.8,5.5-4.4h-2.5c-0.3,1.4-1.4,2.1-3,2.1
	c-2.1,0-3.4-1.7-3.4-4.5c0-2.7,1.3-4.4,3.4-4.4c1.7,0,2.7,0.9,3,2.2C56.9,9.8,59.4,9.8,59.4,9.8z M62.8,2.4v3.3h-2v2.1h2v7.3
	c0,2.5,1.1,3.5,3.9,3.5c0.5,0,1-0.1,1.4-0.1v-2.1c-0.4,0-0.6,0.1-1,0.1c-1.3,0-1.8-0.6-1.8-1.9V7.8h2.8V5.7h-2.8V2.4L62.8,2.4
	L62.8,2.4z M6.5,22.6l-3.6,17h7.3c5,0,8.9-4.2,8.9-9.8c0-4.5-2.7-7.2-7.3-7.2H6.5z M8.7,25h2.6c3.1,0,4.9,1.9,4.9,5.1
	c0,4.2-2.6,7.2-6.2,7.2H6L8.7,25L8.7,25z M25.8,39.9c3.1,0,5.2-1.6,5.7-3.7H29c-0.5,0.9-1.4,1.5-3,1.5c-1.5,0-3-1-3-3.3l0-0.5h9.2
	c0.1-0.5,0.2-1.5,0.2-2c0-3.3-2.3-5.3-5.1-5.3c-4,0-6.8,3.2-6.8,7.9C20.4,37.9,22.8,39.9,25.8,39.9L25.8,39.9z M23.3,31.9
	c0.5-1.9,1.9-3.3,3.8-3.3c1.8,0,2.7,1.3,2.7,2.8l0,0.5H23.3L23.3,31.9z M40.5,39.8c3.7,0,6.5-3.6,6.5-8.3c0-2.9-1.9-5-4.5-5
	c-1.7,0-3,0.7-4,2h-0.2l1.4-6.8h-2.5l-3.8,17.9h2.5l0.5-2.4h0.2C37.1,38.8,38.7,39.8,40.5,39.8L40.5,39.8z M40.1,37.5
	c-1.8,0-3-1.2-3-3.2c0-3.1,1.9-5.5,4.3-5.5c1.7,0,2.8,1.1,2.8,3.1C44.4,35.1,42.5,37.5,40.1,37.5L40.1,37.5z M48.1,39.6h2.5
	l2.7-12.9h-2.5L48.1,39.6z M52.9,24.5c0.9,0,1.6-0.7,1.6-1.6c0-0.9-0.7-1.5-1.6-1.5s-1.6,0.7-1.6,1.6C51.3,23.8,52,24.5,52.9,24.5z
	 M58.7,39.7c0.6,0,1.1,0,1.5-0.1l0.4-2.1c-0.3,0-0.6,0-0.9,0c-1,0-1.5-0.4-1.5-1.3c0-0.3,0-0.6,0.1-1l1.4-6.3h2.8l0.4-2.1H60
	l0.7-3.3h-2.6l-0.7,3.3h-2.1L54.9,29h2.1l-1.5,7c-0.1,0.4-0.1,0.8-0.1,1.1C55.4,38.8,56.8,39.7,58.7,39.7L58.7,39.7z"/>
</svg>
