<?xml version="1.0" encoding="utf-8"?>
<!-- Generator: Adobe Illustrator 27.0.0, SVG Export Plug-In . SVG Version: 6.00 Build 0)  -->
<svg version="1.1" id="Layer_1" xmlns="http://www.w3.org/2000/svg" xmlns:xlink="http://www.w3.org/1999/xlink" x="0px" y="0px"
	 viewBox="0 0 70 40" style="enable-background:new 0 0 70 40;" xml:space="preserve">
<style type="text/css">
	.st0{fill:#FF5F00;}
	.st1{fill:#EB001B;}
	.st2{fill:#F79E1B;}
</style>
<rect x="27" y="5.7" class="st0" width="15.9" height="28.6"/>
<path class="st1" d="M28.1,20c0-5.6,2.6-10.8,6.9-14.3C27.1-0.5,15.7,0.9,9.5,8.8c-6.2,7.9-4.8,19.3,3.1,25.5
	c6.6,5.2,15.9,5.2,22.5,0C30.6,30.9,28.1,25.6,28.1,20z"/>
<path class="st2" d="M64.4,20c0,10-8.1,18.2-18.2,18.2c-4.1,0-8-1.4-11.2-3.9c7.9-6.2,9.3-17.6,3.1-25.5c-0.9-1.1-1.9-2.2-3.1-3.1
	c7.9-6.2,19.3-4.8,25.5,3.1C63,12,64.4,15.9,64.4,20z"/>
<path class="st2" d="M62.7,31.3v-0.6h0.2v-0.1h-0.6v0.1h0.2v0.6C62.6,31.3,62.7,31.3,62.7,31.3z M63.8,31.3v-0.7h-0.2L63.5,31
	l-0.2-0.5h-0.2v0.7h0.1v-0.5l0.2,0.5h0.1l0.2-0.5v0.5C63.7,31.3,63.8,31.3,63.8,31.3z"/>
</svg>
