<?xml version="1.0" encoding="utf-8"?>
<!-- Generator: Adobe Illustrator 27.0.0, SVG Export Plug-In . SVG Version: 6.00 Build 0)  -->
<svg version="1.1" id="Capa_1" xmlns="http://www.w3.org/2000/svg" xmlns:xlink="http://www.w3.org/1999/xlink" x="0px" y="0px"
	 viewBox="0 0 70 39.8" style="enable-background:new 0 0 70 39.8;" xml:space="preserve">
<style type="text/css">
	.st0{fill:#334B66;}
	.st1{fill:#2ABAEA;}
</style>
<path class="st0" d="M48.2,16c-2.7,0-3.9,1.6-3.9,1.6c-0.8,0.8-0.3,2.1,0.5,2.2c1.1,0.1,1.1-0.8,2.9-1.2c1.6-0.4,1.7,1,1.7,1
	c-6.7-0.2-6.3,5.4-4.1,6.5c2.2,1.1,4.2-0.3,4.2-0.3s0.1,0.7,1.1,0.7c1.2,0,1.2-1.2,1.2-1.2v-5.4C51.7,15.9,48.2,16,48.2,16z
	 M47.7,23.8c0,0-1.8,0.3-1.8-0.9c0-1.2,3.1-1.1,3.5-1C49.4,21.9,49.5,23.3,47.7,23.8L47.7,23.8z"/>
<path class="st0" d="M69.6,24.3l-2.7-4.1l2-1.9c0,0,0.9-0.8,0.2-1.7c-0.8-0.9-1.9,0-1.9,0L64.7,19v-4.7c0-0.6-0.5-1.2-1.2-1.2
	c-0.6,0-1.2,0.5-1.2,1.2v10.9c0,0.6,0.5,1.2,1.2,1.2c0.6,0,1.2-0.5,1.2-1.2v-2.9l0.4-0.4l2.5,3.8c0,0,0.8,1.4,2,0.5
	C70.4,25.6,69.6,24.3,69.6,24.3z"/>
<path class="st0" d="M61,19.8c0-3.9-3.3-4.5-5.5-3.2l0,0c-0.2-0.6-0.9-0.9-1.6-0.7c-0.5,0.2-0.8,0.6-0.8,1.1v8.2
	c0,0.7,0.5,1.2,1.2,1.2c0.7,0,1.2-0.5,1.2-1.2v-5.5c0.2-0.2,0.5-0.5,0.7-0.7c1.1-0.8,2.3-0.5,2.3,0.8v5.4c0,0.6,0.6,1.2,1.2,1.1
	c0.6,0,1.1-0.5,1.1-1.1L61,19.8z"/>
<path class="st1" d="M25.5,26.6c0.2-0.2,0.3-0.5,0.3-0.8L23,18.5c0,0-0.5-1.5,0.6-1.9s1.7,0.7,1.7,0.9l1.8,4.7l1.7-4.7
	c0,0,0.4-1.5,1.8-0.9c1,0.4,0.5,1.9,0.5,1.9s-1.7,4.9-3,8.4c-0.8,2.1-1.6,2.3-2.3,2.5c-1,0.2-3.1,0.1-3.1-1.2c0-1,1-1.1,1.6-1.1
	C24.1,27.2,25.1,27.3,25.5,26.6z"/>
<path class="st1" d="M19,14.4l-2.5,7.1l-2.8-7.1c0,0-0.4-1.4-1.6-1.4c-1.4,0-1.2,1-1.4,1.4c-0.1,0.3,0,10.9,0,10.9s0,1.1,1.2,1.1
	s1.2-1.1,1.2-1.1v-5.6l2.1,5.6c0,0,0.3,1.1,1.2,1.1c0.9,0,1.2-1.1,1.2-1.1l1.7-5.6v5.6c0,0,0,1.1,1.2,1.1s1.2-1.1,1.2-1.1V14.4
	c0,0,0-1.4-1.2-1.4C19.5,13.1,19.1,14.1,19,14.4L19,14.4"/>
<path class="st1" d="M70,30.7H48.5H32.7l0,0c-6.1,7.2-16.8,8-24,1.9s-8-16.7-1.9-23.9s16.8-8,24-1.9c0.7,0.6,1.4,1.2,2,2h3.4
	C30.1-0.3,17.8-2.7,8.8,3.3S-2.7,21.7,3.3,30.7s18.3,11.5,27.4,5.4c1.2-0.8,2.5-1.9,3.5-3h34.1L70,30.7z"/>
<path class="st0" d="M41.3,19.3c0.1-0.1,0.9-0.7,0.8-2.5c-0.1-3.5-3.2-3.5-3.9-3.5c-1.1,0-1.8,0-3.8,0c-1.8,0-1.7,1.6-1.7,1.6v11.6
	h5.8c3.1,0,4.3-1.7,4.3-4.1S41.3,19.3,41.3,19.3z M35.2,15.7h3.2c0.6,0,1.4,0.3,1.4,1.4s-0.6,1.4-1.4,1.4h-3.2V15.7z M38.6,24.1
	h-3.4v-3.3h3.4c0.8,0,1.7,0.4,1.7,1.7C40.3,23.7,39.6,24.1,38.6,24.1z"/>
</svg>
