<?xml version="1.0" encoding="utf-8"?>
<!-- Generator: Adobe Illustrator 27.0.0, SVG Export Plug-In . SVG Version: 6.00 Build 0)  -->
<svg version="1.1" id="Layer_1" xmlns="http://www.w3.org/2000/svg" xmlns:xlink="http://www.w3.org/1999/xlink" x="0px" y="0px"
	 viewBox="0 0 70 16.8" style="enable-background:new 0 0 70 16.8;" xml:space="preserve">
<style type="text/css">
	.st0{fill:#253B80;}
	.st1{fill:#179BD7;}
	.st2{fill:#222D65;}
</style>
<g>
	<path id="Shape" class="st0" d="M26.2,3.8h-3.9c-0.3,0-0.5,0.2-0.5,0.4L20.2,14c0,0.2,0.1,0.4,0.3,0.4h1.8c0.3,0,0.5-0.2,0.5-0.4
		l0.4-2.6c0-0.3,0.3-0.4,0.5-0.4h1.2c2.6,0,4-1.2,4.4-3.6c0.2-1.1,0-1.9-0.5-2.5C28.4,4.1,27.5,3.8,26.2,3.8L26.2,3.8z M26.6,7.3
		c-0.2,1.4-1.3,1.4-2.3,1.4h-0.6l0.4-2.6c0-0.2,0.2-0.3,0.3-0.3h0.3c0.7,0,1.4,0,1.7,0.4C26.6,6.5,26.7,6.9,26.6,7.3z M37.8,7.3
		h-1.9c-0.2,0-0.3,0.1-0.3,0.3l-0.1,0.5l-0.1-0.2c-0.4-0.6-1.3-0.8-2.2-0.8c-2.1,0-3.8,1.5-4.1,3.7c-0.2,1.1,0.1,2.1,0.7,2.8
		c0.6,0.7,1.4,0.9,2.3,0.9c1.7,0,2.6-1,2.6-1L34.5,14c0,0.2,0.1,0.4,0.3,0.4h1.7c0.3,0,0.5-0.2,0.5-0.4l1-6.3
		C38.1,7.5,38,7.3,37.8,7.3L37.8,7.3z M35.2,10.9c-0.2,1-1,1.7-2.1,1.7c-0.5,0-1-0.2-1.2-0.5c-0.3-0.3-0.4-0.8-0.3-1.3
		c0.2-1,1-1.8,2.1-1.8c0.5,0,1,0.2,1.2,0.5C35.1,9.9,35.2,10.4,35.2,10.9L35.2,10.9z M47.6,7.3h-1.9c-0.2,0-0.3,0.1-0.4,0.2
		l-2.6,3.7l-1.1-3.6c-0.1-0.2-0.3-0.4-0.5-0.4h-1.8c-0.2,0-0.4,0.2-0.3,0.4l2.1,5.9l-1.9,2.7c-0.2,0.2,0,0.5,0.3,0.5h1.9
		c0.2,0,0.3-0.1,0.4-0.2l6.2-8.8C48,7.6,47.9,7.3,47.6,7.3L47.6,7.3z"/>
	<path id="Shape_00000072986577479296356670000001565596622046516412_" class="st1" d="M53.8,3.8h-3.9c-0.3,0-0.5,0.2-0.5,0.4
		L47.8,14c0,0.2,0.1,0.4,0.3,0.4h2c0.2,0,0.3-0.1,0.4-0.3l0.4-2.8c0-0.3,0.3-0.4,0.5-0.4h1.2c2.6,0,4-1.2,4.4-3.6
		c0.2-1.1,0-1.9-0.5-2.5C56.1,4.1,55.1,3.8,53.8,3.8L53.8,3.8z M54.3,7.3C54,8.7,53,8.7,51.9,8.7h-0.6l0.4-2.6
		c0-0.2,0.2-0.3,0.3-0.3h0.3c0.7,0,1.4,0,1.7,0.4C54.3,6.5,54.3,6.9,54.3,7.3L54.3,7.3z M65.4,7.3h-1.9c-0.2,0-0.3,0.1-0.3,0.3
		l-0.1,0.5L63,7.9c-0.4-0.6-1.3-0.8-2.2-0.8c-2.1,0-3.8,1.5-4.1,3.7c-0.2,1.1,0.1,2.1,0.7,2.8c0.6,0.7,1.4,0.9,2.3,0.9
		c1.7,0,2.6-1,2.6-1L62.2,14c0,0.2,0.1,0.4,0.3,0.4h1.7c0.3,0,0.5-0.2,0.5-0.4l1-6.3C65.7,7.5,65.6,7.3,65.4,7.3L65.4,7.3z
		 M62.8,10.9c-0.2,1-1,1.7-2.1,1.7c-0.5,0-1-0.2-1.2-0.5c-0.3-0.3-0.4-0.8-0.3-1.3c0.2-1,1-1.8,2.1-1.8c0.5,0,1,0.2,1.2,0.5
		C62.8,9.9,62.9,10.4,62.8,10.9L62.8,10.9z M67.6,4L66,14c0,0.2,0.1,0.4,0.3,0.4h1.6c0.3,0,0.5-0.2,0.5-0.4L70,4.1
		c0-0.2-0.1-0.4-0.3-0.4h-1.8C67.7,3.8,67.6,3.9,67.6,4z"/>
	<path id="Shape_00000134233471837669409080000005593354461078119860_" class="st0" d="M4.1,16.3l0.3-1.9l-0.7,0H0.6L2.8,0.7
		l0.1-0.1l0.1,0h5.3c1.8,0,3,0.4,3.6,1.1c0.3,0.3,0.5,0.7,0.6,1.1c0.1,0.4,0.1,0.9,0,1.5l0,0v0.4l0.3,0.2c0.3,0.1,0.4,0.3,0.6,0.5
		c0.3,0.3,0.4,0.7,0.5,1.1c0.1,0.4,0,1-0.1,1.6c-0.1,0.7-0.4,1.3-0.7,1.8c-0.3,0.5-0.6,0.8-1,1.1c-0.4,0.3-0.9,0.5-1.4,0.6
		c-0.5,0.1-1.1,0.2-1.7,0.2H8.6c-0.3,0-0.6,0.1-0.8,0.3c-0.2,0.2-0.4,0.5-0.4,0.7l0,0.2l-0.5,3.3l0,0.1l0,0.1l-0.1,0H4.1L4.1,16.3z"
		/>
	<path id="Shape_00000005247058430322442810000010951766828163979912_" class="st1" d="M13.1,4.3L13,4.6c-0.7,3.5-3.1,4.8-6.2,4.8
		H5.3c-0.4,0-0.7,0.3-0.7,0.6l-0.8,5l-0.2,1.4c0,0.2,0.1,0.5,0.4,0.5h2.8c0.3,0,0.6-0.2,0.7-0.6l0-0.1l0.5-3.3l0-0.2
		c0.1-0.3,0.3-0.6,0.7-0.6H9c2.7,0,4.8-1.1,5.4-4.2c0.3-1.3,0.1-2.4-0.6-3.1C13.6,4.6,13.4,4.4,13.1,4.3L13.1,4.3z"/>
	<path id="Shape_00000105426399564214775230000007452333329424257173_" class="st2" d="M12.3,4L12,3.9l-0.4-0.1
		c-0.4-0.1-0.9-0.1-1.4-0.1H6.1c-0.1,0-0.2,0-0.3,0.1C5.6,3.9,5.5,4.1,5.4,4.3L4.6,9.8l0,0.2c0.1-0.4,0.4-0.6,0.7-0.6h1.6
		c3.1,0,5.5-1.2,6.2-4.8l0.1-0.3c-0.2-0.1-0.4-0.2-0.6-0.2L12.3,4L12.3,4z"/>
	<path class="st0" d="M5.4,4.3c0-0.2,0.2-0.4,0.4-0.5c0.1,0,0.2-0.1,0.3-0.1h4.2c0.5,0,1,0,1.4,0.1L12,3.9L12.3,4l0.2,0
		c0.2,0.1,0.4,0.1,0.6,0.2c0.2-1.3,0-2.2-0.7-3C11.5,0.4,10.1,0,8.3,0H3C2.6,0,2.3,0.3,2.2,0.6L0,14.5C0,14.7,0.2,15,0.5,15h3.3
		l0.8-5.1L5.4,4.3L5.4,4.3z"/>
</g>
</svg>
