<?xml version="1.0" encoding="utf-8"?>
<!-- Generator: Adobe Illustrator 27.0.0, SVG Export Plug-In . SVG Version: 6.00 Build 0)  -->
<svg version="1.1" id="Layer_1" xmlns="http://www.w3.org/2000/svg" xmlns:xlink="http://www.w3.org/1999/xlink" x="0px" y="0px"
	 viewBox="0 0 70 23.3" style="enable-background:new 0 0 70 23.3;" xml:space="preserve">
<style type="text/css">
	.st0{fill:#0EE06E;}
</style>
<g id="Layer_2_00000163061022831600599750000010300620601047523465_">
	<g id="Layer_1-2">
		<path class="st0" d="M66.3,23.3H3.7c-2.1,0-3.7-1.7-3.7-3.7c0,0,0,0,0,0V3.7C0,1.7,1.7,0,3.7,0c0,0,0,0,0,0h62.5
			C68.3,0,70,1.7,70,3.7c0,0,0,0,0,0v15.9C70,21.7,68.3,23.3,66.3,23.3C66.3,23.3,66.3,23.3,66.3,23.3z"/>
		<path d="M25.7,16.3V8.7h-2.8V7h7.3v1.7h-2.8v7.7H25.7z"/>
		<path d="M30.1,16.3V9.5h1.7v1.1c0.2-0.7,0.9-1.1,1.6-1.1H34v1.7h-0.6c-0.9,0-1.6,0.5-1.6,2v3.1L30.1,16.3L30.1,16.3z"/>
		<path d="M34.9,13.9V9.6h1.7v3.9c0,0.9,0.4,1.4,1.2,1.4c0.7,0,1.3-0.6,1.3-1.3c0,0,0-0.1,0-0.1V9.5H41v6.8h-1.7v-0.9
			c-0.4,0.7-1.2,1-2,1c-1.3,0.1-2.4-0.9-2.4-2.2C34.9,14.1,34.9,14,34.9,13.9z"/>
		<path d="M41.9,14.4l1.5-0.3c0.1,0.6,0.6,1,1.4,1c0.7,0,1-0.3,1-0.6c0-0.3-0.2-0.5-0.8-0.7l-1.1-0.3c-1.3-0.3-1.9-0.9-1.9-2
			c0-1.1,1-2.1,2.7-2.1c1.9,0,2.6,1.1,2.7,1.9L46,11.7c-0.1-0.4-0.4-0.9-1.2-0.9c-0.6,0-1,0.3-1,0.6c0,0.3,0.2,0.5,0.6,0.6l1.5,0.4
			c1,0.1,1.7,1,1.7,2c0,1.1-0.9,2.2-2.8,2.2C42.8,16.5,42,15.3,41.9,14.4z"/>
		<path d="M51.2,16.3c-1,0.1-1.8-0.6-1.9-1.6c0-0.1,0-0.2,0-0.3v-3.4h-1.1V9.5h1.1V8L51,7.5v2h1.4v1.5H51v3.1c0,0.5,0.2,0.7,0.7,0.7
			h0.8v1.5H51.2z"/>
		<path d="M53.6,16.3V7h1.7v9.3H53.6z"/>
		<path d="M61.1,9.6H63l-2.9,9.2h-1.9l0.8-2.4h-0.9l-1.9-6.8h1.9l1.5,5.3L61.1,9.6z"/>
		<polygon points="7,11.1 11.4,11.1 11.4,7.6 14.8,11.1 11.4,14.6 11.4,16.3 15.6,16.3 15.6,11.1 19.4,11.1 19.4,7 7,7 		"/>
	</g>
</g>
</svg>
