<?xml version="1.0" encoding="utf-8"?>
<!-- Generator: Adobe Illustrator 27.0.0, SVG Export Plug-In . SVG Version: 6.00 Build 0)  -->
<svg version="1.1" id="Capa_1" xmlns="http://www.w3.org/2000/svg" xmlns:xlink="http://www.w3.org/1999/xlink" x="0px" y="0px"
	 viewBox="0 0 70 35.2" style="enable-background:new 0 0 70 35.2;" xml:space="preserve">
<style type="text/css">
	.st0{fill:#15C30E;}
</style>
<g>
	<path id="XMLID_1499_" class="st0" d="M33.1,12c-0.1,0-0.2,0.1-0.3,0.1c-0.2,0-0.5-0.1-0.6-0.3v-0.1l-1.9-4.3V7.3
		c0-0.2,0.1-0.3,0.3-0.3c0.1,0,0.1,0,0.2,0.1L33,8.7c0.2,0.1,0.3,0.2,0.5,0.2c0.1,0,0.2,0,0.3-0.1L44.7,4c-1.8-2.5-5-4-8.7-4
		c-5.9,0-10.7,4-10.7,8.9c0,2.7,1.4,5.2,3.7,6.8c0.2,0.1,0.3,0.3,0.3,0.5c0,0.1,0,0.1,0,0.2c-0.2,0.6-0.4,1.7-0.4,1.8
		s-0.1,0.2-0.1,0.2c0,0.2,0.1,0.3,0.3,0.3c0.1,0,0.1,0,0.2-0.1l2.4-1.4c0.2-0.1,0.3-0.2,0.5-0.2c0.1,0,0.2,0,0.3,0
		c1.1,0.3,2.3,0.5,3.5,0.5c5.9,0,10.7-4,10.7-8.9c0-1.5-0.4-2.9-1.2-4.1L33.1,12L33.1,12z"/>
	<g id="XMLID_784_">
		<path id="XMLID_1498_" d="M9.3,27.5l-0.2,0.8c-0.2,0.6-0.3,1.2-0.5,1.8c-0.2-0.9-0.4-1.7-0.6-2.6l-1.4-5.6v-0.1H5.5l-1.6,5.7
			c-0.3,1-0.5,1.8-0.8,2.6c-0.1-0.6-0.3-1.3-0.4-2l-1.6-6.1v-0.1H0l2.7,10.1V32h1l1.6-5.8c0.3-1,0.5-1.7,0.6-2.5
			c0.1,0.8,0.3,1.5,0.6,2.5l1.5,5.7V32h1l3-10.1v-0.2H11L9.3,27.5z"/>
		<path id="XMLID_1492_" d="M15.6,24.5c-2,0-3.3,1.6-3.3,4c0,2.3,1.4,3.8,3.4,3.8c1.3,0,2-0.3,2.3-0.4l0.1-0.1l-0.3-1h-0.1
			c-0.3,0.2-0.9,0.3-1.8,0.3c-1.5,0-2.4-1-2.5-2.8h5.2v-0.1c0-0.1,0-0.2,0-0.4c0-0.3,0-1.2-0.5-2C17.5,24.9,16.6,24.5,15.6,24.5
			 M13.4,27.5c0.3-1.5,1.3-2,2.1-2c0.5,0,1,0.2,1.3,0.5c0.4,0.4,0.5,1.2,0.6,1.6h-4.1V27.5z"/>
		<path id="XMLID_1449_" d="M26.7,30.7L26.7,30.7c-0.5,0.2-1.3,0.4-2,0.4c-2.5,0-4-1.6-4-4.2c0-2.7,1.5-4.4,4.1-4.4
			c0.8,0,1.4,0.1,1.9,0.3h0.1l0.5-0.9l-0.1-0.1c-0.2-0.1-1-0.4-2.4-0.4c-3.1,0-5.2,2.1-5.2,5.4c0,3.9,2.6,5.2,4.8,5.2
			c1.3,0,2.3-0.2,2.8-0.5l0,0.1l-0.5-0.9H26.7z"/>
		<path id="XMLID_1448_" d="M31.8,24.5c-0.5,0-1.1,0.1-1.5,0.4c-0.2,0.1-0.5,0.3-0.6,0.5v-3.9h-1.1V32h1.1v-4.5c0-0.2,0-0.4,0.1-0.6
			c0.3-0.9,1.1-1.4,1.9-1.4c1.5,0,1.7,1.4,1.7,2.3V32h1.1v-4.4C34.5,24.6,32.3,24.5,31.8,24.5"/>
		<path id="XMLID_1035_" d="M44.1,23h-1.1v1.6h-1.2v0.9h1.2v4.2c0,0.9,0.1,1.4,0.4,1.8c0.3,0.3,0.8,0.5,1.4,0.5
			c0.4,0,0.8-0.1,1.1-0.2l0.2-0.1l-0.5-0.5h-0.1c-0.2,0-0.3,0-0.6,0c-0.5,0-0.9-0.3-0.9-1.3v-4.4h2v-0.9h-2V23H44.1z"/>
		<path id="XMLID_1010_" d="M53.3,21.7c-0.8,0-1.4,0.1-2.1,0.2H51V32h1.1v-4.2c0.3,0.1,0.6,0.1,1,0.1c1.3,0,2.4-0.4,3-1.2
			c0.5-0.5,0.8-1.2,0.8-2.1c0-0.9-0.3-1.6-0.9-2C55.4,22,54.4,21.7,53.3,21.7 M52,22.8c0.2,0,0.6-0.1,1.2-0.1c1.6,0,2.5,0.8,2.5,2
			c0,1.4-1,2.3-2.6,2.3c-0.3,0-0.8,0-1.1-0.1C52,26.8,52,22.8,52,22.8z"/>
		<path id="XMLID_792_" d="M68.7,24.6L67,29.2c-0.1,0.3-0.2,0.8-0.3,1.1c-0.1-0.3-0.2-0.6-0.3-1l-1.8-4.6v-0.1h-1.2l2.7,6.8
			c0,0.2,0,0.2,0,0.2s0,0.1-0.1,0.2c-0.3,0.9-0.8,1.4-1.1,1.7c-0.4,0.4-1,0.6-1.2,0.8l-0.2,0.1l0.9,0.9l0,0c0.2-0.1,0.4-0.3,1-0.8
			c1-0.9,1.5-2,2.5-4.3l2.1-5.3l0.1-0.2h-1.3V24.6z"/>
		<path id="XMLID_789_" d="M41,30.2v-2.8c0-1.9-0.9-2.9-2.6-2.9c-0.8,0-1.6,0.2-2.1,0.6h-0.1l0.4,0.9l0.1-0.1c0.4-0.3,1-0.4,1.6-0.4
			l0,0c0.4,0,0.9,0.1,1.1,0.4c0.3,0.3,0.4,0.8,0.4,1.5c-1.7,0-2.9,0.3-3.5,1.1c-0.4,0.4-0.6,1-0.6,1.7c0,1.1,0.8,2.1,2.3,2.1
			c1.1,0,1.7-0.5,2.1-0.9l0.1,0.8h1.1V32C41,31.2,41,30.7,41,30.2 M37.1,28.9c0.4-0.4,1.4-0.6,2.7-0.6h0.1v1.3c0,0.1,0,0.2-0.1,0.3
			c-0.2,0.6-0.9,1.3-1.9,1.3c-0.5,0-1.2-0.3-1.2-1.3C36.8,29.5,36.9,29.2,37.1,28.9"/>
		<path id="XMLID_785_" d="M62.4,30.2v-2.8c0-1.9-0.9-2.9-2.6-2.9c-0.8,0-1.5,0.2-2,0.5l-0.2,0.1L58,26l0.1-0.1
			c0.4-0.2,1-0.4,1.5-0.4l0,0c0.4,0,0.9,0.1,1.1,0.4c0.3,0.3,0.4,0.8,0.4,1.5c-1.7,0-2.9,0.3-3.5,1.1c-0.4,0.4-0.6,1-0.6,1.7
			c0,1,0.8,2.1,2.3,2.1c1.1,0,1.7-0.5,2.1-0.9l0.1,0.8h1.1V32C62.4,31.2,62.4,30.7,62.4,30.2 M61.3,29.5c0,0.1,0,0.2-0.1,0.3
			c-0.2,0.6-0.9,1.3-1.9,1.3c-0.5,0-1.2-0.3-1.2-1.3c0-0.4,0.1-0.8,0.4-1c0.4-0.4,1.4-0.6,2.7-0.6h0.1L61.3,29.5z"/>
	</g>
</g>
</svg>
