<?xml version="1.0" encoding="utf-8"?>
<!-- Generator: Adobe Illustrator 27.0.0, SVG Export Plug-In . SVG Version: 6.00 Build 0)  -->
<svg version="1.1" id="katman_1" xmlns="http://www.w3.org/2000/svg" xmlns:xlink="http://www.w3.org/1999/xlink" x="0px" y="0px"
	 viewBox="0 0 560 208.6" style="enable-background:new 0 0 560 208.6;" xml:space="preserve">
<g>
	<path d="M14.9,208.6v-60.3H-2.9v-18.7h57.1v18.7H36.4v60.3H14.9L14.9,208.6z M64.7,208.6v-79.2h22.5c8.9,0,15,0.4,18.5,1.2
		c3.4,0.7,6.5,2.2,9,4.2c2.8,2.2,5,4.9,6.5,8.3c1.5,3.4,2.2,7.1,2.2,11.1c0,6.1-1.5,11.1-4.4,15c-3,3.9-7.4,6.4-13.2,7.7l21.5,31.9
		h-24.3l-18.1-31v31L64.7,208.6L64.7,208.6z M84.9,166.9h4c4.6,0,8-0.7,10.2-2.4c2.1-1.6,3.3-4,3.3-7.4c0-4-1-6.8-3-8.4
		c-1.9-1.6-5.3-2.5-10.1-2.5h-4.3L84.9,166.9L84.9,166.9z"/>
	<path d="M126.4,208.6l27.3-79.2h27l27.3,79.2h-21.3l-4-14.2h-30.7l-4.2,14.2H126.4L126.4,208.6z M156.5,179.1H178l-8-26.1
		c-0.4-1.3-0.7-2.5-1-3.9l-1.6-6.8c-0.4,1.9-0.9,3.9-1.3,5.6c-0.4,1.8-0.9,3.4-1.3,5L156.5,179.1L156.5,179.1z M215.5,208.6v-79.2
		h20.8l29.9,40.6c0.6,0.9,1.5,2.5,2.8,5c1.3,2.5,2.8,5.5,4.3,8.9c-0.4-3-0.7-5.8-0.9-8.7c-0.1-2.5-0.3-4.9-0.3-6.8v-39.1h20.8v79.2
		h-20.8l-29.9-40.9c-0.6-0.9-1.6-2.5-3-5c-1.3-2.5-2.8-5.5-4.3-8.9c0.4,3.3,0.7,6.2,0.9,8.7c0.1,2.5,0.3,4.9,0.3,6.8v39.1h-20.6
		V208.6z M313.3,183.1c3.3,3.7,6.4,6.4,9.5,8.2c3.1,1.8,6.2,2.7,9.3,2.7c2.8,0,5.2-0.7,7.1-2.4c1.9-1.5,2.8-3.6,2.8-5.9
		c0-2.7-0.7-4.6-2.4-6.1c-1.6-1.5-5.2-3-11-4.4c-7.7-2.1-13.2-4.7-16.5-8.2c-3.3-3.4-4.7-8-4.7-13.8c0-7.6,2.5-13.8,7.6-18.5
		c5-4.7,11.6-7.1,19.7-7.1c4.3,0,8.4,0.6,12.5,1.8c3.9,1.2,7.6,3,11.1,5.3l-6.8,15.6c-2.2-1.9-4.7-3.6-7.6-4.7c-2.4-1-5-1.6-7.7-1.6
		c-2.5,0-4.7,0.6-6.4,1.9c-1.5,1-2.5,2.8-2.4,4.7c0,1.9,0.7,3.6,2.1,4.7c1.5,1.2,4.2,2.4,8.3,3.4l1,0.3c8.7,2.4,14.5,5,17.3,7.9
		c1.9,1.9,3.3,4.3,4.3,7c1,2.7,1.5,5.8,1.5,9c0,8.4-2.8,15.1-8.3,20.3c-5.5,5-12.9,7.7-22.1,7.7c-5.5,0-10.5-0.9-15.1-2.8
		c-4.4-1.9-8.9-4.7-13-8.7C303.7,199.1,313.3,183.1,313.3,183.1z M374.1,208.6v-79.2h48.5v17.5h-27.4v13.8h25.9v16.9h-25.9v31.1
		L374.1,208.6L374.1,208.6z M434.3,208.6v-79.2h48.5v17.5h-27.4v13.8h25.9v16.9h-25.9v13.3h27.4v17.8L434.3,208.6L434.3,208.6z
		 M497.1,208.6v-79.2h22.5c8.9,0,15,0.4,18.5,1.2c3.4,0.7,6.5,2.2,9,4.2c2.8,2.2,5,4.9,6.5,8.3c1.5,3.4,2.4,7.1,2.4,11.1
		c0,6.1-1.5,11.1-4.4,15c-3,3.9-7.4,6.4-13.2,7.7l21.5,31.9h-24.3l-18.1-31v31L497.1,208.6L497.1,208.6z M517.3,166.9h4
		c4.6,0,8-0.7,10.2-2.4c2.1-1.6,3.3-4,3.3-7.4c0-4-1-6.8-3-8.4s-5.3-2.5-10.1-2.5h-4.3v20.8H517.3z M244.4,0.9l14.4,54.3
		c0.7,2.5,1.3,5,1.9,7.7c0.6,2.7,1.2,5.6,1.8,9.2c0.7-4,1.5-7.4,1.9-10.1c0.6-2.7,1-4.9,1.6-6.8l13.5-54.3H311l-32.3,114.3h-28.9
		l-14.1-48.8c-0.6-1.8-1.3-5-2.5-10.1c-0.6-2.2-0.9-4-1.2-5.2l-1,4.6c-0.9,3.6-1.8,7.1-2.7,10.7l-13.9,48.8h-29.2L152.9,0.9h31.4
		l13,54.7c0.6,2.8,1.2,5.6,1.8,8.4c0.6,2.8,1.2,5.6,1.6,8.6c1.2-5.8,2.5-11.4,4-17l14.4-54.7C219.4,0.9,244.4,0.9,244.4,0.9z
		 M322.5,115.2V0.9H354v114.3C354,115.2,322.5,115.2,322.5,115.2z M379,115.2V0.9h32.6c12.7,0,21.6,0.6,26.7,1.8
		c5,1.2,9.3,3.1,13,5.9c4.2,3.1,7.4,7.3,9.5,12c2.2,4.9,3.3,10.2,3.3,16c0,8.9-2.2,16-6.5,21.6c-4.3,5.5-10.7,9.2-19,11l31.1,46.1
		h-35.1l-26.2-44.8v44.8H379V115.2z M408.2,54.8h5.8c6.7,0,11.6-1.2,14.7-3.4c3.1-2.2,4.6-5.9,4.6-10.8c0-5.8-1.5-9.8-4.3-12.2
		c-3-2.4-7.7-3.6-14.5-3.6h-6.2V54.8L408.2,54.8z M481.6,115.2V0.9h70v25.1H512v19.9h37.4v24.5H512v19.3h39.6v25.6L481.6,115.2
		L481.6,115.2z M140.6,0H-1.8v22.7h142.5V0z M140.6,44H-1.8v22.7h142.5V44z M140.6,91.9H-1.8v22.7h142.5V91.9z"/>
</g>
</svg>
